<svg width="552" height="147" viewBox="0 0 552 147" fill="none" xmlns="http://www.w3.org/2000/svg">
<path d="M72.0971 136.303C74.0011 136.303 75.2491 135.263 75.2491 133.471C75.2491 132.095 74.4811 131.231 72.6571 130.975L71.9531 130.879C70.9131 130.735 70.2731 130.287 70.2731 129.407C70.2731 128.527 70.9131 127.951 71.9851 127.951C73.0411 127.951 73.8251 128.543 74.2091 129.103L75.1691 128.271C74.4171 127.343 73.4571 126.799 72.0811 126.799C70.4011 126.799 69.0091 127.679 69.0091 129.471C69.0091 131.167 70.2571 131.775 71.7771 131.999L72.4811 132.095C73.6011 132.255 73.9851 132.927 73.9851 133.631C73.9851 134.575 73.2651 135.151 72.1771 135.151C71.0731 135.151 70.2891 134.671 69.5691 133.711L68.6251 134.511C69.4411 135.583 70.4811 136.303 72.0971 136.303ZM78.3349 130.527L81.1509 130.511V129.327L78.2229 129.343V127.871L76.9749 127.887V129.167C76.9749 130.031 77.5349 130.527 78.3349 130.527ZM78.3349 135.167L81.1509 135.151V133.967L78.2229 133.983V132.511L76.9749 132.527V133.807C76.9749 134.671 77.5349 135.167 78.3349 135.167ZM86.3104 136.303C88.5664 136.303 89.7664 135.039 89.7664 132.847V126.991H88.4544V132.655C88.4544 134.303 87.7184 135.151 86.3104 135.151C84.9024 135.151 84.1664 134.367 84.1664 133.071V131.615H86.3424V130.463H85.9264C84.6464 130.463 84.2464 129.503 84.2464 128.431V128.111H86.1344V126.991H84.6784C83.5264 126.991 82.9664 127.551 82.9664 128.527V128.607C82.9664 129.679 83.8144 130.223 84.6304 130.415V130.463H84.4864C83.4304 130.463 82.8544 131.247 82.8544 132.575V133.087C82.8544 135.103 84.0544 136.303 86.3104 136.303ZM93.3974 130.527L96.2134 130.511V129.327L93.2854 129.343V127.871L92.0374 127.887V129.167C92.0374 130.031 92.5974 130.527 93.3974 130.527ZM93.3974 135.167L96.2134 135.151V133.967L93.2854 133.983V132.511L92.0374 132.527V133.807C92.0374 134.671 92.5974 135.167 93.3974 135.167ZM98.2209 136.111H99.5329V129.743C99.5329 128.543 100.669 127.983 101.821 127.983C103.165 127.983 103.901 128.831 103.901 130.463V136.111H105.213V130.255C105.213 128.063 104.013 126.799 102.173 126.799C100.637 126.799 99.9329 127.631 99.5649 128.495H99.5009V126.991H98.2209V136.111ZM98.7746 125.711H103.799C104.679 125.711 105.127 125.279 105.127 124.415V123.295H103.911V124.655H98.7746V125.711ZM104.037 122.671H105.125V120.495H104.037V122.671ZM111.752 136.111H119.096V134.927H116.216V124.943H114.12L111.16 127.711L111.944 128.559L114.76 125.935H114.872V134.927H111.752V136.111Z" fill="black"/>
<path d="M193.399 136.302C195.303 136.302 196.551 135.262 196.551 133.47C196.551 132.094 195.783 131.23 193.959 130.974L193.255 130.878C192.215 130.734 191.575 130.286 191.575 129.406C191.575 128.526 192.215 127.95 193.287 127.95C194.343 127.95 195.127 128.542 195.511 129.102L196.471 128.27C195.719 127.342 194.759 126.798 193.383 126.798C191.703 126.798 190.311 127.678 190.311 129.47C190.311 131.166 191.559 131.774 193.079 131.998L193.783 132.094C194.903 132.254 195.287 132.926 195.287 133.63C195.287 134.574 194.567 135.15 193.479 135.15C192.375 135.15 191.591 134.67 190.871 133.71L189.927 134.51C190.743 135.582 191.783 136.302 193.399 136.302ZM199.637 130.526L202.453 130.51V129.326L199.525 129.342V127.87L198.277 127.886V129.166C198.277 130.03 198.837 130.526 199.637 130.526ZM199.637 135.166L202.453 135.15V133.966L199.525 133.982V132.51L198.277 132.526V133.806C198.277 134.67 198.837 135.166 199.637 135.166ZM207.612 136.302C209.868 136.302 211.068 135.038 211.068 132.846V126.99H209.756V132.654C209.756 134.302 209.02 135.15 207.612 135.15C206.204 135.15 205.468 134.366 205.468 133.07V131.614H207.644V130.462H207.228C205.948 130.462 205.548 129.502 205.548 128.43V128.11H207.436V126.99H205.98C204.828 126.99 204.268 127.55 204.268 128.526V128.606C204.268 129.678 205.116 130.222 205.932 130.414V130.462H205.788C204.732 130.462 204.156 131.246 204.156 132.574V133.086C204.156 135.102 205.356 136.302 207.612 136.302ZM214.699 130.526L217.515 130.51V129.326L214.587 129.342V127.87L213.339 127.886V129.166C213.339 130.03 213.899 130.526 214.699 130.526ZM214.699 135.166L217.515 135.15V133.966L214.587 133.982V132.51L213.339 132.526V133.806C213.339 134.67 213.899 135.166 214.699 135.166ZM219.523 136.11H220.835V129.742C220.835 128.542 221.971 127.982 223.123 127.982C224.467 127.982 225.203 128.83 225.203 130.462V136.11H226.515V130.254C226.515 128.062 225.315 126.798 223.475 126.798C221.939 126.798 221.235 127.63 220.867 128.494H220.803V126.99H219.523V136.11ZM220.076 125.71H225.1C225.98 125.71 226.428 125.278 226.428 124.414V123.294H225.212V124.654H220.076V125.71ZM225.339 122.67H226.427V120.494H225.339V122.67ZM232.846 136.11H240.174V134.926H234.302L237.31 132.222C238.734 130.942 239.758 129.726 239.758 127.998C239.758 126.094 238.51 124.75 236.334 124.75C234.174 124.75 233.182 126.062 232.75 127.374L233.95 127.838C234.254 126.782 234.894 125.95 236.27 125.95C237.646 125.95 238.334 126.798 238.334 128.03V128.222C238.334 129.294 237.534 130.414 236.494 131.374L232.846 134.734V136.11Z" fill="black"/>
<path d="M314.701 136.302C316.605 136.302 317.853 135.262 317.853 133.47C317.853 132.094 317.085 131.23 315.261 130.974L314.557 130.878C313.517 130.734 312.877 130.286 312.877 129.406C312.877 128.526 313.517 127.95 314.589 127.95C315.645 127.95 316.429 128.542 316.813 129.102L317.773 128.27C317.021 127.342 316.061 126.798 314.685 126.798C313.005 126.798 311.613 127.678 311.613 129.47C311.613 131.166 312.861 131.774 314.381 131.998L315.085 132.094C316.205 132.254 316.589 132.926 316.589 133.63C316.589 134.574 315.869 135.15 314.781 135.15C313.677 135.15 312.893 134.67 312.173 133.71L311.229 134.51C312.045 135.582 313.085 136.302 314.701 136.302ZM320.938 130.526L323.754 130.51V129.326L320.826 129.342V127.87L319.578 127.886V129.166C319.578 130.03 320.138 130.526 320.938 130.526ZM320.938 135.166L323.754 135.15V133.966L320.826 133.982V132.51L319.578 132.526V133.806C319.578 134.67 320.138 135.166 320.938 135.166ZM328.914 136.302C331.17 136.302 332.37 135.038 332.37 132.846V126.99H331.058V132.654C331.058 134.302 330.322 135.15 328.914 135.15C327.506 135.15 326.77 134.366 326.77 133.07V131.614H328.946V130.462H328.53C327.25 130.462 326.85 129.502 326.85 128.43V128.11H328.738V126.99H327.282C326.13 126.99 325.57 127.55 325.57 128.526V128.606C325.57 129.678 326.418 130.222 327.234 130.414V130.462H327.09C326.034 130.462 325.458 131.246 325.458 132.574V133.086C325.458 135.102 326.658 136.302 328.914 136.302ZM336.001 130.526L338.817 130.51V129.326L335.889 129.342V127.87L334.641 127.886V129.166C334.641 130.03 335.201 130.526 336.001 130.526ZM336.001 135.166L338.817 135.15V133.966L335.889 133.982V132.51L334.641 132.526V133.806C334.641 134.67 335.201 135.166 336.001 135.166ZM340.824 136.11H342.136V129.742C342.136 128.542 343.272 127.982 344.424 127.982C345.768 127.982 346.504 128.83 346.504 130.462V136.11H347.816V130.254C347.816 128.062 346.616 126.798 344.776 126.798C343.24 126.798 342.536 127.63 342.168 128.494H342.104V126.99H340.824V136.11ZM341.378 125.71H346.402C347.282 125.71 347.73 125.278 347.73 124.414V123.294H346.514V124.654H341.378V125.71ZM346.641 122.67H347.729V120.494H346.641V122.67ZM357.235 136.302C359.507 136.302 361.027 134.974 361.027 133.054C361.027 131.374 359.875 130.478 358.675 130.238V130.174C359.859 129.87 360.819 129.006 360.819 127.566C360.819 125.758 359.315 124.75 357.427 124.75C355.635 124.75 354.659 125.678 354.099 126.574L355.091 127.342C355.555 126.494 356.243 125.95 357.395 125.95C358.579 125.95 359.395 126.542 359.395 127.71V127.822C359.395 128.894 358.627 129.678 357.123 129.678H355.907V130.846H357.219C358.787 130.846 359.619 131.598 359.619 132.91V133.038C359.619 134.35 358.787 135.102 357.219 135.102C355.859 135.102 355.203 134.51 354.627 133.63L353.619 134.398C354.307 135.358 355.299 136.302 357.235 136.302Z" fill="black"/>
<path d="M436.002 136.302C437.906 136.302 439.154 135.262 439.154 133.47C439.154 132.094 438.386 131.23 436.562 130.974L435.858 130.878C434.818 130.734 434.178 130.286 434.178 129.406C434.178 128.526 434.818 127.95 435.89 127.95C436.946 127.95 437.73 128.542 438.114 129.102L439.074 128.27C438.322 127.342 437.362 126.798 435.986 126.798C434.306 126.798 432.914 127.678 432.914 129.47C432.914 131.166 434.162 131.774 435.682 131.998L436.386 132.094C437.506 132.254 437.89 132.926 437.89 133.63C437.89 134.574 437.17 135.15 436.082 135.15C434.978 135.15 434.194 134.67 433.474 133.71L432.53 134.51C433.346 135.582 434.386 136.302 436.002 136.302ZM442.24 130.526L445.056 130.51V129.326L442.128 129.342V127.87L440.88 127.886V129.166C440.88 130.03 441.44 130.526 442.24 130.526ZM442.24 135.166L445.056 135.15V133.966L442.128 133.982V132.51L440.88 132.526V133.806C440.88 134.67 441.44 135.166 442.24 135.166ZM450.216 136.302C452.472 136.302 453.672 135.038 453.672 132.846V126.99H452.36V132.654C452.36 134.302 451.624 135.15 450.216 135.15C448.808 135.15 448.072 134.366 448.072 133.07V131.614H450.248V130.462H449.832C448.552 130.462 448.152 129.502 448.152 128.43V128.11H450.04V126.99H448.584C447.432 126.99 446.872 127.55 446.872 128.526V128.606C446.872 129.678 447.72 130.222 448.536 130.414V130.462H448.392C447.336 130.462 446.76 131.246 446.76 132.574V133.086C446.76 135.102 447.96 136.302 450.216 136.302ZM457.303 130.526L460.119 130.51V129.326L457.191 129.342V127.87L455.943 127.886V129.166C455.943 130.03 456.503 130.526 457.303 130.526ZM457.303 135.166L460.119 135.15V133.966L457.191 133.982V132.51L455.943 132.526V133.806C455.943 134.67 456.503 135.166 457.303 135.166ZM462.126 136.11H463.438V129.742C463.438 128.542 464.574 127.982 465.726 127.982C467.07 127.982 467.806 128.83 467.806 130.462V136.11H469.118V130.254C469.118 128.062 467.918 126.798 466.078 126.798C464.542 126.798 463.838 127.63 463.47 128.494H463.406V126.99H462.126V136.11ZM462.68 125.71H467.704C468.584 125.71 469.032 125.278 469.032 124.414V123.294H467.816V124.654H462.68V125.71ZM467.942 122.67H469.03V120.494H467.942V122.67ZM480.249 136.11H481.529V133.918H483.145V132.798H481.529V124.942H479.529L474.857 132.734V133.918H480.249V136.11ZM476.121 132.798L480.169 125.982H480.249V132.798H476.121Z" fill="black"/>
<path d="M225.227 19.6174L225.227 77.8345" stroke="black" stroke-width="2" stroke-linecap="square"/>
<rect x="182.196" width="86.06" height="32.9053" fill="black"/>
<path d="M206.191 23.4232C208.447 23.4232 209.647 22.1592 209.647 19.9672V10.7512H208.335V19.7752C208.335 21.4232 207.599 22.2712 206.191 22.2712C204.767 22.2712 204.031 21.4232 204.031 19.7752V14.1112H202.719V19.9672C202.719 22.1592 203.919 23.4232 206.191 23.4232ZM205.176 12.8312H207.368V11.7752H204.584V10.7352H203.368V11.2152C203.368 12.3512 203.896 12.8312 205.176 12.8312ZM214.92 13.9192C213.368 13.9192 212.28 14.4792 211.592 15.5352L212.44 16.3512C212.936 15.5352 213.752 15.0712 214.904 15.0712C216.568 15.0712 217.496 16.0632 217.496 17.8072V19.3432C217.496 21.1832 216.68 22.0792 215.528 22.0792H215.32L214.6 19.3272C214.312 18.2392 213.992 17.9192 213.176 17.9192H212.152V19.0392H213.24L214.376 23.2312H215.528C217.64 23.2312 218.872 21.6952 218.872 18.5432C218.872 15.5512 217.688 13.9192 214.92 13.9192ZM223.67 13.9192C222.118 13.9192 221.03 14.4792 220.342 15.5352L221.19 16.3512C221.686 15.5352 222.502 15.0712 223.654 15.0712C225.318 15.0712 226.246 16.0632 226.246 17.8072V19.3432C226.246 21.1832 225.43 22.0792 224.278 22.0792H224.07L223.35 19.3272C223.062 18.2392 222.742 17.9192 221.926 17.9192H220.902V19.0392H221.99L223.126 23.2312H224.278C226.39 23.2312 227.622 21.6952 227.622 18.5432C227.622 15.5512 226.438 13.9192 223.67 13.9192ZM226.38 27.5032H227.468V25.6152C227.468 24.8312 227.036 24.3992 226.268 24.3992H225.484V25.3592H226.364L226.38 27.5032ZM233.3 23.4232C235.556 23.4232 236.756 22.1592 236.756 19.9672V14.1112H235.444V19.7752C235.444 21.4232 234.708 22.2712 233.3 22.2712C231.876 22.2712 231.14 21.4232 231.14 19.7752V14.1112H229.828V19.9672C229.828 22.1592 231.028 23.4232 233.3 23.4232ZM235.277 12.8312H238.477V11.7752H234.685V10.7512H233.469V11.2152C233.469 12.3512 233.997 12.8312 235.277 12.8312ZM242.493 23.4232C243.997 23.4232 244.685 22.5912 245.037 21.7272H245.101V23.2312H246.381V14.1112H245.069V20.4952C245.069 21.6952 243.965 22.2552 242.845 22.2552C241.485 22.2552 240.749 21.4072 240.749 19.7752V14.1112H239.437V19.9672C239.437 22.1592 240.637 23.4232 242.493 23.4232Z" fill="white"/>
<path d="M32.3696 77.6882H223.814" stroke="black" stroke-width="5" stroke-linecap="square"/>
<path d="M35.144 76.6877C34.5918 76.6877 34.144 77.1355 34.144 77.6877C34.144 78.24 34.5918 78.6877 35.144 78.6877V76.6877ZM516.993 78.6877C517.545 78.6877 517.993 78.24 517.993 77.6877C517.993 77.1355 517.545 76.6877 516.993 76.6877V78.6877ZM35.646 78.6877C36.1983 78.6877 36.646 78.24 36.646 77.6877C36.646 77.1355 36.1983 76.6877 35.646 76.6877V78.6877ZM40.6652 76.6877C40.1129 76.6877 39.6652 77.1355 39.6652 77.6877C39.6652 78.24 40.1129 78.6877 40.6652 78.6877V76.6877ZM41.6691 78.6877C42.2214 78.6877 42.6691 78.24 42.6691 77.6877C42.6691 77.1355 42.2214 76.6877 41.6691 76.6877V78.6877ZM46.6883 76.6877C46.136 76.6877 45.6883 77.1355 45.6883 77.6877C45.6883 78.24 46.136 78.6877 46.6883 78.6877V76.6877ZM47.6922 78.6877C48.2445 78.6877 48.6922 78.24 48.6922 77.6877C48.6922 77.1355 48.2445 76.6877 47.6922 76.6877V78.6877ZM52.7114 76.6877C52.1591 76.6877 51.7114 77.1355 51.7114 77.6877C51.7114 78.24 52.1591 78.6877 52.7114 78.6877V76.6877ZM53.7153 78.6877C54.2676 78.6877 54.7153 78.24 54.7153 77.6877C54.7153 77.1355 54.2676 76.6877 53.7153 76.6877V78.6877ZM58.7345 76.6877C58.1823 76.6877 57.7345 77.1355 57.7345 77.6877C57.7345 78.24 58.1823 78.6877 58.7345 78.6877V76.6877ZM59.7384 78.6877C60.2907 78.6877 60.7384 78.24 60.7384 77.6877C60.7384 77.1355 60.2907 76.6877 59.7384 76.6877V78.6877ZM64.7576 76.6877C64.2054 76.6877 63.7576 77.1355 63.7576 77.6877C63.7576 78.24 64.2054 78.6877 64.7576 78.6877V76.6877ZM65.7615 78.6877C66.3138 78.6877 66.7615 78.24 66.7615 77.6877C66.7615 77.1355 66.3138 76.6877 65.7615 76.6877V78.6877ZM70.7808 76.6877C70.2285 76.6877 69.7808 77.1355 69.7808 77.6877C69.7808 78.24 70.2285 78.6877 70.7808 78.6877V76.6877ZM71.7846 78.6877C72.3369 78.6877 72.7846 78.24 72.7846 77.6877C72.7846 77.1355 72.3369 76.6877 71.7846 76.6877V78.6877ZM76.8039 76.6877C76.2516 76.6877 75.8039 77.1355 75.8039 77.6877C75.8039 78.24 76.2516 78.6877 76.8039 78.6877V76.6877ZM77.8077 78.6877C78.36 78.6877 78.8077 78.24 78.8077 77.6877C78.8077 77.1355 78.36 76.6877 77.8077 76.6877V78.6877ZM82.827 76.6877C82.2747 76.6877 81.827 77.1355 81.827 77.6877C81.827 78.24 82.2747 78.6877 82.827 78.6877V76.6877ZM83.8308 78.6877C84.3831 78.6877 84.8308 78.24 84.8308 77.6877C84.8308 77.1355 84.3831 76.6877 83.8308 76.6877V78.6877ZM88.8501 76.6877C88.2978 76.6877 87.8501 77.1355 87.8501 77.6877C87.8501 78.24 88.2978 78.6877 88.8501 78.6877V76.6877ZM89.8539 78.6877C90.4062 78.6877 90.8539 78.24 90.8539 77.6877C90.8539 77.1355 90.4062 76.6877 89.8539 76.6877V78.6877ZM94.8732 76.6877C94.3209 76.6877 93.8732 77.1355 93.8732 77.6877C93.8732 78.24 94.3209 78.6877 94.8732 78.6877V76.6877ZM95.877 78.6877C96.4293 78.6877 96.877 78.24 96.877 77.6877C96.877 77.1355 96.4293 76.6877 95.877 76.6877V78.6877ZM100.896 76.6877C100.344 76.6877 99.8963 77.1355 99.8963 77.6877C99.8963 78.24 100.344 78.6877 100.896 78.6877V76.6877ZM101.9 78.6877C102.452 78.6877 102.9 78.24 102.9 77.6877C102.9 77.1355 102.452 76.6877 101.9 76.6877V78.6877ZM106.919 76.6877C106.367 76.6877 105.919 77.1355 105.919 77.6877C105.919 78.24 106.367 78.6877 106.919 78.6877V76.6877ZM107.923 78.6877C108.476 78.6877 108.923 78.24 108.923 77.6877C108.923 77.1355 108.476 76.6877 107.923 76.6877V78.6877ZM112.943 76.6877C112.39 76.6877 111.943 77.1355 111.943 77.6877C111.943 78.24 112.39 78.6877 112.943 78.6877V76.6877ZM113.946 78.6877C114.499 78.6877 114.946 78.24 114.946 77.6877C114.946 77.1355 114.499 76.6877 113.946 76.6877V78.6877ZM118.966 76.6877C118.413 76.6877 117.966 77.1355 117.966 77.6877C117.966 78.24 118.413 78.6877 118.966 78.6877V76.6877ZM119.969 78.6877C120.522 78.6877 120.969 78.24 120.969 77.6877C120.969 77.1355 120.522 76.6877 119.969 76.6877V78.6877ZM124.989 76.6877C124.436 76.6877 123.989 77.1355 123.989 77.6877C123.989 78.24 124.436 78.6877 124.989 78.6877V76.6877ZM125.993 78.6877C126.545 78.6877 126.993 78.24 126.993 77.6877C126.993 77.1355 126.545 76.6877 125.993 76.6877V78.6877ZM131.012 76.6877C130.46 76.6877 130.012 77.1355 130.012 77.6877C130.012 78.24 130.46 78.6877 131.012 78.6877V76.6877ZM132.016 78.6877C132.568 78.6877 133.016 78.24 133.016 77.6877C133.016 77.1355 132.568 76.6877 132.016 76.6877V78.6877ZM137.035 76.6877C136.483 76.6877 136.035 77.1355 136.035 77.6877C136.035 78.24 136.483 78.6877 137.035 78.6877V76.6877ZM138.039 78.6877C138.591 78.6877 139.039 78.24 139.039 77.6877C139.039 77.1355 138.591 76.6877 138.039 76.6877V78.6877ZM143.058 76.6877C142.506 76.6877 142.058 77.1355 142.058 77.6877C142.058 78.24 142.506 78.6877 143.058 78.6877V76.6877ZM144.062 78.6877C144.614 78.6877 145.062 78.24 145.062 77.6877C145.062 77.1355 144.614 76.6877 144.062 76.6877V78.6877ZM149.081 76.6877C148.529 76.6877 148.081 77.1355 148.081 77.6877C148.081 78.24 148.529 78.6877 149.081 78.6877V76.6877ZM150.085 78.6877C150.637 78.6877 151.085 78.24 151.085 77.6877C151.085 77.1355 150.637 76.6877 150.085 76.6877V78.6877ZM155.104 76.6877C154.552 76.6877 154.104 77.1355 154.104 77.6877C154.104 78.24 154.552 78.6877 155.104 78.6877V76.6877ZM156.108 78.6877C156.66 78.6877 157.108 78.24 157.108 77.6877C157.108 77.1355 156.66 76.6877 156.108 76.6877V78.6877ZM161.127 76.6877C160.575 76.6877 160.127 77.1355 160.127 77.6877C160.127 78.24 160.575 78.6877 161.127 78.6877V76.6877ZM162.131 78.6877C162.684 78.6877 163.131 78.24 163.131 77.6877C163.131 77.1355 162.684 76.6877 162.131 76.6877V78.6877ZM167.15 76.6877C166.598 76.6877 166.15 77.1355 166.15 77.6877C166.15 78.24 166.598 78.6877 167.15 78.6877V76.6877ZM168.154 78.6877C168.707 78.6877 169.154 78.24 169.154 77.6877C169.154 77.1355 168.707 76.6877 168.154 76.6877V78.6877ZM173.174 76.6877C172.621 76.6877 172.174 77.1355 172.174 77.6877C172.174 78.24 172.621 78.6877 173.174 78.6877V76.6877ZM174.177 78.6877C174.73 78.6877 175.177 78.24 175.177 77.6877C175.177 77.1355 174.73 76.6877 174.177 76.6877V78.6877ZM179.197 76.6877C178.644 76.6877 178.197 77.1355 178.197 77.6877C178.197 78.24 178.644 78.6877 179.197 78.6877V76.6877ZM180.201 78.6877C180.753 78.6877 181.201 78.24 181.201 77.6877C181.201 77.1355 180.753 76.6877 180.201 76.6877V78.6877ZM185.22 76.6877C184.668 76.6877 184.22 77.1355 184.22 77.6877C184.22 78.24 184.668 78.6877 185.22 78.6877V76.6877ZM186.224 78.6877C186.776 78.6877 187.224 78.24 187.224 77.6877C187.224 77.1355 186.776 76.6877 186.224 76.6877V78.6877ZM191.243 76.6877C190.691 76.6877 190.243 77.1355 190.243 77.6877C190.243 78.24 190.691 78.6877 191.243 78.6877V76.6877ZM192.247 78.6877C192.799 78.6877 193.247 78.24 193.247 77.6877C193.247 77.1355 192.799 76.6877 192.247 76.6877V78.6877ZM197.266 76.6877C196.714 76.6877 196.266 77.1355 196.266 77.6877C196.266 78.24 196.714 78.6877 197.266 78.6877V76.6877ZM198.27 78.6877C198.822 78.6877 199.27 78.24 199.27 77.6877C199.27 77.1355 198.822 76.6877 198.27 76.6877V78.6877ZM203.289 76.6877C202.737 76.6877 202.289 77.1355 202.289 77.6877C202.289 78.24 202.737 78.6877 203.289 78.6877V76.6877ZM204.293 78.6877C204.845 78.6877 205.293 78.24 205.293 77.6877C205.293 77.1355 204.845 76.6877 204.293 76.6877V78.6877ZM209.312 76.6877C208.76 76.6877 208.312 77.1355 208.312 77.6877C208.312 78.24 208.76 78.6877 209.312 78.6877V76.6877ZM210.316 78.6877C210.868 78.6877 211.316 78.24 211.316 77.6877C211.316 77.1355 210.868 76.6877 210.316 76.6877V78.6877ZM215.335 76.6877C214.783 76.6877 214.335 77.1355 214.335 77.6877C214.335 78.24 214.783 78.6877 215.335 78.6877V76.6877ZM216.339 78.6877C216.891 78.6877 217.339 78.24 217.339 77.6877C217.339 77.1355 216.891 76.6877 216.339 76.6877V78.6877ZM221.358 76.6877C220.806 76.6877 220.358 77.1355 220.358 77.6877C220.358 78.24 220.806 78.6877 221.358 78.6877V76.6877ZM222.362 78.6877C222.915 78.6877 223.362 78.24 223.362 77.6877C223.362 77.1355 222.915 76.6877 222.362 76.6877V78.6877ZM227.382 76.6877C226.829 76.6877 226.382 77.1355 226.382 77.6877C226.382 78.24 226.829 78.6877 227.382 78.6877V76.6877ZM228.385 78.6877C228.938 78.6877 229.385 78.24 229.385 77.6877C229.385 77.1355 228.938 76.6877 228.385 76.6877V78.6877ZM233.405 76.6877C232.852 76.6877 232.405 77.1355 232.405 77.6877C232.405 78.24 232.852 78.6877 233.405 78.6877V76.6877ZM234.408 78.6877C234.961 78.6877 235.408 78.24 235.408 77.6877C235.408 77.1355 234.961 76.6877 234.408 76.6877V78.6877ZM239.428 76.6877C238.875 76.6877 238.428 77.1355 238.428 77.6877C238.428 78.24 238.875 78.6877 239.428 78.6877V76.6877ZM240.432 78.6877C240.984 78.6877 241.432 78.24 241.432 77.6877C241.432 77.1355 240.984 76.6877 240.432 76.6877V78.6877ZM245.451 76.6877C244.899 76.6877 244.451 77.1355 244.451 77.6877C244.451 78.24 244.899 78.6877 245.451 78.6877V76.6877ZM246.455 78.6877C247.007 78.6877 247.455 78.24 247.455 77.6877C247.455 77.1355 247.007 76.6877 246.455 76.6877V78.6877ZM251.474 76.6877C250.922 76.6877 250.474 77.1355 250.474 77.6877C250.474 78.24 250.922 78.6877 251.474 78.6877V76.6877ZM252.478 78.6877C253.03 78.6877 253.478 78.24 253.478 77.6877C253.478 77.1355 253.03 76.6877 252.478 76.6877V78.6877ZM257.497 76.6877C256.945 76.6877 256.497 77.1355 256.497 77.6877C256.497 78.24 256.945 78.6877 257.497 78.6877V76.6877ZM258.501 78.6877C259.053 78.6877 259.501 78.24 259.501 77.6877C259.501 77.1355 259.053 76.6877 258.501 76.6877V78.6877ZM263.52 76.6877C262.968 76.6877 262.52 77.1355 262.52 77.6877C262.52 78.24 262.968 78.6877 263.52 78.6877V76.6877ZM264.524 78.6877C265.076 78.6877 265.524 78.24 265.524 77.6877C265.524 77.1355 265.076 76.6877 264.524 76.6877V78.6877ZM269.543 76.6877C268.991 76.6877 268.543 77.1355 268.543 77.6877C268.543 78.24 268.991 78.6877 269.543 78.6877V76.6877ZM270.547 78.6877C271.099 78.6877 271.547 78.24 271.547 77.6877C271.547 77.1355 271.099 76.6877 270.547 76.6877V78.6877ZM275.566 76.6877C275.014 76.6877 274.566 77.1355 274.566 77.6877C274.566 78.24 275.014 78.6877 275.566 78.6877V76.6877ZM276.57 78.6877C277.122 78.6877 277.57 78.24 277.57 77.6877C277.57 77.1355 277.122 76.6877 276.57 76.6877V78.6877ZM281.589 76.6877C281.037 76.6877 280.589 77.1355 280.589 77.6877C280.589 78.24 281.037 78.6877 281.589 78.6877V76.6877ZM282.593 78.6877C283.146 78.6877 283.593 78.24 283.593 77.6877C283.593 77.1355 283.146 76.6877 282.593 76.6877V78.6877ZM287.613 76.6877C287.06 76.6877 286.613 77.1355 286.613 77.6877C286.613 78.24 287.06 78.6877 287.613 78.6877V76.6877ZM288.616 78.6877C289.169 78.6877 289.616 78.24 289.616 77.6877C289.616 77.1355 289.169 76.6877 288.616 76.6877V78.6877ZM293.636 76.6877C293.083 76.6877 292.636 77.1355 292.636 77.6877C292.636 78.24 293.083 78.6877 293.636 78.6877V76.6877ZM294.639 78.6877C295.192 78.6877 295.639 78.24 295.639 77.6877C295.639 77.1355 295.192 76.6877 294.639 76.6877V78.6877ZM299.659 76.6877C299.106 76.6877 298.659 77.1355 298.659 77.6877C298.659 78.24 299.106 78.6877 299.659 78.6877V76.6877ZM300.663 78.6877C301.215 78.6877 301.663 78.24 301.663 77.6877C301.663 77.1355 301.215 76.6877 300.663 76.6877V78.6877ZM305.682 76.6877C305.13 76.6877 304.682 77.1355 304.682 77.6877C304.682 78.24 305.13 78.6877 305.682 78.6877V76.6877ZM306.686 78.6877C307.238 78.6877 307.686 78.24 307.686 77.6877C307.686 77.1355 307.238 76.6877 306.686 76.6877V78.6877ZM311.705 76.6877C311.153 76.6877 310.705 77.1355 310.705 77.6877C310.705 78.24 311.153 78.6877 311.705 78.6877V76.6877ZM312.709 78.6877C313.261 78.6877 313.709 78.24 313.709 77.6877C313.709 77.1355 313.261 76.6877 312.709 76.6877V78.6877ZM317.728 76.6877C317.176 76.6877 316.728 77.1355 316.728 77.6877C316.728 78.24 317.176 78.6877 317.728 78.6877V76.6877ZM318.732 78.6877C319.284 78.6877 319.732 78.24 319.732 77.6877C319.732 77.1355 319.284 76.6877 318.732 76.6877V78.6877ZM323.751 76.6877C323.199 76.6877 322.751 77.1355 322.751 77.6877C322.751 78.24 323.199 78.6877 323.751 78.6877V76.6877ZM324.755 78.6877C325.307 78.6877 325.755 78.24 325.755 77.6877C325.755 77.1355 325.307 76.6877 324.755 76.6877V78.6877ZM329.774 76.6877C329.222 76.6877 328.774 77.1355 328.774 77.6877C328.774 78.24 329.222 78.6877 329.774 78.6877V76.6877ZM330.778 78.6877C331.33 78.6877 331.778 78.24 331.778 77.6877C331.778 77.1355 331.33 76.6877 330.778 76.6877V78.6877ZM335.797 76.6877C335.245 76.6877 334.797 77.1355 334.797 77.6877C334.797 78.24 335.245 78.6877 335.797 78.6877V76.6877ZM336.801 78.6877C337.353 78.6877 337.801 78.24 337.801 77.6877C337.801 77.1355 337.353 76.6877 336.801 76.6877V78.6877ZM341.82 76.6877C341.268 76.6877 340.82 77.1355 340.82 77.6877C340.82 78.24 341.268 78.6877 341.82 78.6877V76.6877ZM342.824 78.6877C343.377 78.6877 343.824 78.24 343.824 77.6877C343.824 77.1355 343.377 76.6877 342.824 76.6877V78.6877ZM347.844 76.6877C347.291 76.6877 346.844 77.1355 346.844 77.6877C346.844 78.24 347.291 78.6877 347.844 78.6877V76.6877ZM348.847 78.6877C349.4 78.6877 349.847 78.24 349.847 77.6877C349.847 77.1355 349.4 76.6877 348.847 76.6877V78.6877ZM353.867 76.6877C353.314 76.6877 352.867 77.1355 352.867 77.6877C352.867 78.24 353.314 78.6877 353.867 78.6877V76.6877ZM354.87 78.6877C355.423 78.6877 355.87 78.24 355.87 77.6877C355.87 77.1355 355.423 76.6877 354.87 76.6877V78.6877ZM359.89 76.6877C359.337 76.6877 358.89 77.1355 358.89 77.6877C358.89 78.24 359.337 78.6877 359.89 78.6877V76.6877ZM360.894 78.6877C361.446 78.6877 361.894 78.24 361.894 77.6877C361.894 77.1355 361.446 76.6877 360.894 76.6877V78.6877ZM365.913 76.6877C365.361 76.6877 364.913 77.1355 364.913 77.6877C364.913 78.24 365.361 78.6877 365.913 78.6877V76.6877ZM366.917 78.6877C367.469 78.6877 367.917 78.24 367.917 77.6877C367.917 77.1355 367.469 76.6877 366.917 76.6877V78.6877ZM371.936 76.6877C371.384 76.6877 370.936 77.1355 370.936 77.6877C370.936 78.24 371.384 78.6877 371.936 78.6877V76.6877ZM372.94 78.6877C373.492 78.6877 373.94 78.24 373.94 77.6877C373.94 77.1355 373.492 76.6877 372.94 76.6877V78.6877ZM377.959 76.6877C377.407 76.6877 376.959 77.1355 376.959 77.6877C376.959 78.24 377.407 78.6877 377.959 78.6877V76.6877ZM378.963 78.6877C379.515 78.6877 379.963 78.24 379.963 77.6877C379.963 77.1355 379.515 76.6877 378.963 76.6877V78.6877ZM383.982 76.6877C383.43 76.6877 382.982 77.1355 382.982 77.6877C382.982 78.24 383.43 78.6877 383.982 78.6877V76.6877ZM384.986 78.6877C385.538 78.6877 385.986 78.24 385.986 77.6877C385.986 77.1355 385.538 76.6877 384.986 76.6877V78.6877ZM390.005 76.6877C389.453 76.6877 389.005 77.1355 389.005 77.6877C389.005 78.24 389.453 78.6877 390.005 78.6877V76.6877ZM391.009 78.6877C391.561 78.6877 392.009 78.24 392.009 77.6877C392.009 77.1355 391.561 76.6877 391.009 76.6877V78.6877ZM396.028 76.6877C395.476 76.6877 395.028 77.1355 395.028 77.6877C395.028 78.24 395.476 78.6877 396.028 78.6877V76.6877ZM397.032 78.6877C397.584 78.6877 398.032 78.24 398.032 77.6877C398.032 77.1355 397.584 76.6877 397.032 76.6877V78.6877ZM402.051 76.6877C401.499 76.6877 401.051 77.1355 401.051 77.6877C401.051 78.24 401.499 78.6877 402.051 78.6877V76.6877ZM403.055 78.6877C403.608 78.6877 404.055 78.24 404.055 77.6877C404.055 77.1355 403.608 76.6877 403.055 76.6877V78.6877ZM408.075 76.6877C407.522 76.6877 407.075 77.1355 407.075 77.6877C407.075 78.24 407.522 78.6877 408.075 78.6877V76.6877ZM409.078 78.6877C409.631 78.6877 410.078 78.24 410.078 77.6877C410.078 77.1355 409.631 76.6877 409.078 76.6877V78.6877ZM414.098 76.6877C413.545 76.6877 413.098 77.1355 413.098 77.6877C413.098 78.24 413.545 78.6877 414.098 78.6877V76.6877ZM415.102 78.6877C415.654 78.6877 416.102 78.24 416.102 77.6877C416.102 77.1355 415.654 76.6877 415.102 76.6877V78.6877ZM420.121 76.6877C419.568 76.6877 419.121 77.1355 419.121 77.6877C419.121 78.24 419.568 78.6877 420.121 78.6877V76.6877ZM421.125 78.6877C421.677 78.6877 422.125 78.24 422.125 77.6877C422.125 77.1355 421.677 76.6877 421.125 76.6877V78.6877ZM426.144 76.6877C425.592 76.6877 425.144 77.1355 425.144 77.6877C425.144 78.24 425.592 78.6877 426.144 78.6877V76.6877ZM427.148 78.6877C427.7 78.6877 428.148 78.24 428.148 77.6877C428.148 77.1355 427.7 76.6877 427.148 76.6877V78.6877ZM432.167 76.6877C431.615 76.6877 431.167 77.1355 431.167 77.6877C431.167 78.24 431.615 78.6877 432.167 78.6877V76.6877ZM433.171 78.6877C433.723 78.6877 434.171 78.24 434.171 77.6877C434.171 77.1355 433.723 76.6877 433.171 76.6877V78.6877ZM438.19 76.6877C437.638 76.6877 437.19 77.1355 437.19 77.6877C437.19 78.24 437.638 78.6877 438.19 78.6877V76.6877ZM439.194 78.6877C439.746 78.6877 440.194 78.24 440.194 77.6877C440.194 77.1355 439.746 76.6877 439.194 76.6877V78.6877ZM444.213 76.6877C443.661 76.6877 443.213 77.1355 443.213 77.6877C443.213 78.24 443.661 78.6877 444.213 78.6877V76.6877ZM445.217 78.6877C445.769 78.6877 446.217 78.24 446.217 77.6877C446.217 77.1355 445.769 76.6877 445.217 76.6877V78.6877ZM450.236 76.6877C449.684 76.6877 449.236 77.1355 449.236 77.6877C449.236 78.24 449.684 78.6877 450.236 78.6877V76.6877ZM451.24 78.6877C451.792 78.6877 452.24 78.24 452.24 77.6877C452.24 77.1355 451.792 76.6877 451.24 76.6877V78.6877ZM456.259 76.6877C455.707 76.6877 455.259 77.1355 455.259 77.6877C455.259 78.24 455.707 78.6877 456.259 78.6877V76.6877ZM457.263 78.6877C457.816 78.6877 458.263 78.24 458.263 77.6877C458.263 77.1355 457.816 76.6877 457.263 76.6877V78.6877ZM462.282 76.6877C461.73 76.6877 461.282 77.1355 461.282 77.6877C461.282 78.24 461.73 78.6877 462.282 78.6877V76.6877ZM463.286 78.6877C463.839 78.6877 464.286 78.24 464.286 77.6877C464.286 77.1355 463.839 76.6877 463.286 76.6877V78.6877ZM468.306 76.6877C467.753 76.6877 467.306 77.1355 467.306 77.6877C467.306 78.24 467.753 78.6877 468.306 78.6877V76.6877ZM469.309 78.6877C469.862 78.6877 470.309 78.24 470.309 77.6877C470.309 77.1355 469.862 76.6877 469.309 76.6877V78.6877ZM474.329 76.6877C473.776 76.6877 473.329 77.1355 473.329 77.6877C473.329 78.24 473.776 78.6877 474.329 78.6877V76.6877ZM475.333 78.6877C475.885 78.6877 476.333 78.24 476.333 77.6877C476.333 77.1355 475.885 76.6877 475.333 76.6877V78.6877ZM480.352 76.6877C479.799 76.6877 479.352 77.1355 479.352 77.6877C479.352 78.24 479.799 78.6877 480.352 78.6877V76.6877ZM481.356 78.6877C481.908 78.6877 482.356 78.24 482.356 77.6877C482.356 77.1355 481.908 76.6877 481.356 76.6877V78.6877ZM486.375 76.6877C485.823 76.6877 485.375 77.1355 485.375 77.6877C485.375 78.24 485.823 78.6877 486.375 78.6877V76.6877ZM487.379 78.6877C487.931 78.6877 488.379 78.24 488.379 77.6877C488.379 77.1355 487.931 76.6877 487.379 76.6877V78.6877ZM492.398 76.6877C491.846 76.6877 491.398 77.1355 491.398 77.6877C491.398 78.24 491.846 78.6877 492.398 78.6877V76.6877ZM493.402 78.6877C493.954 78.6877 494.402 78.24 494.402 77.6877C494.402 77.1355 493.954 76.6877 493.402 76.6877V78.6877ZM498.421 76.6877C497.869 76.6877 497.421 77.1355 497.421 77.6877C497.421 78.24 497.869 78.6877 498.421 78.6877V76.6877ZM499.425 78.6877C499.977 78.6877 500.425 78.24 500.425 77.6877C500.425 77.1355 499.977 76.6877 499.425 76.6877V78.6877ZM504.444 76.6877C503.892 76.6877 503.444 77.1355 503.444 77.6877C503.444 78.24 503.892 78.6877 504.444 78.6877V76.6877ZM505.448 78.6877C506 78.6877 506.448 78.24 506.448 77.6877C506.448 77.1355 506 76.6877 505.448 76.6877V78.6877ZM510.467 76.6877C509.915 76.6877 509.467 77.1355 509.467 77.6877C509.467 78.24 509.915 78.6877 510.467 78.6877V76.6877ZM511.471 78.6877C512.023 78.6877 512.471 78.24 512.471 77.6877C512.471 77.1355 512.023 76.6877 511.471 76.6877V78.6877ZM516.49 76.6877C515.938 76.6877 515.49 77.1355 515.49 77.6877C515.49 78.24 515.938 78.6877 516.49 78.6877V76.6877ZM35.144 78.6877H35.646V76.6877H35.144V78.6877ZM40.6652 78.6877H41.6691V76.6877H40.6652V78.6877ZM46.6883 78.6877H47.6922V76.6877H46.6883V78.6877ZM52.7114 78.6877H53.7153V76.6877H52.7114V78.6877ZM58.7345 78.6877H59.7384V76.6877H58.7345V78.6877ZM64.7576 78.6877H65.7615V76.6877H64.7576V78.6877ZM70.7808 78.6877H71.7846V76.6877H70.7808V78.6877ZM76.8039 78.6877H77.8077V76.6877H76.8039V78.6877ZM82.827 78.6877H83.8308V76.6877H82.827V78.6877ZM88.8501 78.6877H89.8539V76.6877H88.8501V78.6877ZM94.8732 78.6877H95.877V76.6877H94.8732V78.6877ZM100.896 78.6877H101.9V76.6877H100.896V78.6877ZM106.919 78.6877H107.923V76.6877H106.919V78.6877ZM112.943 78.6877H113.946V76.6877H112.943V78.6877ZM118.966 78.6877H119.969V76.6877H118.966V78.6877ZM124.989 78.6877H125.993V76.6877H124.989V78.6877ZM131.012 78.6877H132.016V76.6877H131.012V78.6877ZM137.035 78.6877H138.039V76.6877H137.035V78.6877ZM143.058 78.6877H144.062V76.6877H143.058V78.6877ZM149.081 78.6877H150.085V76.6877H149.081V78.6877ZM155.104 78.6877H156.108V76.6877H155.104V78.6877ZM161.127 78.6877H162.131V76.6877H161.127V78.6877ZM167.15 78.6877H168.154V76.6877H167.15V78.6877ZM173.174 78.6877H174.177V76.6877H173.174V78.6877ZM179.197 78.6877H180.201V76.6877H179.197V78.6877ZM185.22 78.6877H186.224V76.6877H185.22V78.6877ZM191.243 78.6877H192.247V76.6877H191.243V78.6877ZM197.266 78.6877H198.27V76.6877H197.266V78.6877ZM203.289 78.6877H204.293V76.6877H203.289V78.6877ZM209.312 78.6877H210.316V76.6877H209.312V78.6877ZM215.335 78.6877H216.339V76.6877H215.335V78.6877ZM221.358 78.6877H222.362V76.6877H221.358V78.6877ZM227.382 78.6877H228.385V76.6877H227.382V78.6877ZM233.405 78.6877H234.408V76.6877H233.405V78.6877ZM239.428 78.6877H240.432V76.6877H239.428V78.6877ZM245.451 78.6877H246.455V76.6877H245.451V78.6877ZM251.474 78.6877H252.478V76.6877H251.474V78.6877ZM257.497 78.6877H258.501V76.6877H257.497V78.6877ZM263.52 78.6877H264.524V76.6877H263.52V78.6877ZM269.543 78.6877H270.547V76.6877H269.543V78.6877ZM275.566 78.6877H276.57V76.6877H275.566V78.6877ZM281.589 78.6877H282.593V76.6877H281.589V78.6877ZM287.613 78.6877H288.616V76.6877H287.613V78.6877ZM293.636 78.6877H294.639V76.6877H293.636V78.6877ZM299.659 78.6877H300.663V76.6877H299.659V78.6877ZM305.682 78.6877H306.686V76.6877H305.682V78.6877ZM311.705 78.6877H312.709V76.6877H311.705V78.6877ZM317.728 78.6877H318.732V76.6877H317.728V78.6877ZM323.751 78.6877H324.755V76.6877H323.751V78.6877ZM329.774 78.6877H330.778V76.6877H329.774V78.6877ZM335.797 78.6877H336.801V76.6877H335.797V78.6877ZM341.82 78.6877H342.824V76.6877H341.82V78.6877ZM347.844 78.6877H348.847V76.6877H347.844V78.6877ZM353.867 78.6877H354.87V76.6877H353.867V78.6877ZM359.89 78.6877H360.894V76.6877H359.89V78.6877ZM365.913 78.6877H366.917V76.6877H365.913V78.6877ZM371.936 78.6877H372.94V76.6877H371.936V78.6877ZM377.959 78.6877H378.963V76.6877H377.959V78.6877ZM383.982 78.6877H384.986V76.6877H383.982V78.6877ZM390.005 78.6877H391.009V76.6877H390.005V78.6877ZM396.028 78.6877H397.032V76.6877H396.028V78.6877ZM402.051 78.6877H403.055V76.6877H402.051V78.6877ZM408.075 78.6877H409.078V76.6877H408.075V78.6877ZM414.098 78.6877H415.102V76.6877H414.098V78.6877ZM420.121 78.6877H421.125V76.6877H420.121V78.6877ZM426.144 78.6877H427.148V76.6877H426.144V78.6877ZM432.167 78.6877H433.171V76.6877H432.167V78.6877ZM438.19 78.6877H439.194V76.6877H438.19V78.6877ZM444.213 78.6877H445.217V76.6877H444.213V78.6877ZM450.236 78.6877H451.24V76.6877H450.236V78.6877ZM456.259 78.6877H457.263V76.6877H456.259V78.6877ZM462.282 78.6877H463.286V76.6877H462.282V78.6877ZM468.306 78.6877H469.309V76.6877H468.306V78.6877ZM474.329 78.6877H475.333V76.6877H474.329V78.6877ZM480.352 78.6877H481.356V76.6877H480.352V78.6877ZM486.375 78.6877H487.379V76.6877H486.375V78.6877ZM492.398 78.6877H493.402V76.6877H492.398V78.6877ZM498.421 78.6877H499.425V76.6877H498.421V78.6877ZM504.444 78.6877H505.448V76.6877H504.444V78.6877ZM510.467 78.6877H511.471V76.6877H510.467V78.6877ZM516.49 78.6877H516.993V76.6877H516.49V78.6877Z" fill="black"/>
<circle cx="36.7021" cy="77.7851" r="36.7021" fill="black"/>
<path d="M19.4453 82.8289H26.3613V81.0649H21.7413L23.5613 79.6369C24.9613 78.5309 26.1653 77.5089 26.1653 75.8289C26.1653 74.1349 24.9473 72.8889 22.8333 72.8889C20.8033 72.8889 19.6693 74.0229 19.2353 75.3809L21.0693 76.0809C21.2653 75.3389 21.7133 74.7089 22.6373 74.7089C23.2673 74.7089 23.9253 75.0869 23.9253 75.8289V76.0249C23.9253 76.8509 23.5473 77.3969 22.4553 78.3349L19.4453 80.9109V82.8289ZM31.1719 82.9969C33.5799 82.9969 34.9239 81.5269 34.9239 79.5389C34.9239 77.5789 33.5799 76.4309 31.9139 76.4309C30.6679 76.4309 30.2059 77.0609 29.8139 77.9849H29.7019L29.9119 74.8909H34.3499V73.0569H28.3719L28.0079 78.5869L29.7299 78.8249C29.9819 78.5309 30.4859 78.1389 31.2419 78.1389C32.1519 78.1389 32.7119 78.6989 32.7119 79.5949V79.7069C32.7119 80.6589 32.1939 81.2889 31.1859 81.2889C30.1779 81.2889 29.6319 80.6729 29.2119 79.9169L27.6859 81.1209C28.2739 82.1149 29.2819 82.9969 31.1719 82.9969ZM39.5664 82.9969C41.9744 82.9969 43.3184 81.5269 43.3184 79.5389C43.3184 77.5789 41.9744 76.4309 40.3084 76.4309C39.0624 76.4309 38.6004 77.0609 38.2084 77.9849H38.0964L38.3064 74.8909H42.7444V73.0569H36.7664L36.4024 78.5869L38.1244 78.8249C38.3764 78.5309 38.8804 78.1389 39.6364 78.1389C40.5464 78.1389 41.1064 78.6989 41.1064 79.5949V79.7069C41.1064 80.6589 40.5884 81.2889 39.5804 81.2889C38.5724 81.2889 38.0264 80.6729 37.6064 79.9169L36.0804 81.1209C36.6684 82.1149 37.6764 82.9969 39.5664 82.9969ZM48.0869 82.9969C50.3129 82.9969 51.7549 81.5689 51.7549 79.5669C51.7549 77.7189 50.5089 76.5289 48.8989 76.5289C47.6529 76.5289 47.0789 77.2569 46.7429 77.9989L46.6169 77.9569C47.0089 76.0949 48.4369 74.7649 50.8169 73.0569H47.9189C46.2529 74.1909 44.4189 76.3749 44.4189 79.1189C44.4189 81.4709 45.7629 82.9969 48.0869 82.9969ZM48.0869 81.3589C47.1629 81.3589 46.6029 80.8269 46.6029 79.8749V79.6229C46.6029 78.6709 47.1629 78.1389 48.0869 78.1389C49.0109 78.1389 49.5709 78.6709 49.5709 79.6229V79.8749C49.5709 80.8269 49.0109 81.3589 48.0869 81.3589Z" fill="white"/>
<circle cx="156.349" cy="77.7856" r="36.7021" fill="black"/>
<path d="M139.092 82.8293H146.008V81.0653H141.388L143.208 79.6373C144.608 78.5313 145.812 77.5093 145.812 75.8293C145.812 74.1353 144.594 72.8893 142.48 72.8893C140.45 72.8893 139.316 74.0233 138.882 75.3813L140.716 76.0813C140.912 75.3393 141.36 74.7093 142.284 74.7093C142.914 74.7093 143.572 75.0873 143.572 75.8293V76.0253C143.572 76.8513 143.194 77.3973 142.102 78.3353L139.092 80.9113V82.8293ZM150.819 82.9973C153.227 82.9973 154.571 81.5273 154.571 79.5393C154.571 77.5793 153.227 76.4313 151.561 76.4313C150.315 76.4313 149.853 77.0613 149.461 77.9853H149.349L149.559 74.8913H153.997V73.0573H148.019L147.655 78.5873L149.377 78.8253C149.629 78.5313 150.133 78.1393 150.889 78.1393C151.799 78.1393 152.359 78.6993 152.359 79.5953V79.7073C152.359 80.6593 151.841 81.2893 150.833 81.2893C149.825 81.2893 149.279 80.6733 148.859 79.9173L147.333 81.1213C147.921 82.1153 148.929 82.9973 150.819 82.9973ZM159.339 82.9973C161.565 82.9973 163.007 81.5693 163.007 79.5673C163.007 77.7193 161.761 76.5293 160.151 76.5293C158.905 76.5293 158.331 77.2573 157.995 77.9993L157.869 77.9573C158.261 76.0953 159.689 74.7653 162.069 73.0573H159.171C157.505 74.1913 155.671 76.3753 155.671 79.1193C155.671 81.4713 157.015 82.9973 159.339 82.9973ZM159.339 81.3593C158.415 81.3593 157.855 80.8273 157.855 79.8753V79.6233C157.855 78.6713 158.415 78.1393 159.339 78.1393C160.263 78.1393 160.823 78.6713 160.823 79.6233V79.8753C160.823 80.8273 160.263 81.3593 159.339 81.3593ZM167.678 82.9973C170.24 82.9973 171.444 81.1353 171.444 77.9433C171.444 74.7513 170.24 72.8893 167.678 72.8893C165.116 72.8893 163.912 74.7513 163.912 77.9433C163.912 81.1353 165.116 82.9973 167.678 82.9973ZM167.678 81.2193C166.558 81.2193 166.194 80.3513 166.194 78.8673V77.0193C166.194 75.5353 166.558 74.6673 167.678 74.6673C168.798 74.6673 169.162 75.5353 169.162 77.0193V78.8673C169.162 80.3513 168.798 81.2193 167.678 81.2193Z" fill="white"/>
<circle cx="275.996" cy="77.7856" r="36.2021" fill="white" stroke="black"/>
<path d="M258.739 82.8293H265.655V81.0653H261.035L262.855 79.6373C264.255 78.5313 265.459 77.5093 265.459 75.8293C265.459 74.1353 264.241 72.8893 262.127 72.8893C260.097 72.8893 258.963 74.0233 258.529 75.3813L260.363 76.0813C260.559 75.3393 261.007 74.7093 261.931 74.7093C262.561 74.7093 263.219 75.0873 263.219 75.8293V76.0253C263.219 76.8513 262.841 77.3973 261.749 78.3353L258.739 80.9113V82.8293ZM270.465 82.9973C272.873 82.9973 274.217 81.5273 274.217 79.5393C274.217 77.5793 272.873 76.4313 271.207 76.4313C269.961 76.4313 269.499 77.0613 269.107 77.9853H268.995L269.205 74.8913H273.643V73.0573H267.665L267.301 78.5873L269.023 78.8253C269.275 78.5313 269.779 78.1393 270.535 78.1393C271.445 78.1393 272.005 78.6993 272.005 79.5953V79.7073C272.005 80.6593 271.487 81.2893 270.479 81.2893C269.471 81.2893 268.925 80.6733 268.505 79.9173L266.979 81.1213C267.567 82.1153 268.575 82.9973 270.465 82.9973ZM278.986 82.9973C281.212 82.9973 282.654 81.5693 282.654 79.5673C282.654 77.7193 281.408 76.5293 279.798 76.5293C278.552 76.5293 277.978 77.2573 277.642 77.9993L277.516 77.9573C277.908 76.0953 279.336 74.7653 281.716 73.0573H278.818C277.152 74.1913 275.318 76.3753 275.318 79.1193C275.318 81.4713 276.662 82.9973 278.986 82.9973ZM278.986 81.3593C278.062 81.3593 277.502 80.8273 277.502 79.8753V79.6233C277.502 78.6713 278.062 78.1393 278.986 78.1393C279.91 78.1393 280.47 78.6713 280.47 79.6233V79.8753C280.47 80.8273 279.91 81.3593 278.986 81.3593ZM287.254 82.9973C289.662 82.9973 291.006 81.5273 291.006 79.5393C291.006 77.5793 289.662 76.4313 287.996 76.4313C286.75 76.4313 286.288 77.0613 285.896 77.9853H285.784L285.994 74.8913H290.432V73.0573H284.454L284.09 78.5873L285.812 78.8253C286.064 78.5313 286.568 78.1393 287.324 78.1393C288.234 78.1393 288.794 78.6993 288.794 79.5953V79.7073C288.794 80.6593 288.276 81.2893 287.268 81.2893C286.26 81.2893 285.714 80.6733 285.294 79.9173L283.768 81.1213C284.356 82.1153 285.364 82.9973 287.254 82.9973Z" fill="black"/>
<circle cx="395.642" cy="77.7856" r="36.2021" fill="white" stroke="black"/>
<path d="M378.386 82.8293H385.302V81.0653H380.682L382.502 79.6373C383.902 78.5313 385.106 77.5093 385.106 75.8293C385.106 74.1353 383.888 72.8893 381.774 72.8893C379.744 72.8893 378.61 74.0233 378.176 75.3813L380.01 76.0813C380.206 75.3393 380.654 74.7093 381.578 74.7093C382.208 74.7093 382.866 75.0873 382.866 75.8293V76.0253C382.866 76.8513 382.488 77.3973 381.396 78.3353L378.386 80.9113V82.8293ZM390.112 82.9973C392.52 82.9973 393.864 81.5273 393.864 79.5393C393.864 77.5793 392.52 76.4313 390.854 76.4313C389.608 76.4313 389.146 77.0613 388.754 77.9853H388.642L388.852 74.8913H393.29V73.0573H387.312L386.948 78.5873L388.67 78.8253C388.922 78.5313 389.426 78.1393 390.182 78.1393C391.092 78.1393 391.652 78.6993 391.652 79.5953V79.7073C391.652 80.6593 391.134 81.2893 390.126 81.2893C389.118 81.2893 388.572 80.6733 388.152 79.9173L386.626 81.1213C387.214 82.1153 388.222 82.9973 390.112 82.9973ZM396.701 82.8293H398.913L402.063 74.8773V73.0573H395.147V76.5433H396.925V74.7653H399.977L396.701 82.8293ZM406.971 82.9973C409.533 82.9973 410.737 81.1353 410.737 77.9433C410.737 74.7513 409.533 72.8893 406.971 72.8893C404.409 72.8893 403.205 74.7513 403.205 77.9433C403.205 81.1353 404.409 82.9973 406.971 82.9973ZM406.971 81.2193C405.851 81.2193 405.487 80.3513 405.487 78.8673V77.0193C405.487 75.5353 405.851 74.6673 406.971 74.6673C408.091 74.6673 408.455 75.5353 408.455 77.0193V78.8673C408.455 80.3513 408.091 81.2193 406.971 81.2193Z" fill="black"/>
<circle cx="515.289" cy="77.7856" r="36.2021" fill="white" stroke="black"/>
<path d="M498.032 82.8293H504.948V81.0653H500.328L502.148 79.6373C503.548 78.5313 504.752 77.5093 504.752 75.8293C504.752 74.1353 503.534 72.8893 501.42 72.8893C499.39 72.8893 498.256 74.0233 497.822 75.3813L499.656 76.0813C499.852 75.3393 500.3 74.7093 501.224 74.7093C501.854 74.7093 502.512 75.0873 502.512 75.8293V76.0253C502.512 76.8513 502.134 77.3973 501.042 78.3353L498.032 80.9113V82.8293ZM509.759 82.9973C512.167 82.9973 513.511 81.5273 513.511 79.5393C513.511 77.5793 512.167 76.4313 510.501 76.4313C509.255 76.4313 508.793 77.0613 508.401 77.9853H508.289L508.499 74.8913H512.937V73.0573H506.959L506.595 78.5873L508.317 78.8253C508.569 78.5313 509.073 78.1393 509.829 78.1393C510.739 78.1393 511.299 78.6993 511.299 79.5953V79.7073C511.299 80.6593 510.781 81.2893 509.773 81.2893C508.765 81.2893 508.219 80.6733 507.799 79.9173L506.273 81.1213C506.861 82.1153 507.869 82.9973 509.759 82.9973ZM516.347 82.8293H518.559L521.709 74.8773V73.0573H514.793V76.5433H516.571V74.7653H519.623L516.347 82.8293ZM526.548 82.9973C528.956 82.9973 530.3 81.5273 530.3 79.5393C530.3 77.5793 528.956 76.4313 527.29 76.4313C526.044 76.4313 525.582 77.0613 525.19 77.9853H525.078L525.288 74.8913H529.726V73.0573H523.748L523.384 78.5873L525.106 78.8253C525.358 78.5313 525.862 78.1393 526.618 78.1393C527.528 78.1393 528.088 78.6993 528.088 79.5953V79.7073C528.088 80.6593 527.57 81.2893 526.562 81.2893C525.554 81.2893 525.008 80.6733 524.588 79.9173L523.062 81.1213C523.65 82.1153 524.658 82.9973 526.548 82.9973Z" fill="black"/>
</svg>
