<svg id="Layer_1" data-name="Layer 1" xmlns="http://www.w3.org/2000/svg" viewBox="0 0 40 40"><defs><style>.cls-1{fill:#fff;stroke:#000;}</style></defs><path class="cls-1" d="M19.16,2.23a.88.88,0,0,1,1.68,0l3.55,10.91A2.66,2.66,0,0,0,26.92,15H38.39a.89.89,0,0,1,.53,1.61l-9.29,6.74a2.65,2.65,0,0,0-1,3l3.54,10.92a.88.88,0,0,1-1.36,1l-9.29-6.75a2.67,2.67,0,0,0-3.12,0L9.15,38.21a.88.88,0,0,1-1.36-1L11.33,26.3a2.65,2.65,0,0,0-1-3L1.08,16.59A.89.89,0,0,1,1.61,15H13.08a2.66,2.66,0,0,0,2.53-1.84Z"/></svg>