<svg id="Layer_1" data-name="Layer 1" xmlns="http://www.w3.org/2000/svg" viewBox="0 0 20 20"><path d="M10,16.2H8.52a1.27,1.27,0,0,1-1.26-.94c-.07-.24-.16-.48-.21-.73a4.83,4.83,0,0,0-.91-1.91A5.57,5.57,0,0,1,5,10.28a4.63,4.63,0,0,1,1.07-4,4.81,4.81,0,0,1,5.1-1.72A4.92,4.92,0,0,1,15,8.38a4.34,4.34,0,0,1-.43,3.16,4.92,4.92,0,0,1-.55.94A5.87,5.87,0,0,0,12.82,15a1.39,1.39,0,0,1-1.55,1.19C10.85,16.17,10.42,16.2,10,16.2ZM6.23,7.86c0,.28,0,.49.25.58s.37-.06.49-.21a5.09,5.09,0,0,0,.34-.47,3,3,0,0,1,1.76-1.4,3,3,0,0,0,.52-.22.34.34,0,0,0,.2-.39.34.34,0,0,0-.29-.28,1.46,1.46,0,0,0-.72,0A3.22,3.22,0,0,0,6.72,6.78,2.28,2.28,0,0,0,6.23,7.86Zm-.18,1.8a.53.53,0,0,0,.54-.51.52.52,0,0,0-1,0A.52.52,0,0,0,6.05,9.66Z"/><path d="M10.16,17.85H8.5c-.21,0-.37,0-.37-.31s.15-.32.36-.32H11.8c.23,0,.37.07.36.32s-.14.31-.35.3Z"/><path d="M17.61,10.29H16.52c-.27,0-.46-.12-.47-.42s.21-.42.47-.42h2.16c.29,0,.51.11.5.44s-.22.4-.5.4Z"/><path d="M2.31,9.45h1c.27,0,.52.08.52.42s-.22.42-.51.42h-2c-.28,0-.49-.1-.5-.4s.21-.44.5-.44Z"/><path d="M10.42,2c0,.34,0,.68,0,1s-.12.47-.43.47-.4-.2-.4-.46q0-1.05,0-2.1A.41.41,0,0,1,10,.43c.28,0,.4.23.4.5S10.42,1.63,10.42,2Z"/><path d="M16.51,15.88a.34.34,0,0,1-.21.35.35.35,0,0,1-.43-.05c-.54-.52-1.06-1-1.58-1.59a.37.37,0,0,1,0-.55.38.38,0,0,1,.56,0c.53.52,1.05,1.05,1.58,1.59A.42.42,0,0,1,16.51,15.88Z"/><path d="M5.82,14.32a.47.47,0,0,1-.18.37L4.27,16.07c-.19.2-.41.27-.63.06a.39.39,0,0,1,0-.63L5.1,14.06a.43.43,0,0,1,.5-.1A.36.36,0,0,1,5.82,14.32Z"/><path d="M5.89,5a.39.39,0,0,1-.21.35.33.33,0,0,1-.43,0c-.56-.54-1.12-1.1-1.66-1.67a.34.34,0,0,1,0-.52.38.38,0,0,1,.55,0c.55.54,1.09,1.09,1.63,1.64A.42.42,0,0,1,5.89,5Z"/><path d="M16.51,3.41a.39.39,0,0,1-.14.31c-.44.45-.89.91-1.35,1.36-.19.19-.39.25-.6,0s-.18-.42,0-.63l1.34-1.36A.44.44,0,0,1,16.27,3,.38.38,0,0,1,16.51,3.41Z"/><path d="M10.16,16.45h1.63c.21,0,.38,0,.37.31s-.16.31-.38.3H8.49c-.22,0-.36,0-.37-.31s.17-.31.38-.3C9.06,16.46,9.61,16.45,10.16,16.45Z"/><path d="M10.17,18.86h1.3c.06,0,.17,0,.19.05a.27.27,0,0,1-.07.18.88.88,0,0,1-.45.3,2.87,2.87,0,0,1-2,0,1.81,1.81,0,0,1-.33-.2c-.09-.07-.19-.15-.17-.26s.18-.07.27-.07Z"/><path d="M10.12,18.61H8.64c-.2,0-.32-.05-.31-.28s.11-.26.29-.26h3q.3,0,.3.27a.27.27,0,0,1-.32.28Z"/></svg>