<svg id="Layer_1" data-name="Layer 1" xmlns="http://www.w3.org/2000/svg" viewBox="0 0 90 710"><defs><style>.cls-1{fill:#fff;}.cls-1,.cls-2{stroke:#6adc7b;stroke-linejoin:round;stroke-width:2.5px;}.cls-2{fill:none;}</style></defs><path class="cls-1" d="M55.58,693.73c18.67-10.44,29.63-26.37,24.48-35.58l-4-7.16L8.45,688.78l4,7.16C17.6,705.15,36.91,704.16,55.58,693.73Z"/><path class="cls-1" d="M76.42,651.64c-5.15-9.21-24.46-8.22-43.13,2.22S3.67,680.22,8.82,689.43s24.45,8.22,43.12-2.21S81.57,660.85,76.42,651.64Z"/><path class="cls-2" d="M17.38,694.86l4.11,7.35"/><path class="cls-2" d="M23.49,695.87l3.64,6.51"/><path class="cls-2" d="M28.88,695.62,30.23,698l2.06,3.67"/><path class="cls-2" d="M33.34,693.69,37.45,701"/><path class="cls-2" d="M38.5,693l4.11,7.35"/><path class="cls-2" d="M42.72,690.66,46.83,698"/><path class="cls-2" d="M47.4,689.15l4.12,7.35"/><path class="cls-2" d="M51.62,686.79l4.11,7.35"/><path class="cls-2" d="M55.84,684.43,60,691.78"/><path class="cls-2" d="M59.59,681.23l4.11,7.35"/><path class="cls-2" d="M63.8,678.87l3.64,6.51"/><path class="cls-2" d="M67.55,675.67l3.17,5.67"/><path class="cls-2" d="M71.29,672.47l3.17,5.67"/><path class="cls-2" d="M76.43,661.85l3.77,6.75"/><path class="cls-2" d="M74.1,667.58l3.64,6.51"/><path class="cls-1" d="M40.72,606.37c20.91,4.51,39.66-.2,41.88-10.52l1.73-8L8.62,571.51l-1.73,8C4.67,589.85,19.81,601.87,40.72,606.37Z"/><path class="cls-1" d="M84.17,588.56c2.23-10.31-12.92-22.33-33.82-26.84s-39.66.21-41.89,10.52,12.93,22.34,33.83,26.85S82,598.88,84.17,588.56Z"/><path class="cls-2" d="M11.31,582l-1.78,8.23"/><path class="cls-2" d="M15.22,586.77l-1.57,7.29"/><path class="cls-2" d="M19.43,590.15l-.58,2.7L18,597"/><path class="cls-2" d="M24.05,591.64l-1.77,8.24"/><path class="cls-2" d="M28.37,594.55l-1.78,8.24"/><path class="cls-2" d="M33.09,595.57l-1.77,8.24"/><path class="cls-2" d="M37.61,597.53l-1.77,8.24"/><path class="cls-2" d="M42.34,598.55l-1.78,8.24"/><path class="cls-2" d="M47.06,599.57l-1.78,8.23"/><path class="cls-2" d="M52,599.64l-1.78,8.24"/><path class="cls-2" d="M56.71,600.66,55.14,608"/><path class="cls-2" d="M61.64,600.73l-1.37,6.35"/><path class="cls-2" d="M66.56,600.81l-1.36,6.34"/><path class="cls-2" d="M77.44,596.23l-1.63,7.56"/><path class="cls-2" d="M71.9,599l-1.57,7.29"/><path class="cls-1" d="M55.66,514.15C74.29,503.64,85.18,487.67,80,478.48l-4-7.14L8.51,509.39l4,7.15C17.73,525.73,37,524.66,55.66,514.15Z"/><path class="cls-1" d="M76.33,472c-5.18-9.19-24.49-8.13-43.11,2.38S3.7,500.85,8.88,510s24.49,8.13,43.12-2.38S81.52,481.18,76.33,472Z"/><path class="cls-2" d="M17.47,515.43l4.14,7.34"/><path class="cls-2" d="M23.58,516.43l3.66,6.49"/><path class="cls-2" d="M29,516.16l1.36,2.4,2.07,3.67"/><path class="cls-2" d="M33.42,514.2l4.14,7.34"/><path class="cls-2" d="M38.58,513.51l4.14,7.34"/><path class="cls-2" d="M42.79,511.14l4.14,7.34"/><path class="cls-2" d="M47.47,509.6l4.14,7.34"/><path class="cls-2" d="M51.68,507.23l4.14,7.34"/><path class="cls-2" d="M55.88,504.86,60,512.19"/><path class="cls-2" d="M59.62,501.64,63.76,509"/><path class="cls-2" d="M63.83,499.27l3.66,6.49"/><path class="cls-2" d="M67.56,496.05l3.19,5.65"/><path class="cls-2" d="M71.29,492.83l3.19,5.66"/><path class="cls-2" d="M76.39,482.19l3.79,6.74"/><path class="cls-2" d="M74.08,487.93l3.66,6.5"/><path class="cls-1" d="M42.76,431.28c21.29,2,39.36-4.89,40.35-15.4l.77-8.17L6.77,400.45,6,408.62C5,419.13,21.47,429.27,42.76,431.28Z"/><path class="cls-1" d="M83.8,408.46C84.79,398,68.34,387.81,47,385.8S7.69,390.69,6.7,401.2s15.47,20.65,36.76,22.65S82.81,419,83.8,408.46Z"/><path class="cls-2" d="M10.67,410.52l-.79,8.39"/><path class="cls-2" d="M15.12,414.83l-.7,7.42"/><path class="cls-2" d="M19.7,417.68l-.25,2.75-.4,4.2"/><path class="cls-2" d="M24.47,418.62,23.68,427"/><path class="cls-2" d="M29.1,421l-.79,8.38"/><path class="cls-2" d="M33.91,421.45l-.79,8.39"/><path class="cls-2" d="M38.63,422.86l-.79,8.39"/><path class="cls-2" d="M43.44,423.32l-.79,8.39"/><path class="cls-2" d="M48.25,423.77l-.79,8.39"/><path class="cls-2" d="M53.15,423.26l-.79,8.39"/><path class="cls-2" d="M58,423.71l-.7,7.43"/><path class="cls-2" d="M62.86,423.21l-.6,6.46"/><path class="cls-2" d="M67.77,422.7l-.61,6.46"/><path class="cls-2" d="M78,416.87l-.72,7.69"/><path class="cls-2" d="M72.85,420.26l-.7,7.43"/><path class="cls-1" d="M28.89,334.17c15,15.3,33.19,21.71,40.74,14.34l5.87-5.74L21.36,287.39l-5.87,5.73C8,300.5,14,318.88,28.89,334.17Z"/><path class="cls-1" d="M75,343.29c7.55-7.37,1.55-25.75-13.4-41.05s-33.19-21.71-40.74-14.33-1.54,25.76,13.41,41S67.41,350.67,75,343.29Z"/><path class="cls-2" d="M17.83,297.6l-6,5.88"/><path class="cls-2" d="M18.44,303.75,13.11,309"/><path class="cls-2" d="M20.09,308.9l-2,1.93-3,2.94"/><path class="cls-2" d="M23.12,312.69l-6,5.89"/><path class="cls-2" d="M25.12,317.5l-6,5.89"/><path class="cls-2" d="M28.49,321l-6,5.89"/><path class="cls-2" d="M31.18,325.08l-6,5.89"/><path class="cls-2" d="M34.56,328.54l-6,5.89"/><path class="cls-2" d="M37.94,332l-6,5.89"/><path class="cls-2" d="M42,334.77l-6,5.89"/><path class="cls-2" d="M45.38,338.23l-5.33,5.21"/><path class="cls-2" d="M49.45,341l-4.64,4.54"/><path class="cls-2" d="M53.52,343.79l-4.64,4.54"/><path class="cls-2" d="M65.11,346l-5.53,5.4"/><path class="cls-2" d="M59,345.22l-5.33,5.21"/><path class="cls-1" d="M53.72,238c19.44-8.9,31.64-23.9,27.25-33.5l-3.42-7.46L7.14,229.32l3.41,7.46C15,246.37,34.27,246.93,53.72,238Z"/><path class="cls-1" d="M77.86,197.75c-4.39-9.59-23.72-10.15-43.16-1.25S3.05,220.4,7.45,230s23.72,10.16,43.16,1.25S82.26,207.35,77.86,197.75Z"/><path class="cls-2" d="M15.55,236.09l3.51,7.66"/><path class="cls-2" d="M21.55,237.6l3.11,6.78"/><path class="cls-2" d="M27,237.78l1.15,2.51,1.76,3.83"/><path class="cls-2" d="M31.55,236.21l3.51,7.66"/><path class="cls-2" d="M36.75,236l3.5,7.66"/><path class="cls-2" d="M41.14,233.94l3.51,7.66"/><path class="cls-2" d="M45.93,232.81l3.51,7.66"/><path class="cls-2" d="M50.33,230.8l3.51,7.66"/><path class="cls-2" d="M54.72,228.78l3.51,7.66"/><path class="cls-2" d="M58.71,225.89l3.51,7.66"/><path class="cls-2" d="M63.1,223.88l3.11,6.78"/><path class="cls-2" d="M67.1,221l2.7,5.9"/><path class="cls-2" d="M71.09,218.1l2.7,5.9"/><path class="cls-2" d="M77.06,207.93l3.21,7"/><path class="cls-2" d="M74.27,213.45l3.11,6.79"/><path class="cls-1" d="M31.39,138C49,150.16,68.11,153,74.11,144.3l4.66-6.75-63.72-44-4.66,6.75C4.39,109,13.79,125.85,31.39,138Z"/><path class="cls-1" d="M78.35,138.16c6-8.68-3.4-25.58-21-37.73s-36.72-15-42.72-6.29,3.4,25.58,21,37.73S72.35,146.84,78.35,138.16Z"/><path class="cls-2" d="M13.54,104.22l-4.79,6.93"/><path class="cls-2" d="M15.31,110.15l-4.24,6.13"/><path class="cls-2" d="M17.92,114.88l-1.57,2.27L14,120.62"/><path class="cls-2" d="M21.62,118,16.83,125"/><path class="cls-2" d="M24.49,122.36l-4.79,6.93"/><path class="cls-2" d="M28.47,125.11,23.68,132"/><path class="cls-2" d="M31.9,128.65l-4.79,6.93"/><path class="cls-2" d="M35.87,131.4l-4.79,6.93"/><path class="cls-2" d="M39.85,134.14l-4.79,6.93"/><path class="cls-2" d="M44.37,136.09,39.58,143"/><path class="cls-2" d="M48.35,138.84,44.11,145"/><path class="cls-2" d="M52.87,140.79l-3.69,5.34"/><path class="cls-2" d="M57.4,142.74l-3.7,5.34"/><path class="cls-2" d="M69.19,142.67,64.8,149"/><path class="cls-2" d="M63,143.1l-4.24,6.14"/><path class="cls-1" d="M47.23,53.51c21.24-2.47,37.48-13,36.26-23.45l-.95-8.15L5.61,30.85,6.56,39C7.78,49.48,26,56,47.23,53.51Z"/><path class="cls-1" d="M82.63,22.65C81.41,12.17,63.2,5.67,42,8.14S4.48,21.11,5.7,31.59s19.42,17,40.67,14.52S83.84,33.14,82.63,22.65Z"/><path class="cls-2" d="M11.53,39.89l1,8.37"/><path class="cls-2" d="M16.77,43.17l.86,7.41"/><path class="cls-2" d="M21.85,45l.32,2.75.48,4.18"/><path class="cls-2" d="M26.7,44.94l1,8.36"/><path class="cls-2" d="M31.73,46.3l1,8.37"/><path class="cls-2" d="M36.53,45.74l1,8.37"/><path class="cls-2" d="M41.44,46.14l1,8.37"/><path class="cls-2" d="M46.24,45.58l1,8.37"/><path class="cls-2" d="M51,45l1,8.37"/><path class="cls-2" d="M55.73,43.51l1,8.37"/><path class="cls-2" d="M60.52,43l.87,7.41"/><path class="cls-2" d="M65.21,41.43,66,47.88"/><path class="cls-2" d="M69.9,39.92l.75,6.44"/><path class="cls-2" d="M78.72,32.08l.89,7.68"/><path class="cls-2" d="M74.37,36.48l.86,7.41"/></svg>