<svg width="282" height="75" viewBox="0 0 282 75" fill="none" xmlns="http://www.w3.org/2000/svg">
<path d="M33.1139 71.144C34.5419 71.144 35.4779 70.364 35.4779 69.02C35.4779 67.988 34.9019 67.34 33.5339 67.148L33.0059 67.076C32.2259 66.968 31.7459 66.632 31.7459 65.972C31.7459 65.312 32.2259 64.88 33.0299 64.88C33.8219 64.88 34.4099 65.324 34.6979 65.744L35.4179 65.12C34.8539 64.424 34.1339 64.016 33.1019 64.016C31.8419 64.016 30.7979 64.676 30.7979 66.02C30.7979 67.292 31.7339 67.748 32.8739 67.916L33.4019 67.988C34.2419 68.108 34.5299 68.612 34.5299 69.14C34.5299 69.848 33.9899 70.28 33.1739 70.28C32.3459 70.28 31.7579 69.92 31.2179 69.2L30.5099 69.8C31.1219 70.604 31.9019 71.144 33.1139 71.144ZM37.7922 66.812L39.9042 66.8V65.912L37.7082 65.924V64.82L36.7722 64.832V65.792C36.7722 66.44 37.1922 66.812 37.7922 66.812ZM37.7922 70.292L39.9042 70.28V69.392L37.7082 69.404V68.3L36.7722 68.312V69.272C36.7722 69.92 37.1922 70.292 37.7922 70.292ZM43.7738 71.144C45.4658 71.144 46.3658 70.196 46.3658 68.552V64.16H45.3818V68.408C45.3818 69.644 44.8298 70.28 43.7738 70.28C42.7178 70.28 42.1658 69.692 42.1658 68.72V67.628H43.7978V66.764H43.4858C42.5258 66.764 42.2258 66.044 42.2258 65.24V65H43.6418V64.16H42.5498C41.6858 64.16 41.2658 64.58 41.2658 65.312V65.372C41.2658 66.176 41.9018 66.584 42.5138 66.728V66.764H42.4058C41.6138 66.764 41.1818 67.352 41.1818 68.348V68.732C41.1818 70.244 42.0818 71.144 43.7738 71.144ZM49.089 66.812L51.201 66.8V65.912L49.005 65.924V64.82L48.069 64.832V65.792C48.069 66.44 48.489 66.812 49.089 66.812ZM49.089 70.292L51.201 70.28V69.392L49.005 69.404V68.3L48.069 68.312V69.272C48.069 69.92 48.489 70.292 49.089 70.292ZM52.7067 71H53.6907V66.224C53.6907 65.324 54.5427 64.904 55.4067 64.904C56.4147 64.904 56.9667 65.54 56.9667 66.764V71H57.9507V66.608C57.9507 64.964 57.0507 64.016 55.6707 64.016C54.5187 64.016 53.9907 64.64 53.7147 65.288H53.6667V64.16H52.7067V71ZM53.122 63.2H56.89C57.55 63.2 57.886 62.876 57.886 62.228V61.388H56.974V62.408H53.122V63.2ZM57.0689 60.92H57.8849V59.288H57.0689V60.92ZM62.8548 71H68.3628V70.112H66.2028V62.624H64.6308L62.4108 64.7L62.9988 65.336L65.1108 63.368H65.1948V70.112H62.8548V71Z" fill="black"/>
<path d="M93.1139 71.144C94.5419 71.144 95.4779 70.364 95.4779 69.02C95.4779 67.988 94.9019 67.34 93.5339 67.148L93.0059 67.076C92.2259 66.968 91.7459 66.632 91.7459 65.972C91.7459 65.312 92.2259 64.88 93.0299 64.88C93.8219 64.88 94.4099 65.324 94.6979 65.744L95.4179 65.12C94.8539 64.424 94.1339 64.016 93.1019 64.016C91.8419 64.016 90.7979 64.676 90.7979 66.02C90.7979 67.292 91.7339 67.748 92.8739 67.916L93.4019 67.988C94.2419 68.108 94.5299 68.612 94.5299 69.14C94.5299 69.848 93.9899 70.28 93.1739 70.28C92.3459 70.28 91.7579 69.92 91.2179 69.2L90.5099 69.8C91.1219 70.604 91.9019 71.144 93.1139 71.144ZM97.7922 66.812L99.9042 66.8V65.912L97.7082 65.924V64.82L96.7722 64.832V65.792C96.7722 66.44 97.1922 66.812 97.7922 66.812ZM97.7922 70.292L99.9042 70.28V69.392L97.7082 69.404V68.3L96.7722 68.312V69.272C96.7722 69.92 97.1922 70.292 97.7922 70.292ZM103.774 71.144C105.466 71.144 106.366 70.196 106.366 68.552V64.16H105.382V68.408C105.382 69.644 104.83 70.28 103.774 70.28C102.718 70.28 102.166 69.692 102.166 68.72V67.628H103.798V66.764H103.486C102.526 66.764 102.226 66.044 102.226 65.24V65H103.642V64.16H102.55C101.686 64.16 101.266 64.58 101.266 65.312V65.372C101.266 66.176 101.902 66.584 102.514 66.728V66.764H102.406C101.614 66.764 101.182 67.352 101.182 68.348V68.732C101.182 70.244 102.082 71.144 103.774 71.144ZM109.089 66.812L111.201 66.8V65.912L109.005 65.924V64.82L108.069 64.832V65.792C108.069 66.44 108.489 66.812 109.089 66.812ZM109.089 70.292L111.201 70.28V69.392L109.005 69.404V68.3L108.069 68.312V69.272C108.069 69.92 108.489 70.292 109.089 70.292ZM112.707 71H113.691V66.224C113.691 65.324 114.543 64.904 115.407 64.904C116.415 64.904 116.967 65.54 116.967 66.764V71H117.951V66.608C117.951 64.964 117.051 64.016 115.671 64.016C114.519 64.016 113.991 64.64 113.715 65.288H113.667V64.16H112.707V71ZM113.122 63.2H116.89C117.55 63.2 117.886 62.876 117.886 62.228V61.388H116.974V62.408H113.122V63.2ZM117.069 60.92H117.885V59.288H117.069V60.92ZM122.699 71H128.195V70.112H123.791L126.047 68.084C127.115 67.124 127.883 66.212 127.883 64.916C127.883 63.488 126.947 62.48 125.315 62.48C123.695 62.48 122.951 63.464 122.627 64.448L123.527 64.796C123.755 64.004 124.235 63.38 125.267 63.38C126.299 63.38 126.815 64.016 126.815 64.94V65.084C126.815 65.888 126.215 66.728 125.435 67.448L122.699 69.968V71Z" fill="black"/>
<path d="M153.114 71.144C154.542 71.144 155.478 70.364 155.478 69.02C155.478 67.988 154.902 67.34 153.534 67.148L153.006 67.076C152.226 66.968 151.746 66.632 151.746 65.972C151.746 65.312 152.226 64.88 153.03 64.88C153.822 64.88 154.41 65.324 154.698 65.744L155.418 65.12C154.854 64.424 154.134 64.016 153.102 64.016C151.842 64.016 150.798 64.676 150.798 66.02C150.798 67.292 151.734 67.748 152.874 67.916L153.402 67.988C154.242 68.108 154.53 68.612 154.53 69.14C154.53 69.848 153.99 70.28 153.174 70.28C152.346 70.28 151.758 69.92 151.218 69.2L150.51 69.8C151.122 70.604 151.902 71.144 153.114 71.144ZM157.792 66.812L159.904 66.8V65.912L157.708 65.924V64.82L156.772 64.832V65.792C156.772 66.44 157.192 66.812 157.792 66.812ZM157.792 70.292L159.904 70.28V69.392L157.708 69.404V68.3L156.772 68.312V69.272C156.772 69.92 157.192 70.292 157.792 70.292ZM163.774 71.144C165.466 71.144 166.366 70.196 166.366 68.552V64.16H165.382V68.408C165.382 69.644 164.83 70.28 163.774 70.28C162.718 70.28 162.166 69.692 162.166 68.72V67.628H163.798V66.764H163.486C162.526 66.764 162.226 66.044 162.226 65.24V65H163.642V64.16H162.55C161.686 64.16 161.266 64.58 161.266 65.312V65.372C161.266 66.176 161.902 66.584 162.514 66.728V66.764H162.406C161.614 66.764 161.182 67.352 161.182 68.348V68.732C161.182 70.244 162.082 71.144 163.774 71.144ZM169.089 66.812L171.201 66.8V65.912L169.005 65.924V64.82L168.069 64.832V65.792C168.069 66.44 168.489 66.812 169.089 66.812ZM169.089 70.292L171.201 70.28V69.392L169.005 69.404V68.3L168.069 68.312V69.272C168.069 69.92 168.489 70.292 169.089 70.292ZM172.707 71H173.691V66.224C173.691 65.324 174.543 64.904 175.407 64.904C176.415 64.904 176.967 65.54 176.967 66.764V71H177.951V66.608C177.951 64.964 177.051 64.016 175.671 64.016C174.519 64.016 173.991 64.64 173.715 65.288H173.667V64.16H172.707V71ZM173.122 63.2H176.89C177.55 63.2 177.886 62.876 177.886 62.228V61.388H176.974V62.408H173.122V63.2ZM177.069 60.92H177.885V59.288H177.069V60.92ZM185.015 71.144C186.719 71.144 187.859 70.148 187.859 68.708C187.859 67.448 186.995 66.776 186.095 66.596V66.548C186.983 66.32 187.703 65.672 187.703 64.592C187.703 63.236 186.575 62.48 185.159 62.48C183.815 62.48 183.083 63.176 182.663 63.848L183.407 64.424C183.755 63.788 184.271 63.38 185.135 63.38C186.023 63.38 186.635 63.824 186.635 64.7V64.784C186.635 65.588 186.059 66.176 184.931 66.176H184.019V67.052H185.003C186.179 67.052 186.803 67.616 186.803 68.6V68.696C186.803 69.68 186.179 70.244 185.003 70.244C183.983 70.244 183.491 69.8 183.059 69.14L182.303 69.716C182.819 70.436 183.563 71.144 185.015 71.144Z" fill="black"/>
<path d="M213.114 71.144C214.542 71.144 215.478 70.364 215.478 69.02C215.478 67.988 214.902 67.34 213.534 67.148L213.006 67.076C212.226 66.968 211.746 66.632 211.746 65.972C211.746 65.312 212.226 64.88 213.03 64.88C213.822 64.88 214.41 65.324 214.698 65.744L215.418 65.12C214.854 64.424 214.134 64.016 213.102 64.016C211.842 64.016 210.798 64.676 210.798 66.02C210.798 67.292 211.734 67.748 212.874 67.916L213.402 67.988C214.242 68.108 214.53 68.612 214.53 69.14C214.53 69.848 213.99 70.28 213.174 70.28C212.346 70.28 211.758 69.92 211.218 69.2L210.51 69.8C211.122 70.604 211.902 71.144 213.114 71.144ZM217.792 66.812L219.904 66.8V65.912L217.708 65.924V64.82L216.772 64.832V65.792C216.772 66.44 217.192 66.812 217.792 66.812ZM217.792 70.292L219.904 70.28V69.392L217.708 69.404V68.3L216.772 68.312V69.272C216.772 69.92 217.192 70.292 217.792 70.292ZM223.774 71.144C225.466 71.144 226.366 70.196 226.366 68.552V64.16H225.382V68.408C225.382 69.644 224.83 70.28 223.774 70.28C222.718 70.28 222.166 69.692 222.166 68.72V67.628H223.798V66.764H223.486C222.526 66.764 222.226 66.044 222.226 65.24V65H223.642V64.16H222.55C221.686 64.16 221.266 64.58 221.266 65.312V65.372C221.266 66.176 221.902 66.584 222.514 66.728V66.764H222.406C221.614 66.764 221.182 67.352 221.182 68.348V68.732C221.182 70.244 222.082 71.144 223.774 71.144ZM229.089 66.812L231.201 66.8V65.912L229.005 65.924V64.82L228.069 64.832V65.792C228.069 66.44 228.489 66.812 229.089 66.812ZM229.089 70.292L231.201 70.28V69.392L229.005 69.404V68.3L228.069 68.312V69.272C228.069 69.92 228.489 70.292 229.089 70.292ZM232.707 71H233.691V66.224C233.691 65.324 234.543 64.904 235.407 64.904C236.415 64.904 236.967 65.54 236.967 66.764V71H237.951V66.608C237.951 64.964 237.051 64.016 235.671 64.016C234.519 64.016 233.991 64.64 233.715 65.288H233.667V64.16H232.707V71ZM233.122 63.2H236.89C237.55 63.2 237.886 62.876 237.886 62.228V61.388H236.974V62.408H233.122V63.2ZM237.069 60.92H237.885V59.288H237.069V60.92ZM246.299 71H247.259V69.356H248.471V68.516H247.259V62.624H245.759L242.255 68.468V69.356H246.299V71ZM243.203 68.516L246.239 63.404H246.299V68.516H243.203Z" fill="black"/>
<path d="M15.082 38.5881C14.5297 38.5881 14.082 39.0359 14.082 39.5881C14.082 40.1404 14.5297 40.5881 15.082 40.5881V38.5881ZM261.671 40.5881C262.223 40.5881 262.671 40.1404 262.671 39.5881C262.671 39.0359 262.223 38.5881 261.671 38.5881V40.5881ZM15.5752 40.5881C16.1275 40.5881 16.5752 40.1404 16.5752 39.5881C16.5752 39.0359 16.1275 38.5881 15.5752 38.5881V40.5881ZM24.4524 38.5881C23.9001 38.5881 23.4524 39.0359 23.4524 39.5881C23.4524 40.1404 23.9001 40.5881 24.4524 40.5881V38.5881ZM25.4388 40.5881C25.9911 40.5881 26.4388 40.1404 26.4388 39.5881C26.4388 39.0359 25.9911 38.5881 25.4388 38.5881V40.5881ZM34.316 38.5881C33.7637 38.5881 33.316 39.0359 33.316 39.5881C33.316 40.1404 33.7637 40.5881 34.316 40.5881V38.5881ZM35.3023 40.5881C35.8546 40.5881 36.3023 40.1404 36.3023 39.5881C36.3023 39.0359 35.8546 38.5881 35.3023 38.5881V40.5881ZM44.1795 38.5881C43.6272 38.5881 43.1795 39.0359 43.1795 39.5881C43.1795 40.1404 43.6272 40.5881 44.1795 40.5881V38.5881ZM45.1659 40.5881C45.7182 40.5881 46.1659 40.1404 46.1659 39.5881C46.1659 39.0359 45.7182 38.5881 45.1659 38.5881V40.5881ZM54.0431 38.5881C53.4908 38.5881 53.0431 39.0359 53.0431 39.5881C53.0431 40.1404 53.4908 40.5881 54.0431 40.5881V38.5881ZM55.0294 40.5881C55.5817 40.5881 56.0294 40.1404 56.0294 39.5881C56.0294 39.0359 55.5817 38.5881 55.0294 38.5881V40.5881ZM63.9067 38.5881C63.3544 38.5881 62.9067 39.0359 62.9067 39.5881C62.9067 40.1404 63.3544 40.5881 63.9067 40.5881V38.5881ZM64.893 40.5881C65.4453 40.5881 65.893 40.1404 65.893 39.5881C65.893 39.0359 65.4453 38.5881 64.893 38.5881V40.5881ZM73.7702 38.5881C73.2179 38.5881 72.7702 39.0359 72.7702 39.5881C72.7702 40.1404 73.2179 40.5881 73.7702 40.5881V38.5881ZM74.7566 40.5881C75.3089 40.5881 75.7566 40.1404 75.7566 39.5881C75.7566 39.0359 75.3089 38.5881 74.7566 38.5881V40.5881ZM83.6338 38.5881C83.0815 38.5881 82.6338 39.0359 82.6338 39.5881C82.6338 40.1404 83.0815 40.5881 83.6338 40.5881V38.5881ZM84.6201 40.5881C85.1724 40.5881 85.6201 40.1404 85.6201 39.5881C85.6201 39.0359 85.1724 38.5881 84.6201 38.5881V40.5881ZM93.4973 38.5881C92.945 38.5881 92.4973 39.0359 92.4973 39.5881C92.4973 40.1404 92.945 40.5881 93.4973 40.5881V38.5881ZM94.4837 40.5881C95.036 40.5881 95.4837 40.1404 95.4837 39.5881C95.4837 39.0359 95.036 38.5881 94.4837 38.5881V40.5881ZM103.361 38.5881C102.809 38.5881 102.361 39.0359 102.361 39.5881C102.361 40.1404 102.809 40.5881 103.361 40.5881V38.5881ZM104.347 40.5881C104.9 40.5881 105.347 40.1404 105.347 39.5881C105.347 39.0359 104.9 38.5881 104.347 38.5881V40.5881ZM113.224 38.5881C112.672 38.5881 112.224 39.0359 112.224 39.5881C112.224 40.1404 112.672 40.5881 113.224 40.5881V38.5881ZM114.211 40.5881C114.763 40.5881 115.211 40.1404 115.211 39.5881C115.211 39.0359 114.763 38.5881 114.211 38.5881V40.5881ZM123.088 38.5881C122.536 38.5881 122.088 39.0359 122.088 39.5881C122.088 40.1404 122.536 40.5881 123.088 40.5881V38.5881ZM124.074 40.5881C124.627 40.5881 125.074 40.1404 125.074 39.5881C125.074 39.0359 124.627 38.5881 124.074 38.5881V40.5881ZM132.952 38.5881C132.399 38.5881 131.952 39.0359 131.952 39.5881C131.952 40.1404 132.399 40.5881 132.952 40.5881V38.5881ZM133.938 40.5881C134.49 40.5881 134.938 40.1404 134.938 39.5881C134.938 39.0359 134.49 38.5881 133.938 38.5881V40.5881ZM142.815 38.5881C142.263 38.5881 141.815 39.0359 141.815 39.5881C141.815 40.1404 142.263 40.5881 142.815 40.5881V38.5881ZM143.802 40.5881C144.354 40.5881 144.802 40.1404 144.802 39.5881C144.802 39.0359 144.354 38.5881 143.802 38.5881V40.5881ZM152.679 38.5881C152.126 38.5881 151.679 39.0359 151.679 39.5881C151.679 40.1404 152.126 40.5881 152.679 40.5881V38.5881ZM153.665 40.5881C154.217 40.5881 154.665 40.1404 154.665 39.5881C154.665 39.0359 154.217 38.5881 153.665 38.5881V40.5881ZM162.542 38.5881C161.99 38.5881 161.542 39.0359 161.542 39.5881C161.542 40.1404 161.99 40.5881 162.542 40.5881V38.5881ZM163.529 40.5881C164.081 40.5881 164.529 40.1404 164.529 39.5881C164.529 39.0359 164.081 38.5881 163.529 38.5881V40.5881ZM172.406 38.5881C171.854 38.5881 171.406 39.0359 171.406 39.5881C171.406 40.1404 171.854 40.5881 172.406 40.5881V38.5881ZM173.392 40.5881C173.944 40.5881 174.392 40.1404 174.392 39.5881C174.392 39.0359 173.944 38.5881 173.392 38.5881V40.5881ZM182.269 38.5881C181.717 38.5881 181.269 39.0359 181.269 39.5881C181.269 40.1404 181.717 40.5881 182.269 40.5881V38.5881ZM183.256 40.5881C183.808 40.5881 184.256 40.1404 184.256 39.5881C184.256 39.0359 183.808 38.5881 183.256 38.5881V40.5881ZM192.133 38.5881C191.581 38.5881 191.133 39.0359 191.133 39.5881C191.133 40.1404 191.581 40.5881 192.133 40.5881V38.5881ZM193.119 40.5881C193.672 40.5881 194.119 40.1404 194.119 39.5881C194.119 39.0359 193.672 38.5881 193.119 38.5881V40.5881ZM201.996 38.5881C201.444 38.5881 200.996 39.0359 200.996 39.5881C200.996 40.1404 201.444 40.5881 201.996 40.5881V38.5881ZM202.983 40.5881C203.535 40.5881 203.983 40.1404 203.983 39.5881C203.983 39.0359 203.535 38.5881 202.983 38.5881V40.5881ZM211.86 38.5881C211.308 38.5881 210.86 39.0359 210.86 39.5881C210.86 40.1404 211.308 40.5881 211.86 40.5881V38.5881ZM212.846 40.5881C213.399 40.5881 213.846 40.1404 213.846 39.5881C213.846 39.0359 213.399 38.5881 212.846 38.5881V40.5881ZM221.724 38.5881C221.171 38.5881 220.724 39.0359 220.724 39.5881C220.724 40.1404 221.171 40.5881 221.724 40.5881V38.5881ZM222.71 40.5881C223.262 40.5881 223.71 40.1404 223.71 39.5881C223.71 39.0359 223.262 38.5881 222.71 38.5881V40.5881ZM231.587 38.5881C231.035 38.5881 230.587 39.0359 230.587 39.5881C230.587 40.1404 231.035 40.5881 231.587 40.5881V38.5881ZM232.574 40.5881C233.126 40.5881 233.574 40.1404 233.574 39.5881C233.574 39.0359 233.126 38.5881 232.574 38.5881V40.5881ZM241.451 38.5881C240.898 38.5881 240.451 39.0359 240.451 39.5881C240.451 40.1404 240.898 40.5881 241.451 40.5881V38.5881ZM242.437 40.5881C242.989 40.5881 243.437 40.1404 243.437 39.5881C243.437 39.0359 242.989 38.5881 242.437 38.5881V40.5881ZM251.314 38.5881C250.762 38.5881 250.314 39.0359 250.314 39.5881C250.314 40.1404 250.762 40.5881 251.314 40.5881V38.5881ZM252.301 40.5881C252.853 40.5881 253.301 40.1404 253.301 39.5881C253.301 39.0359 252.853 38.5881 252.301 38.5881V40.5881ZM261.178 38.5881C260.626 38.5881 260.178 39.0359 260.178 39.5881C260.178 40.1404 260.626 40.5881 261.178 40.5881V38.5881ZM15.082 40.5881H15.5752V38.5881H15.082V40.5881ZM24.4524 40.5881H25.4388V38.5881H24.4524V40.5881ZM34.316 40.5881H35.3023V38.5881H34.316V40.5881ZM44.1795 40.5881H45.1659V38.5881H44.1795V40.5881ZM54.0431 40.5881H55.0294V38.5881H54.0431V40.5881ZM63.9067 40.5881H64.893V38.5881H63.9067V40.5881ZM73.7702 40.5881H74.7566V38.5881H73.7702V40.5881ZM83.6338 40.5881H84.6201V38.5881H83.6338V40.5881ZM93.4973 40.5881H94.4837V38.5881H93.4973V40.5881ZM103.361 40.5881H104.347V38.5881H103.361V40.5881ZM113.224 40.5881H114.211V38.5881H113.224V40.5881ZM123.088 40.5881H124.074V38.5881H123.088V40.5881ZM132.952 40.5881H133.938V38.5881H132.952V40.5881ZM142.815 40.5881H143.802V38.5881H142.815V40.5881ZM152.679 40.5881H153.665V38.5881H152.679V40.5881ZM162.542 40.5881H163.529V38.5881H162.542V40.5881ZM172.406 40.5881H173.392V38.5881H172.406V40.5881ZM182.269 40.5881H183.256V38.5881H182.269V40.5881ZM192.133 40.5881H193.119V38.5881H192.133V40.5881ZM201.996 40.5881H202.983V38.5881H201.996V40.5881ZM211.86 40.5881H212.846V38.5881H211.86V40.5881ZM221.724 40.5881H222.71V38.5881H221.724V40.5881ZM231.587 40.5881H232.574V38.5881H231.587V40.5881ZM241.451 40.5881H242.437V38.5881H241.451V40.5881ZM251.314 40.5881H252.301V38.5881H251.314V40.5881ZM261.178 40.5881H261.671V38.5881H261.178V40.5881Z" fill="black"/>
<path d="M15.4507 39.929L113.869 39.929" stroke="black" stroke-width="5" stroke-linecap="square"/>
<circle cx="19.0667" cy="39.9292" r="19.0667" fill="black"/>
<path d="M6.81023 43.2756H11.7502V42.0156H8.45023L9.75023 40.9956C10.7502 40.2056 11.6102 39.4756 11.6102 38.2756C11.6102 37.0656 10.7402 36.1756 9.23023 36.1756C7.78023 36.1756 6.97023 36.9856 6.66023 37.9556L7.97023 38.4556C8.11023 37.9256 8.43023 37.4756 9.09023 37.4756C9.54023 37.4756 10.0102 37.7456 10.0102 38.2756V38.4156C10.0102 39.0056 9.74023 39.3956 8.96023 40.0656L6.81023 41.9056V43.2756ZM15.1863 43.3956C16.9063 43.3956 17.8663 42.3456 17.8663 40.9256C17.8663 39.5256 16.9063 38.7056 15.7163 38.7056C14.8263 38.7056 14.4963 39.1556 14.2163 39.8156H14.1363L14.2863 37.6056H17.4563V36.2956H13.1863L12.9263 40.2456L14.1563 40.4156C14.3363 40.2056 14.6963 39.9256 15.2363 39.9256C15.8863 39.9256 16.2863 40.3256 16.2863 40.9656V41.0456C16.2863 41.7256 15.9163 42.1756 15.1963 42.1756C14.4763 42.1756 14.0863 41.7356 13.7863 41.1956L12.6963 42.0556C13.1163 42.7656 13.8363 43.3956 15.1863 43.3956ZM21.1824 43.3956C22.9024 43.3956 23.8624 42.3456 23.8624 40.9256C23.8624 39.5256 22.9024 38.7056 21.7124 38.7056C20.8224 38.7056 20.4924 39.1556 20.2124 39.8156H20.1324L20.2824 37.6056H23.4524V36.2956H19.1824L18.9224 40.2456L20.1524 40.4156C20.3324 40.2056 20.6924 39.9256 21.2324 39.9256C21.8824 39.9256 22.2824 40.3256 22.2824 40.9656V41.0456C22.2824 41.7256 21.9124 42.1756 21.1924 42.1756C20.4724 42.1756 20.0824 41.7356 19.7824 41.1956L18.6924 42.0556C19.1124 42.7656 19.8324 43.3956 21.1824 43.3956ZM27.2685 43.3956C28.8585 43.3956 29.8885 42.3756 29.8885 40.9456C29.8885 39.6256 28.9985 38.7756 27.8485 38.7756C26.9585 38.7756 26.5485 39.2956 26.3085 39.8256L26.2185 39.7956C26.4985 38.4656 27.5185 37.5156 29.2185 36.2956H27.1485C25.9585 37.1056 24.6485 38.6656 24.6485 40.6256C24.6485 42.3056 25.6085 43.3956 27.2685 43.3956ZM27.2685 42.2256C26.6085 42.2256 26.2085 41.8456 26.2085 41.1656V40.9856C26.2085 40.3056 26.6085 39.9256 27.2685 39.9256C27.9285 39.9256 28.3285 40.3056 28.3285 40.9856V41.1656C28.3285 41.8456 27.9285 42.2256 27.2685 42.2256Z" fill="white"/>
<circle cx="79.823" cy="39.9288" r="19.0667" fill="black"/>
<path d="M67.5666 43.2759H72.5066V42.0159H69.2066L70.5066 40.9959C71.5066 40.2059 72.3666 39.4759 72.3666 38.2759C72.3666 37.0659 71.4966 36.1759 69.9866 36.1759C68.5366 36.1759 67.7266 36.9859 67.4166 37.9559L68.7266 38.4559C68.8666 37.9259 69.1866 37.4759 69.8466 37.4759C70.2966 37.4759 70.7666 37.7459 70.7666 38.2759V38.4159C70.7666 39.0059 70.4966 39.3959 69.7166 40.0659L67.5666 41.9059V43.2759ZM75.9427 43.3959C77.6627 43.3959 78.6227 42.3459 78.6227 40.9259C78.6227 39.5259 77.6627 38.7059 76.4727 38.7059C75.5827 38.7059 75.2527 39.1559 74.9727 39.8159H74.8927L75.0427 37.6059H78.2127V36.2959H73.9427L73.6827 40.2459L74.9127 40.4159C75.0927 40.2059 75.4527 39.9259 75.9927 39.9259C76.6427 39.9259 77.0427 40.3259 77.0427 40.9659V41.0459C77.0427 41.7259 76.6727 42.1759 75.9527 42.1759C75.2327 42.1759 74.8427 41.7359 74.5427 41.1959L73.4527 42.0559C73.8727 42.7659 74.5927 43.3959 75.9427 43.3959ZM82.0288 43.3959C83.6188 43.3959 84.6488 42.3759 84.6488 40.9459C84.6488 39.6259 83.7588 38.7759 82.6088 38.7759C81.7188 38.7759 81.3088 39.2959 81.0688 39.8259L80.9788 39.7959C81.2588 38.4659 82.2788 37.5159 83.9788 36.2959H81.9088C80.7188 37.1059 79.4088 38.6659 79.4088 40.6259C79.4088 42.3059 80.3688 43.3959 82.0288 43.3959ZM82.0288 42.2259C81.3688 42.2259 80.9688 41.8459 80.9688 41.1659V40.9859C80.9688 40.3059 81.3688 39.9259 82.0288 39.9259C82.6888 39.9259 83.0888 40.3059 83.0888 40.9859V41.1659C83.0888 41.8459 82.6888 42.2259 82.0288 42.2259ZM87.9849 43.3959C89.8149 43.3959 90.6749 42.0659 90.6749 39.7859C90.6749 37.5059 89.8149 36.1759 87.9849 36.1759C86.1549 36.1759 85.2949 37.5059 85.2949 39.7859C85.2949 42.0659 86.1549 43.3959 87.9849 43.3959ZM87.9849 42.1259C87.1849 42.1259 86.9249 41.5059 86.9249 40.4459V39.1259C86.9249 38.0659 87.1849 37.4459 87.9849 37.4459C88.7849 37.4459 89.0449 38.0659 89.0449 39.1259V40.4459C89.0449 41.5059 88.7849 42.1259 87.9849 42.1259Z" fill="white"/>
<circle cx="140.579" cy="39.9288" r="18.5667" fill="white" stroke="black"/>
<path d="M128.322 43.2759H133.262V42.0159H129.962L131.262 40.9959C132.262 40.2059 133.122 39.4759 133.122 38.2759C133.122 37.0659 132.252 36.1759 130.742 36.1759C129.292 36.1759 128.482 36.9859 128.172 37.9559L129.482 38.4559C129.622 37.9259 129.942 37.4759 130.602 37.4759C131.052 37.4759 131.522 37.7459 131.522 38.2759V38.4159C131.522 39.0059 131.252 39.3959 130.472 40.0659L128.322 41.9059V43.2759ZM136.699 43.3959C138.419 43.3959 139.379 42.3459 139.379 40.9259C139.379 39.5259 138.419 38.7059 137.229 38.7059C136.339 38.7059 136.009 39.1559 135.729 39.8159H135.649L135.799 37.6059H138.969V36.2959H134.699L134.439 40.2459L135.669 40.4159C135.849 40.2059 136.209 39.9259 136.749 39.9259C137.399 39.9259 137.799 40.3259 137.799 40.9659V41.0459C137.799 41.7259 137.429 42.1759 136.709 42.1759C135.989 42.1759 135.599 41.7359 135.299 41.1959L134.209 42.0559C134.629 42.7659 135.349 43.3959 136.699 43.3959ZM142.785 43.3959C144.375 43.3959 145.405 42.3759 145.405 40.9459C145.405 39.6259 144.515 38.7759 143.365 38.7759C142.475 38.7759 142.065 39.2959 141.825 39.8259L141.735 39.7959C142.015 38.4659 143.035 37.5159 144.735 36.2959H142.665C141.475 37.1059 140.165 38.6659 140.165 40.6259C140.165 42.3059 141.125 43.3959 142.785 43.3959ZM142.785 42.2259C142.125 42.2259 141.725 41.8459 141.725 41.1659V40.9859C141.725 40.3059 142.125 39.9259 142.785 39.9259C143.445 39.9259 143.845 40.3059 143.845 40.9859V41.1659C143.845 41.8459 143.445 42.2259 142.785 42.2259ZM148.691 43.3959C150.411 43.3959 151.371 42.3459 151.371 40.9259C151.371 39.5259 150.411 38.7059 149.221 38.7059C148.331 38.7059 148.001 39.1559 147.721 39.8159H147.641L147.791 37.6059H150.961V36.2959H146.691L146.431 40.2459L147.661 40.4159C147.841 40.2059 148.201 39.9259 148.741 39.9259C149.391 39.9259 149.791 40.3259 149.791 40.9659V41.0459C149.791 41.7259 149.421 42.1759 148.701 42.1759C147.981 42.1759 147.591 41.7359 147.291 41.1959L146.201 42.0559C146.621 42.7659 147.341 43.3959 148.691 43.3959Z" fill="black"/>
<circle cx="201.335" cy="39.9288" r="18.5667" fill="white" stroke="black"/>
<path d="M189.079 43.2759H194.019V42.0159H190.719L192.019 40.9959C193.019 40.2059 193.879 39.4759 193.879 38.2759C193.879 37.0659 193.009 36.1759 191.499 36.1759C190.049 36.1759 189.239 36.9859 188.929 37.9559L190.239 38.4559C190.379 37.9259 190.699 37.4759 191.359 37.4759C191.809 37.4759 192.279 37.7459 192.279 38.2759V38.4159C192.279 39.0059 192.009 39.3959 191.229 40.0659L189.079 41.9059V43.2759ZM197.455 43.3959C199.175 43.3959 200.135 42.3459 200.135 40.9259C200.135 39.5259 199.175 38.7059 197.985 38.7059C197.095 38.7059 196.765 39.1559 196.485 39.8159H196.405L196.555 37.6059H199.725V36.2959H195.455L195.195 40.2459L196.425 40.4159C196.605 40.2059 196.965 39.9259 197.505 39.9259C198.155 39.9259 198.555 40.3259 198.555 40.9659V41.0459C198.555 41.7259 198.185 42.1759 197.465 42.1759C196.745 42.1759 196.355 41.7359 196.055 41.1959L194.965 42.0559C195.385 42.7659 196.105 43.3959 197.455 43.3959ZM202.161 43.2759H203.741L205.991 37.5959V36.2959H201.051V38.7859H202.321V37.5159H204.501L202.161 43.2759ZM209.497 43.3959C211.327 43.3959 212.187 42.0659 212.187 39.7859C212.187 37.5059 211.327 36.1759 209.497 36.1759C207.667 36.1759 206.807 37.5059 206.807 39.7859C206.807 42.0659 207.667 43.3959 209.497 43.3959ZM209.497 42.1259C208.697 42.1259 208.437 41.5059 208.437 40.4459V39.1259C208.437 38.0659 208.697 37.4459 209.497 37.4459C210.297 37.4459 210.557 38.0659 210.557 39.1259V40.4459C210.557 41.5059 210.297 42.1259 209.497 42.1259Z" fill="black"/>
<circle cx="262.092" cy="39.9288" r="18.5667" fill="white" stroke="black"/>
<path d="M249.835 43.2759H254.775V42.0159H251.475L252.775 40.9959C253.775 40.2059 254.635 39.4759 254.635 38.2759C254.635 37.0659 253.765 36.1759 252.255 36.1759C250.805 36.1759 249.995 36.9859 249.685 37.9559L250.995 38.4559C251.135 37.9259 251.455 37.4759 252.115 37.4759C252.565 37.4759 253.035 37.7459 253.035 38.2759V38.4159C253.035 39.0059 252.765 39.3959 251.985 40.0659L249.835 41.9059V43.2759ZM258.211 43.3959C259.931 43.3959 260.891 42.3459 260.891 40.9259C260.891 39.5259 259.931 38.7059 258.741 38.7059C257.851 38.7059 257.521 39.1559 257.241 39.8159H257.161L257.311 37.6059H260.481V36.2959H256.211L255.951 40.2459L257.181 40.4159C257.361 40.2059 257.721 39.9259 258.261 39.9259C258.911 39.9259 259.311 40.3259 259.311 40.9659V41.0459C259.311 41.7259 258.941 42.1759 258.221 42.1759C257.501 42.1759 257.111 41.7359 256.811 41.1959L255.721 42.0559C256.141 42.7659 256.861 43.3959 258.211 43.3959ZM262.917 43.2759H264.497L266.747 37.5959V36.2959H261.807V38.7859H263.077V37.5159H265.257L262.917 43.2759ZM270.203 43.3959C271.923 43.3959 272.883 42.3459 272.883 40.9259C272.883 39.5259 271.923 38.7059 270.733 38.7059C269.843 38.7059 269.513 39.1559 269.233 39.8159H269.153L269.303 37.6059H272.473V36.2959H268.203L267.943 40.2459L269.173 40.4159C269.353 40.2059 269.713 39.9259 270.253 39.9259C270.903 39.9259 271.303 40.3259 271.303 40.9659V41.0459C271.303 41.7259 270.933 42.1759 270.213 42.1759C269.493 42.1759 269.103 41.7359 268.803 41.1959L267.713 42.0559C268.133 42.7659 268.853 43.3959 270.203 43.3959Z" fill="black"/>
<path d="M115.107 10.1907L115.107 40.4344" stroke="black" stroke-width="2" stroke-linecap="square"/>
<rect x="87" width="56" height="17" fill="black"/>
<path d="M101.698 13.144C103.39 13.144 104.29 12.196 104.29 10.552V3.64H103.306V10.408C103.306 11.644 102.754 12.28 101.698 12.28C100.63 12.28 100.078 11.644 100.078 10.408V6.16H99.0939V10.552C99.0939 12.196 99.9939 13.144 101.698 13.144ZM100.937 5.2H102.581V4.408H100.493V3.628H99.581V3.988C99.581 4.84 99.977 5.2 100.937 5.2ZM108.245 6.016C107.081 6.016 106.265 6.436 105.749 7.228L106.385 7.84C106.757 7.228 107.369 6.88 108.233 6.88C109.481 6.88 110.177 7.624 110.177 8.932V10.084C110.177 11.464 109.565 12.136 108.701 12.136H108.545L108.005 10.072C107.789 9.256 107.549 9.016 106.937 9.016H106.169V9.856H106.985L107.837 13H108.701C110.285 13 111.209 11.848 111.209 9.484C111.209 7.24 110.321 6.016 108.245 6.016ZM114.807 6.016C113.643 6.016 112.827 6.436 112.311 7.228L112.947 7.84C113.319 7.228 113.931 6.88 114.795 6.88C116.043 6.88 116.739 7.624 116.739 8.932V10.084C116.739 11.464 116.127 12.136 115.263 12.136H115.107L114.567 10.072C114.351 9.256 114.111 9.016 113.499 9.016H112.731V9.856H113.547L114.399 13H115.263C116.847 13 117.771 11.848 117.771 9.484C117.771 7.24 116.883 6.016 114.807 6.016ZM116.84 16.204H117.656V14.788C117.656 14.2 117.332 13.876 116.756 13.876H116.168V14.596H116.828L116.84 16.204ZM122.03 13.144C123.722 13.144 124.622 12.196 124.622 10.552V6.16H123.638V10.408C123.638 11.644 123.086 12.28 122.03 12.28C120.962 12.28 120.41 11.644 120.41 10.408V6.16H119.426V10.552C119.426 12.196 120.326 13.144 122.03 13.144ZM123.513 5.2H125.913V4.408H123.069V3.64H122.157V3.988C122.157 4.84 122.553 5.2 123.513 5.2ZM128.925 13.144C130.053 13.144 130.569 12.52 130.833 11.872H130.881V13H131.841V6.16H130.857V10.948C130.857 11.848 130.029 12.268 129.189 12.268C128.169 12.268 127.617 11.632 127.617 10.408V6.16H126.633V10.552C126.633 12.196 127.533 13.144 128.925 13.144Z" fill="white"/>
</svg>
