<svg id="Layer_1" data-name="Layer 1" xmlns="http://www.w3.org/2000/svg" viewBox="0 0 570 570"><defs><style>.cls-1{fill:#6adc7b;}.cls-2{fill:#fff;}.cls-2,.cls-3{stroke:#6adc7b;stroke-linejoin:round;stroke-width:1.5px;}.cls-3{fill:none;}</style></defs><path class="cls-1" d="M285,567c155.74,0,282-126.26,282-282S440.74,3,285,3,3,129.26,3,285,129.26,567,285,567Z"/><path class="cls-2" d="M514.7,563.75c25.25,0,45.73-10.11,45.73-22.57v-9.69H469v9.69C469,553.64,489.44,563.75,514.7,563.75Z"/><path class="cls-2" d="M560.43,532.37c0-12.46-20.48-22.56-45.74-22.56S469,519.91,469,532.37s20.48,22.57,45.73,22.57S560.43,544.84,560.43,532.37Z"/><path class="cls-3" d="M474.67,542.9v10"/><path class="cls-3" d="M480.38,547.47v8.8"/><path class="cls-3" d="M486.08,550.32v8.24"/><path class="cls-3" d="M491.79,550.89v10"/><path class="cls-3" d="M497.5,553.17v10"/><path class="cls-3" d="M503.2,553.17v10"/><path class="cls-3" d="M508.91,554.31v10"/><path class="cls-3" d="M514.61,554.31v10"/><path class="cls-3" d="M520.32,554.31v10"/><path class="cls-3" d="M526,553.17v10"/><path class="cls-3" d="M531.73,553.17V562"/><path class="cls-3" d="M537.44,552v7.67"/><path class="cls-3" d="M543.14,550.89v7.67"/><path class="cls-3" d="M554.56,542.9V552"/><path class="cls-3" d="M548.85,547.47v8.8"/><path class="cls-2" d="M514.7,547.14c25.25,0,45.73-10.11,45.73-22.57v-9.69H469v9.69C469,537,489.44,547.14,514.7,547.14Z"/><path class="cls-2" d="M560.43,515.77c0-12.47-20.48-22.57-45.74-22.57S469,503.3,469,515.77s20.48,22.56,45.73,22.56S560.43,528.23,560.43,515.77Z"/><path class="cls-3" d="M474.67,526.29v10"/><path class="cls-3" d="M480.38,530.86v8.81"/><path class="cls-3" d="M486.08,533.71V542"/><path class="cls-3" d="M491.79,534.28v10"/><path class="cls-3" d="M497.5,536.56v10"/><path class="cls-3" d="M503.2,536.56v10"/><path class="cls-3" d="M508.91,537.7v9.95"/><path class="cls-3" d="M514.61,537.71v9.94"/><path class="cls-3" d="M520.32,537.7v9.95"/><path class="cls-3" d="M526,536.56v10"/><path class="cls-3" d="M531.73,536.56v8.81"/><path class="cls-3" d="M537.44,535.42v7.67"/><path class="cls-3" d="M543.14,534.28V542"/><path class="cls-3" d="M554.56,526.29v9.13"/><path class="cls-3" d="M548.85,530.86v8.81"/><path class="cls-2" d="M514.7,530.53c25.25,0,45.73-10.1,45.73-22.57v-9.69H469V508C469,520.43,489.44,530.53,514.7,530.53Z"/><path class="cls-2" d="M560.43,499.16c0-12.47-20.48-22.57-45.74-22.57S469,486.69,469,499.16s20.48,22.56,45.73,22.56S560.43,511.62,560.43,499.16Z"/><path class="cls-3" d="M474.67,509.68v9.95"/><path class="cls-3" d="M480.38,514.25v8.81"/><path class="cls-3" d="M486.08,517.1v8.24"/><path class="cls-3" d="M491.79,517.67v10"/><path class="cls-3" d="M497.5,520v9.94"/><path class="cls-3" d="M503.2,520v9.94"/><path class="cls-3" d="M508.91,521.1v9.95"/><path class="cls-3" d="M514.61,521.1v9.95"/><path class="cls-3" d="M520.32,521.1V531"/><path class="cls-3" d="M526,520v9.95"/><path class="cls-3" d="M531.73,520v8.81"/><path class="cls-3" d="M537.44,518.81v7.67"/><path class="cls-3" d="M543.14,517.67v7.67"/><path class="cls-3" d="M554.56,509.68v9.13"/><path class="cls-3" d="M548.85,514.25v8.81"/><path class="cls-2" d="M514.7,513.92c25.25,0,45.73-10.1,45.73-22.57v-9.69H469v9.69C469,503.82,489.44,513.92,514.7,513.92Z"/><path class="cls-2" d="M560.43,482.55c0-12.47-20.48-22.57-45.74-22.57S469,470.08,469,482.55s20.48,22.57,45.73,22.57S560.43,495,560.43,482.55Z"/><path class="cls-3" d="M474.67,493.07V503"/><path class="cls-3" d="M480.38,497.64v8.81"/><path class="cls-3" d="M486.08,500.49v8.24"/><path class="cls-3" d="M491.79,501.06V511"/><path class="cls-3" d="M497.5,503.35v9.95"/><path class="cls-3" d="M503.2,503.35v9.95"/><path class="cls-3" d="M508.91,504.49v10"/><path class="cls-3" d="M514.61,504.49v10"/><path class="cls-3" d="M520.32,504.49v10"/><path class="cls-3" d="M526,503.35v9.94"/><path class="cls-3" d="M531.73,503.35v8.8"/><path class="cls-3" d="M537.44,502.2v7.67"/><path class="cls-3" d="M543.14,501.06v7.67"/><path class="cls-3" d="M554.56,493.07v9.13"/><path class="cls-3" d="M548.85,497.64v8.81"/><path class="cls-2" d="M514.7,497.31c25.25,0,45.73-10.1,45.73-22.57v-9.69H469v9.69C469,487.21,489.44,497.31,514.7,497.31Z"/><path class="cls-2" d="M560.43,465.94c0-12.47-20.48-22.57-45.74-22.57S469,453.47,469,465.94s20.48,22.57,45.73,22.57S560.43,478.4,560.43,465.94Z"/><path class="cls-3" d="M474.67,476.47v9.94"/><path class="cls-3" d="M480.38,481v8.81"/><path class="cls-3" d="M486.08,483.88v8.24"/><path class="cls-3" d="M491.79,484.45v9.95"/><path class="cls-3" d="M497.5,486.74v9.95"/><path class="cls-3" d="M503.2,486.74v9.95"/><path class="cls-3" d="M508.91,487.88v9.95"/><path class="cls-3" d="M514.61,487.88v9.95"/><path class="cls-3" d="M520.32,487.88v9.95"/><path class="cls-3" d="M526,486.74v9.95"/><path class="cls-3" d="M531.73,486.74v8.8"/><path class="cls-3" d="M537.44,485.6v7.66"/><path class="cls-3" d="M543.14,484.45v7.67"/><path class="cls-3" d="M554.56,476.46v9.13"/><path class="cls-3" d="M548.85,481v8.81"/><path class="cls-2" d="M514.7,480.7c25.25,0,45.73-10.1,45.73-22.56v-9.69H469v9.69C469,470.6,489.44,480.7,514.7,480.7Z"/><path class="cls-2" d="M560.43,449.33c0-12.46-20.48-22.57-45.74-22.57S469,436.87,469,449.33s20.48,22.57,45.73,22.57S560.43,461.79,560.43,449.33Z"/><path class="cls-3" d="M474.67,459.86v9.95"/><path class="cls-3" d="M480.38,464.42v8.81"/><path class="cls-3" d="M486.08,467.28v8.23"/><path class="cls-3" d="M491.79,467.85v9.94"/><path class="cls-3" d="M497.5,470.13v9.95"/><path class="cls-3" d="M503.2,470.13v9.95"/><path class="cls-3" d="M508.91,471.27v10"/><path class="cls-3" d="M514.61,471.27v10"/><path class="cls-3" d="M520.32,471.27v10"/><path class="cls-3" d="M526,470.13v9.95"/><path class="cls-3" d="M531.73,470.13v8.81"/><path class="cls-3" d="M537.44,469v7.66"/><path class="cls-3" d="M543.14,467.85v7.66"/><path class="cls-3" d="M554.56,459.86V469"/><path class="cls-3" d="M548.85,464.42v8.81"/><path class="cls-2" d="M514.7,464.09c25.25,0,45.73-10.1,45.73-22.56v-9.69H469v9.69C469,454,489.44,464.09,514.7,464.09Z"/><path class="cls-2" d="M560.43,432.72c0-12.46-20.48-22.57-45.74-22.57S469,420.26,469,432.72s20.48,22.57,45.73,22.57S560.43,445.19,560.43,432.72Z"/><path class="cls-3" d="M474.67,443.25v9.95"/><path class="cls-3" d="M480.38,447.81v8.81"/><path class="cls-3" d="M486.08,450.67v8.23"/><path class="cls-3" d="M491.79,451.24v9.95"/><path class="cls-3" d="M497.5,453.52v10"/><path class="cls-3" d="M503.2,453.52v10"/><path class="cls-3" d="M508.91,454.66v9.95"/><path class="cls-3" d="M514.61,454.66v9.95"/><path class="cls-3" d="M520.32,454.66v9.95"/><path class="cls-3" d="M526,453.52v10"/><path class="cls-3" d="M531.73,453.52v8.81"/><path class="cls-3" d="M537.44,452.38V460"/><path class="cls-3" d="M543.14,451.24v7.66"/><path class="cls-3" d="M554.56,443.25v9.13"/><path class="cls-3" d="M548.85,447.81v8.81"/><path class="cls-2" d="M514.7,447.49c25.25,0,45.73-10.11,45.73-22.57v-9.69H469v9.69C469,437.38,489.44,447.49,514.7,447.49Z"/><path class="cls-2" d="M560.43,416.11c0-12.46-20.48-22.57-45.74-22.57S469,403.65,469,416.11s20.48,22.57,45.73,22.57S560.43,428.58,560.43,416.11Z"/><path class="cls-3" d="M474.67,426.64v9.95"/><path class="cls-3" d="M480.38,431.2V440"/><path class="cls-3" d="M486.08,434.06v8.23"/><path class="cls-3" d="M491.79,434.63v9.95"/><path class="cls-3" d="M497.5,436.91v9.95"/><path class="cls-3" d="M503.2,436.91v9.95"/><path class="cls-3" d="M508.91,438.05V448"/><path class="cls-3" d="M514.61,438.05V448"/><path class="cls-3" d="M520.32,438.05V448"/><path class="cls-3" d="M526,436.91v9.95"/><path class="cls-3" d="M531.73,436.91v8.81"/><path class="cls-3" d="M537.44,435.77v7.67"/><path class="cls-3" d="M543.14,434.63v7.66"/><path class="cls-3" d="M554.56,426.64v9.13"/><path class="cls-3" d="M548.85,431.2V440"/><path class="cls-2" d="M514.7,430.88c25.25,0,45.73-10.11,45.73-22.57v-9.69H469v9.69C469,420.77,489.44,430.88,514.7,430.88Z"/><path class="cls-2" d="M560.43,399.5c0-12.46-20.48-22.56-45.74-22.56S469,387,469,399.5s20.48,22.57,45.73,22.57S560.43,412,560.43,399.5Z"/><path class="cls-3" d="M474.67,410v10"/><path class="cls-3" d="M480.38,414.59v8.81"/><path class="cls-3" d="M486.08,417.45v8.24"/><path class="cls-3" d="M491.79,418v10"/><path class="cls-3" d="M497.5,420.3v9.95"/><path class="cls-3" d="M503.2,420.3v9.95"/><path class="cls-3" d="M508.91,421.44v9.95"/><path class="cls-3" d="M514.61,421.44v9.95"/><path class="cls-3" d="M520.32,421.44v9.95"/><path class="cls-3" d="M526,420.3v9.95"/><path class="cls-3" d="M531.73,420.3v8.81"/><path class="cls-3" d="M537.44,419.16v7.67"/><path class="cls-3" d="M543.14,418v7.67"/><path class="cls-3" d="M554.56,410v9.13"/><path class="cls-3" d="M548.85,414.59v8.81"/><path class="cls-2" d="M55.3,557.94c25.26,0,45.73-10.11,45.73-22.57v-9.69H9.58v9.69C9.58,547.83,30.05,557.94,55.3,557.94Z"/><path class="cls-2" d="M101,526.56C101,514.1,80.56,504,55.3,504S9.57,514.1,9.57,526.56s20.48,22.57,45.73,22.57S101,539,101,526.56Z"/><path class="cls-3" d="M15.28,537.09V547"/><path class="cls-3" d="M21,541.65v8.81"/><path class="cls-3" d="M26.69,544.51v8.24"/><path class="cls-3" d="M32.4,545.08V555"/><path class="cls-3" d="M38.11,547.36v9.95"/><path class="cls-3" d="M43.81,547.36v9.95"/><path class="cls-3" d="M49.52,548.5v10"/><path class="cls-3" d="M55.22,548.5v10"/><path class="cls-3" d="M60.93,548.5v10"/><path class="cls-3" d="M66.63,547.36v9.95"/><path class="cls-3" d="M72.34,547.36v8.81"/><path class="cls-3" d="M78.05,546.22v7.67"/><path class="cls-3" d="M83.75,545.08v7.67"/><path class="cls-3" d="M95.17,537.09v9.13"/><path class="cls-3" d="M89.46,541.65v8.81"/><path class="cls-2" d="M83.94,544c22.94,10.56,45.77,10,51-1.38l4.05-8.8L55.88,495.58l-4.05,8.81C46.62,515.71,61,533.45,83.94,544Z"/><path class="cls-2" d="M138.6,534.62c5.21-11.32-9.17-29.06-32.11-39.62s-45.76-9.94-51,1.39,9.16,29.06,32.1,39.62S133.39,546,138.6,534.62Z"/><path class="cls-3" d="M56.3,508.33l-4.16,9"/><path class="cls-3" d="M59.57,514.87l-3.68,8"/><path class="cls-3" d="M63.56,519.84l-1.36,3-2.08,4.52"/><path class="cls-3" d="M68.51,522.75l-4.16,9"/><path class="cls-3" d="M72.74,527.21l-4.16,9"/><path class="cls-3" d="M77.92,529.59l-4.16,9"/><path class="cls-3" d="M82.63,533l-4.16,9"/><path class="cls-3" d="M87.81,535.4l-4.16,9"/><path class="cls-3" d="M93,537.79l-4.16,9"/><path class="cls-3" d="M98.65,539.13l-4.16,9"/><path class="cls-3" d="M103.84,541.52l-3.68,8"/><path class="cls-3" d="M109.5,542.87l-3.21,7"/><path class="cls-3" d="M115.16,544.22l-3.21,7"/><path class="cls-3" d="M128.87,541.73l-3.82,8.3"/><path class="cls-3" d="M121.77,543.49l-3.68,8"/><path class="cls-2" d="M458.05,545.15c21.46-13.31,33.53-32.7,27-43.29l-5.11-8.23-77.71,48.23,5.11,8.23C413.87,560.68,436.59,558.47,458.05,545.15Z"/><path class="cls-2" d="M480.37,494.38c-6.58-10.59-29.3-8.38-50.76,4.94s-33.53,32.7-27,43.29,29.3,8.38,50.76-4.94S486.94,505,480.37,494.38Z"/><path class="cls-3" d="M413.05,548.54,418.3,557"/><path class="cls-3" d="M420.31,549.41,425,556.9"/><path class="cls-3" d="M426.66,548.83l1.72,2.77,2.62,4.23"/><path class="cls-3" d="M431.81,546.3l5.25,8.46"/><path class="cls-3" d="M437.86,545.23l5.25,8.46"/><path class="cls-3" d="M442.71,542.23l5.25,8.45"/><path class="cls-3" d="M448.16,540.19l5.25,8.45"/><path class="cls-3" d="M453,537.18l5.25,8.45"/><path class="cls-3" d="M457.86,534.17l5.24,8.45"/><path class="cls-3" d="M462.1,530.19l5.25,8.46"/><path class="cls-3" d="M467,527.18l4.65,7.49"/><path class="cls-3" d="M471.2,523.21l4,6.51"/><path class="cls-3" d="M475.45,519.23l4,6.51"/><path class="cls-3" d="M480.93,506.42l4.81,7.76"/><path class="cls-3" d="M478.49,513.31l4.64,7.48"/></svg>