<svg id="Layer_1" data-name="Layer 1" xmlns="http://www.w3.org/2000/svg" xmlns:xlink="http://www.w3.org/1999/xlink" viewBox="0 0 570 570"><defs><style>.cls-1,.cls-3{fill:#fff;}.cls-1,.cls-5{stroke:#6adc7b;stroke-miterlimit:10;stroke-width:1.5px;}.cls-2{fill:#6adc7b;}.cls-4{clip-path:url(#clip-path);}.cls-5{fill:none;}.cls-6{clip-path:url(#clip-path-2);}.cls-7{clip-path:url(#clip-path-3);}.cls-8{clip-path:url(#clip-path-4);}.cls-9{clip-path:url(#clip-path-5);}.cls-10{clip-path:url(#clip-path-6);}.cls-11{clip-path:url(#clip-path-7);}.cls-12{clip-path:url(#clip-path-8);}.cls-13{clip-path:url(#clip-path-9);}.cls-14{clip-path:url(#clip-path-10);}.cls-15{clip-path:url(#clip-path-11);}.cls-16{clip-path:url(#clip-path-12);}</style><clipPath id="clip-path"><path class="cls-1" d="M241.11,334.91h-4.33v9.19h0c0,.17,0,.34,0,.5,0,12.49,20.11,22.62,44.91,22.62s44.91-10.13,44.91-22.62c0-.16,0-.33,0-.5h0v-9.19H241.11Z"/></clipPath><clipPath id="clip-path-2"><path class="cls-1" d="M241.11,318.72h-4.33v9.19h0c0,.17,0,.34,0,.5,0,12.5,20.11,22.62,44.91,22.62s44.91-10.12,44.91-22.62c0-.16,0-.33,0-.5h0v-9.19H241.11Z"/></clipPath><clipPath id="clip-path-3"><path class="cls-1" d="M241.11,302.53h-4.33v9.19h0c0,.17,0,.34,0,.51,0,12.49,20.11,22.61,44.91,22.61s44.91-10.12,44.91-22.61c0-.17,0-.34,0-.51h0v-9.19H241.11Z"/></clipPath><clipPath id="clip-path-4"><path class="cls-1" d="M241.11,286.34h-4.33v9.19h0c0,.17,0,.34,0,.51,0,12.49,20.11,22.61,44.91,22.61S326.6,308.53,326.6,296c0-.17,0-.34,0-.51h0v-9.19H241.11Z"/></clipPath><clipPath id="clip-path-5"><path class="cls-1" d="M241.11,270.15h-4.33v9.19h0c0,.17,0,.34,0,.51,0,12.49,20.11,22.61,44.91,22.61s44.91-10.12,44.91-22.61c0-.17,0-.34,0-.51h0v-9.19H241.11Z"/></clipPath><clipPath id="clip-path-6"><path class="cls-1" d="M241.11,254h-4.33v9.19h0c0,.16,0,.33,0,.5,0,12.49,20.11,22.61,44.91,22.61s44.91-10.12,44.91-22.61c0-.17,0-.34,0-.5h0V254H241.11Z"/></clipPath><clipPath id="clip-path-7"><path class="cls-1" d="M241.11,237.78h-4.33V247h0c0,.16,0,.33,0,.5,0,12.49,20.11,22.62,44.91,22.62S326.6,260,326.6,247.47c0-.17,0-.34,0-.5h0v-9.19H241.11Z"/></clipPath><clipPath id="clip-path-8"><path class="cls-1" d="M241.11,221.59h-4.33v9.19h0c0,.17,0,.33,0,.5,0,12.49,20.11,22.62,44.91,22.62s44.91-10.13,44.91-22.62c0-.17,0-.33,0-.5h0v-9.19H241.11Z"/></clipPath><clipPath id="clip-path-9"><path class="cls-1" d="M241.11,205.4h-4.33v9.19h0c0,.17,0,.33,0,.5,0,12.49,20.11,22.62,44.91,22.62s44.91-10.13,44.91-22.62c0-.17,0-.33,0-.5h0V205.4H241.11Z"/></clipPath><clipPath id="clip-path-10"><path class="cls-1" d="M310.19,352.91h-4.33v9.19h0c0,.17,0,.33,0,.5,0,12.49,20.1,22.62,44.91,22.62s44.91-10.13,44.91-22.62c0-.17,0-.33,0-.5h0v-9.19H310.19Z"/></clipPath><clipPath id="clip-path-11"><path class="cls-1" d="M310.19,338.8h-4.33V348h0c0,.17,0,.33,0,.5,0,12.49,20.1,22.62,44.91,22.62s44.91-10.13,44.91-22.62c0-.17,0-.33,0-.5h0V338.8H310.19Z"/></clipPath><clipPath id="clip-path-12"><path class="cls-1" d="M175.74,343.26,172,345.47l4.68,7.9h0a4.78,4.78,0,0,0,.23.45c6.36,10.75,28.82,9.22,50.17-3.41s33.49-31.59,27.13-42.34c-.09-.14-.19-.27-.28-.42h0l-4.68-7.91-3.72,2.21Z"/></clipPath></defs><path class="cls-2" d="M285,567c155.74,0,282-126.26,282-282S440.74,3,285,3,3,129.26,3,285,129.26,567,285,567Z"/><path class="cls-1" d="M241.11,334.91h-4.33v9.19h0c0,.17,0,.34,0,.5,0,12.49,20.11,22.62,44.91,22.62s44.91-10.13,44.91-22.62c0-.16,0-.33,0-.5h0v-9.19H241.11Z"/><path class="cls-1" d="M241.11,334.91h-4.33v9.19h0c0,.17,0,.34,0,.5,0,12.49,20.11,22.62,44.91,22.62s44.91-10.13,44.91-22.62c0-.16,0-.33,0-.5h0v-9.19H241.11Z"/><path class="cls-3" d="M241.11,334.91h-4.33v9.19h0c0,.17,0,.34,0,.5,0,12.49,20.11,22.62,44.91,22.62s44.91-10.13,44.91-22.62c0-.16,0-.33,0-.5h0v-9.19H241.11Z"/><g class="cls-4"><line class="cls-1" x1="241.11" y1="334.91" x2="241.11" y2="367.22"/><line class="cls-1" x1="247.34" y1="334.91" x2="247.34" y2="367.22"/><line class="cls-1" x1="253.56" y1="334.91" x2="253.56" y2="367.22"/><line class="cls-1" x1="259.79" y1="334.91" x2="259.79" y2="367.22"/><line class="cls-1" x1="266.02" y1="334.91" x2="266.02" y2="367.22"/><line class="cls-1" x1="272.24" y1="334.91" x2="272.24" y2="367.22"/><line class="cls-1" x1="278.47" y1="334.91" x2="278.47" y2="367.22"/><line class="cls-1" x1="284.7" y1="334.91" x2="284.7" y2="367.22"/><line class="cls-1" x1="290.92" y1="334.91" x2="290.92" y2="367.22"/><line class="cls-1" x1="297.15" y1="334.91" x2="297.15" y2="367.22"/><line class="cls-1" x1="303.38" y1="334.91" x2="303.38" y2="367.22"/><line class="cls-1" x1="309.6" y1="334.91" x2="309.6" y2="367.22"/><line class="cls-1" x1="315.83" y1="334.91" x2="315.83" y2="367.22"/><line class="cls-1" x1="322.06" y1="334.91" x2="322.06" y2="367.22"/></g><path class="cls-5" d="M241.11,334.91h-4.33v9.19h0c0,.17,0,.34,0,.5,0,12.49,20.11,22.62,44.91,22.62s44.91-10.13,44.91-22.62c0-.16,0-.33,0-.5h0v-9.19H241.11Z"/><ellipse class="cls-1" cx="281.69" cy="334.91" rx="44.91" ry="22.62"/><path class="cls-1" d="M241.11,318.72h-4.33v9.19h0c0,.17,0,.34,0,.5,0,12.5,20.11,22.62,44.91,22.62s44.91-10.12,44.91-22.62c0-.16,0-.33,0-.5h0v-9.19H241.11Z"/><path class="cls-1" d="M241.11,318.72h-4.33v9.19h0c0,.17,0,.34,0,.5,0,12.5,20.11,22.62,44.91,22.62s44.91-10.12,44.91-22.62c0-.16,0-.33,0-.5h0v-9.19H241.11Z"/><path class="cls-3" d="M241.11,318.72h-4.33v9.19h0c0,.17,0,.34,0,.5,0,12.5,20.11,22.62,44.91,22.62s44.91-10.12,44.91-22.62c0-.16,0-.33,0-.5h0v-9.19H241.11Z"/><g class="cls-6"><line class="cls-1" x1="241.11" y1="318.72" x2="241.11" y2="351.03"/><line class="cls-1" x1="247.34" y1="318.72" x2="247.34" y2="351.03"/><line class="cls-1" x1="253.56" y1="318.72" x2="253.56" y2="351.03"/><line class="cls-1" x1="259.79" y1="318.72" x2="259.79" y2="351.03"/><line class="cls-1" x1="266.02" y1="318.72" x2="266.02" y2="351.03"/><line class="cls-1" x1="272.24" y1="318.72" x2="272.24" y2="351.03"/><line class="cls-1" x1="278.47" y1="318.72" x2="278.47" y2="351.03"/><line class="cls-1" x1="284.7" y1="318.72" x2="284.7" y2="351.03"/><line class="cls-1" x1="290.92" y1="318.72" x2="290.92" y2="351.03"/><line class="cls-1" x1="297.15" y1="318.72" x2="297.15" y2="351.03"/><line class="cls-1" x1="303.38" y1="318.72" x2="303.38" y2="351.03"/><line class="cls-1" x1="309.6" y1="318.72" x2="309.6" y2="351.03"/><line class="cls-1" x1="315.83" y1="318.72" x2="315.83" y2="351.03"/><line class="cls-1" x1="322.06" y1="318.72" x2="322.06" y2="351.03"/></g><path class="cls-5" d="M241.11,318.72h-4.33v9.19h0c0,.17,0,.34,0,.5,0,12.5,20.11,22.62,44.91,22.62s44.91-10.12,44.91-22.62c0-.16,0-.33,0-.5h0v-9.19H241.11Z"/><ellipse class="cls-1" cx="281.69" cy="318.72" rx="44.91" ry="22.62"/><path class="cls-1" d="M241.11,302.53h-4.33v9.19h0c0,.17,0,.34,0,.51,0,12.49,20.11,22.61,44.91,22.61s44.91-10.12,44.91-22.61c0-.17,0-.34,0-.51h0v-9.19H241.11Z"/><path class="cls-1" d="M241.11,302.53h-4.33v9.19h0c0,.17,0,.34,0,.51,0,12.49,20.11,22.61,44.91,22.61s44.91-10.12,44.91-22.61c0-.17,0-.34,0-.51h0v-9.19H241.11Z"/><path class="cls-3" d="M241.11,302.53h-4.33v9.19h0c0,.17,0,.34,0,.51,0,12.49,20.11,22.61,44.91,22.61s44.91-10.12,44.91-22.61c0-.17,0-.34,0-.51h0v-9.19H241.11Z"/><g class="cls-7"><line class="cls-1" x1="241.11" y1="302.53" x2="241.11" y2="334.84"/><line class="cls-1" x1="247.34" y1="302.53" x2="247.34" y2="334.84"/><line class="cls-1" x1="253.56" y1="302.53" x2="253.56" y2="334.84"/><line class="cls-1" x1="259.79" y1="302.53" x2="259.79" y2="334.84"/><line class="cls-1" x1="266.02" y1="302.53" x2="266.02" y2="334.84"/><line class="cls-1" x1="272.24" y1="302.53" x2="272.24" y2="334.84"/><line class="cls-1" x1="278.47" y1="302.53" x2="278.47" y2="334.84"/><line class="cls-1" x1="284.7" y1="302.53" x2="284.7" y2="334.84"/><line class="cls-1" x1="290.92" y1="302.53" x2="290.92" y2="334.84"/><line class="cls-1" x1="297.15" y1="302.53" x2="297.15" y2="334.84"/><line class="cls-1" x1="303.38" y1="302.53" x2="303.38" y2="334.84"/><line class="cls-1" x1="309.6" y1="302.53" x2="309.6" y2="334.84"/><line class="cls-1" x1="315.83" y1="302.53" x2="315.83" y2="334.84"/><line class="cls-1" x1="322.06" y1="302.53" x2="322.06" y2="334.84"/></g><path class="cls-5" d="M241.11,302.53h-4.33v9.19h0c0,.17,0,.34,0,.51,0,12.49,20.11,22.61,44.91,22.61s44.91-10.12,44.91-22.61c0-.17,0-.34,0-.51h0v-9.19H241.11Z"/><ellipse class="cls-1" cx="281.69" cy="302.53" rx="44.91" ry="22.62"/><path class="cls-1" d="M241.11,286.34h-4.33v9.19h0c0,.17,0,.34,0,.51,0,12.49,20.11,22.61,44.91,22.61S326.6,308.53,326.6,296c0-.17,0-.34,0-.51h0v-9.19H241.11Z"/><path class="cls-1" d="M241.11,286.34h-4.33v9.19h0c0,.17,0,.34,0,.51,0,12.49,20.11,22.61,44.91,22.61S326.6,308.53,326.6,296c0-.17,0-.34,0-.51h0v-9.19H241.11Z"/><path class="cls-3" d="M241.11,286.34h-4.33v9.19h0c0,.17,0,.34,0,.51,0,12.49,20.11,22.61,44.91,22.61S326.6,308.53,326.6,296c0-.17,0-.34,0-.51h0v-9.19H241.11Z"/><g class="cls-8"><line class="cls-1" x1="241.11" y1="286.34" x2="241.11" y2="318.65"/><line class="cls-1" x1="247.34" y1="286.34" x2="247.34" y2="318.65"/><line class="cls-1" x1="253.56" y1="286.34" x2="253.56" y2="318.65"/><line class="cls-1" x1="259.79" y1="286.34" x2="259.79" y2="318.65"/><line class="cls-1" x1="266.02" y1="286.34" x2="266.02" y2="318.65"/><line class="cls-1" x1="272.24" y1="286.34" x2="272.24" y2="318.65"/><line class="cls-1" x1="278.47" y1="286.34" x2="278.47" y2="318.65"/><line class="cls-1" x1="284.7" y1="286.34" x2="284.7" y2="318.65"/><line class="cls-1" x1="290.92" y1="286.34" x2="290.92" y2="318.65"/><line class="cls-1" x1="297.15" y1="286.34" x2="297.15" y2="318.65"/><line class="cls-1" x1="303.38" y1="286.34" x2="303.38" y2="318.65"/><line class="cls-1" x1="309.6" y1="286.34" x2="309.6" y2="318.65"/><line class="cls-1" x1="315.83" y1="286.34" x2="315.83" y2="318.65"/><line class="cls-1" x1="322.06" y1="286.34" x2="322.06" y2="318.65"/></g><path class="cls-5" d="M241.11,286.34h-4.33v9.19h0c0,.17,0,.34,0,.51,0,12.49,20.11,22.61,44.91,22.61S326.6,308.53,326.6,296c0-.17,0-.34,0-.51h0v-9.19H241.11Z"/><ellipse class="cls-1" cx="281.69" cy="286.34" rx="44.91" ry="22.62"/><path class="cls-1" d="M241.11,270.15h-4.33v9.19h0c0,.17,0,.34,0,.51,0,12.49,20.11,22.61,44.91,22.61s44.91-10.12,44.91-22.61c0-.17,0-.34,0-.51h0v-9.19H241.11Z"/><path class="cls-1" d="M241.11,270.15h-4.33v9.19h0c0,.17,0,.34,0,.51,0,12.49,20.11,22.61,44.91,22.61s44.91-10.12,44.91-22.61c0-.17,0-.34,0-.51h0v-9.19H241.11Z"/><path class="cls-3" d="M241.11,270.15h-4.33v9.19h0c0,.17,0,.34,0,.51,0,12.49,20.11,22.61,44.91,22.61s44.91-10.12,44.91-22.61c0-.17,0-.34,0-.51h0v-9.19H241.11Z"/><g class="cls-9"><line class="cls-1" x1="241.11" y1="270.15" x2="241.11" y2="302.46"/><line class="cls-1" x1="247.34" y1="270.15" x2="247.34" y2="302.46"/><line class="cls-1" x1="253.56" y1="270.15" x2="253.56" y2="302.46"/><line class="cls-1" x1="259.79" y1="270.15" x2="259.79" y2="302.46"/><line class="cls-1" x1="266.02" y1="270.15" x2="266.02" y2="302.46"/><line class="cls-1" x1="272.24" y1="270.15" x2="272.24" y2="302.46"/><line class="cls-1" x1="278.47" y1="270.15" x2="278.47" y2="302.46"/><line class="cls-1" x1="284.7" y1="270.15" x2="284.7" y2="302.46"/><line class="cls-1" x1="290.92" y1="270.15" x2="290.92" y2="302.46"/><line class="cls-1" x1="297.15" y1="270.15" x2="297.15" y2="302.46"/><line class="cls-1" x1="303.38" y1="270.15" x2="303.38" y2="302.46"/><line class="cls-1" x1="309.6" y1="270.15" x2="309.6" y2="302.46"/><line class="cls-1" x1="315.83" y1="270.15" x2="315.83" y2="302.46"/><line class="cls-1" x1="322.06" y1="270.15" x2="322.06" y2="302.46"/></g><path class="cls-5" d="M241.11,270.15h-4.33v9.19h0c0,.17,0,.34,0,.51,0,12.49,20.11,22.61,44.91,22.61s44.91-10.12,44.91-22.61c0-.17,0-.34,0-.51h0v-9.19H241.11Z"/><ellipse class="cls-1" cx="281.69" cy="270.15" rx="44.91" ry="22.62"/><path class="cls-1" d="M241.11,254h-4.33v9.19h0c0,.16,0,.33,0,.5,0,12.49,20.11,22.61,44.91,22.61s44.91-10.12,44.91-22.61c0-.17,0-.34,0-.5h0V254H241.11Z"/><path class="cls-1" d="M241.11,254h-4.33v9.19h0c0,.16,0,.33,0,.5,0,12.49,20.11,22.61,44.91,22.61s44.91-10.12,44.91-22.61c0-.17,0-.34,0-.5h0V254H241.11Z"/><path class="cls-3" d="M241.11,254h-4.33v9.19h0c0,.16,0,.33,0,.5,0,12.49,20.11,22.61,44.91,22.61s44.91-10.12,44.91-22.61c0-.17,0-.34,0-.5h0V254H241.11Z"/><g class="cls-10"><line class="cls-1" x1="241.11" y1="253.97" x2="241.11" y2="286.27"/><line class="cls-1" x1="247.34" y1="253.97" x2="247.34" y2="286.27"/><line class="cls-1" x1="253.56" y1="253.97" x2="253.56" y2="286.27"/><line class="cls-1" x1="259.79" y1="253.97" x2="259.79" y2="286.27"/><line class="cls-1" x1="266.02" y1="253.97" x2="266.02" y2="286.27"/><line class="cls-1" x1="272.24" y1="253.97" x2="272.24" y2="286.27"/><line class="cls-1" x1="278.47" y1="253.97" x2="278.47" y2="286.27"/><line class="cls-1" x1="284.7" y1="253.97" x2="284.7" y2="286.27"/><line class="cls-1" x1="290.92" y1="253.97" x2="290.92" y2="286.27"/><line class="cls-1" x1="297.15" y1="253.97" x2="297.15" y2="286.27"/><line class="cls-1" x1="303.38" y1="253.97" x2="303.38" y2="286.27"/><line class="cls-1" x1="309.6" y1="253.97" x2="309.6" y2="286.27"/><line class="cls-1" x1="315.83" y1="253.97" x2="315.83" y2="286.27"/><line class="cls-1" x1="322.06" y1="253.97" x2="322.06" y2="286.27"/></g><path class="cls-5" d="M241.11,254h-4.33v9.19h0c0,.16,0,.33,0,.5,0,12.49,20.11,22.61,44.91,22.61s44.91-10.12,44.91-22.61c0-.17,0-.34,0-.5h0V254H241.11Z"/><ellipse class="cls-1" cx="281.69" cy="253.97" rx="44.91" ry="22.62"/><path class="cls-1" d="M241.11,237.78h-4.33V247h0c0,.16,0,.33,0,.5,0,12.49,20.11,22.62,44.91,22.62S326.6,260,326.6,247.47c0-.17,0-.34,0-.5h0v-9.19H241.11Z"/><path class="cls-1" d="M241.11,237.78h-4.33V247h0c0,.16,0,.33,0,.5,0,12.49,20.11,22.62,44.91,22.62S326.6,260,326.6,247.47c0-.17,0-.34,0-.5h0v-9.19H241.11Z"/><path class="cls-3" d="M241.11,237.78h-4.33V247h0c0,.16,0,.33,0,.5,0,12.49,20.11,22.62,44.91,22.62S326.6,260,326.6,247.47c0-.17,0-.34,0-.5h0v-9.19H241.11Z"/><g class="cls-11"><line class="cls-1" x1="241.11" y1="237.78" x2="241.11" y2="270.09"/><line class="cls-1" x1="247.34" y1="237.78" x2="247.34" y2="270.09"/><line class="cls-1" x1="253.56" y1="237.78" x2="253.56" y2="270.09"/><line class="cls-1" x1="259.79" y1="237.78" x2="259.79" y2="270.09"/><line class="cls-1" x1="266.02" y1="237.78" x2="266.02" y2="270.09"/><line class="cls-1" x1="272.24" y1="237.78" x2="272.24" y2="270.09"/><line class="cls-1" x1="278.47" y1="237.78" x2="278.47" y2="270.09"/><line class="cls-1" x1="284.7" y1="237.78" x2="284.7" y2="270.09"/><line class="cls-1" x1="290.92" y1="237.78" x2="290.92" y2="270.09"/><line class="cls-1" x1="297.15" y1="237.78" x2="297.15" y2="270.09"/><line class="cls-1" x1="303.38" y1="237.78" x2="303.38" y2="270.09"/><line class="cls-1" x1="309.6" y1="237.78" x2="309.6" y2="270.09"/><line class="cls-1" x1="315.83" y1="237.78" x2="315.83" y2="270.09"/><line class="cls-1" x1="322.06" y1="237.78" x2="322.06" y2="270.09"/></g><path class="cls-5" d="M241.11,237.78h-4.33V247h0c0,.16,0,.33,0,.5,0,12.49,20.11,22.62,44.91,22.62S326.6,260,326.6,247.47c0-.17,0-.34,0-.5h0v-9.19H241.11Z"/><ellipse class="cls-1" cx="281.69" cy="237.78" rx="44.91" ry="22.62"/><path class="cls-1" d="M241.11,221.59h-4.33v9.19h0c0,.17,0,.33,0,.5,0,12.49,20.11,22.62,44.91,22.62s44.91-10.13,44.91-22.62c0-.17,0-.33,0-.5h0v-9.19H241.11Z"/><path class="cls-1" d="M241.11,221.59h-4.33v9.19h0c0,.17,0,.33,0,.5,0,12.49,20.11,22.62,44.91,22.62s44.91-10.13,44.91-22.62c0-.17,0-.33,0-.5h0v-9.19H241.11Z"/><path class="cls-3" d="M241.11,221.59h-4.33v9.19h0c0,.17,0,.33,0,.5,0,12.49,20.11,22.62,44.91,22.62s44.91-10.13,44.91-22.62c0-.17,0-.33,0-.5h0v-9.19H241.11Z"/><g class="cls-12"><line class="cls-1" x1="241.11" y1="221.59" x2="241.11" y2="253.9"/><line class="cls-1" x1="247.34" y1="221.59" x2="247.34" y2="253.9"/><line class="cls-1" x1="253.56" y1="221.59" x2="253.56" y2="253.9"/><line class="cls-1" x1="259.79" y1="221.59" x2="259.79" y2="253.9"/><line class="cls-1" x1="266.02" y1="221.59" x2="266.02" y2="253.9"/><line class="cls-1" x1="272.24" y1="221.59" x2="272.24" y2="253.9"/><line class="cls-1" x1="278.47" y1="221.59" x2="278.47" y2="253.9"/><line class="cls-1" x1="284.7" y1="221.59" x2="284.7" y2="253.9"/><line class="cls-1" x1="290.92" y1="221.59" x2="290.92" y2="253.9"/><line class="cls-1" x1="297.15" y1="221.59" x2="297.15" y2="253.9"/><line class="cls-1" x1="303.38" y1="221.59" x2="303.38" y2="253.9"/><line class="cls-1" x1="309.6" y1="221.59" x2="309.6" y2="253.9"/><line class="cls-1" x1="315.83" y1="221.59" x2="315.83" y2="253.9"/><line class="cls-1" x1="322.06" y1="221.59" x2="322.06" y2="253.9"/></g><path class="cls-5" d="M241.11,221.59h-4.33v9.19h0c0,.17,0,.33,0,.5,0,12.49,20.11,22.62,44.91,22.62s44.91-10.13,44.91-22.62c0-.17,0-.33,0-.5h0v-9.19H241.11Z"/><ellipse class="cls-1" cx="281.69" cy="221.59" rx="44.91" ry="22.62"/><path class="cls-1" d="M241.11,205.4h-4.33v9.19h0c0,.17,0,.33,0,.5,0,12.49,20.11,22.62,44.91,22.62s44.91-10.13,44.91-22.62c0-.17,0-.33,0-.5h0V205.4H241.11Z"/><path class="cls-1" d="M241.11,205.4h-4.33v9.19h0c0,.17,0,.33,0,.5,0,12.49,20.11,22.62,44.91,22.62s44.91-10.13,44.91-22.62c0-.17,0-.33,0-.5h0V205.4H241.11Z"/><path class="cls-3" d="M241.11,205.4h-4.33v9.19h0c0,.17,0,.33,0,.5,0,12.49,20.11,22.62,44.91,22.62s44.91-10.13,44.91-22.62c0-.17,0-.33,0-.5h0V205.4H241.11Z"/><g class="cls-13"><line class="cls-1" x1="241.11" y1="205.4" x2="241.11" y2="237.71"/><line class="cls-1" x1="247.34" y1="205.4" x2="247.34" y2="237.71"/><line class="cls-1" x1="253.56" y1="205.4" x2="253.56" y2="237.71"/><line class="cls-1" x1="259.79" y1="205.4" x2="259.79" y2="237.71"/><line class="cls-1" x1="266.02" y1="205.4" x2="266.02" y2="237.71"/><line class="cls-1" x1="272.24" y1="205.4" x2="272.24" y2="237.71"/><line class="cls-1" x1="278.47" y1="205.4" x2="278.47" y2="237.71"/><line class="cls-1" x1="284.7" y1="205.4" x2="284.7" y2="237.71"/><line class="cls-1" x1="290.92" y1="205.4" x2="290.92" y2="237.71"/><line class="cls-1" x1="297.15" y1="205.4" x2="297.15" y2="237.71"/><line class="cls-1" x1="303.38" y1="205.4" x2="303.38" y2="237.71"/><line class="cls-1" x1="309.6" y1="205.4" x2="309.6" y2="237.71"/><line class="cls-1" x1="315.83" y1="205.4" x2="315.83" y2="237.71"/><line class="cls-1" x1="322.06" y1="205.4" x2="322.06" y2="237.71"/></g><path class="cls-5" d="M241.11,205.4h-4.33v9.19h0c0,.17,0,.33,0,.5,0,12.49,20.11,22.62,44.91,22.62s44.91-10.13,44.91-22.62c0-.17,0-.33,0-.5h0V205.4H241.11Z"/><ellipse class="cls-1" cx="281.69" cy="205.4" rx="44.91" ry="22.62"/><path class="cls-1" d="M310.19,352.91h-4.33v9.19h0c0,.17,0,.33,0,.5,0,12.49,20.1,22.62,44.91,22.62s44.91-10.13,44.91-22.62c0-.17,0-.33,0-.5h0v-9.19H310.19Z"/><path class="cls-1" d="M310.19,352.91h-4.33v9.19h0c0,.17,0,.33,0,.5,0,12.49,20.1,22.62,44.91,22.62s44.91-10.13,44.91-22.62c0-.17,0-.33,0-.5h0v-9.19H310.19Z"/><path class="cls-3" d="M310.19,352.91h-4.33v9.19h0c0,.17,0,.33,0,.5,0,12.49,20.1,22.62,44.91,22.62s44.91-10.13,44.91-22.62c0-.17,0-.33,0-.5h0v-9.19H310.19Z"/><g class="cls-14"><line class="cls-1" x1="310.19" y1="352.91" x2="310.19" y2="385.22"/><line class="cls-1" x1="316.41" y1="352.91" x2="316.41" y2="385.22"/><line class="cls-1" x1="322.64" y1="352.91" x2="322.64" y2="385.22"/><line class="cls-1" x1="328.87" y1="352.91" x2="328.87" y2="385.22"/><line class="cls-1" x1="335.09" y1="352.91" x2="335.09" y2="385.22"/><line class="cls-1" x1="341.32" y1="352.91" x2="341.32" y2="385.22"/><line class="cls-1" x1="347.55" y1="352.91" x2="347.55" y2="385.22"/><line class="cls-1" x1="353.77" y1="352.91" x2="353.77" y2="385.22"/><line class="cls-1" x1="360" y1="352.91" x2="360" y2="385.22"/><line class="cls-1" x1="366.23" y1="352.91" x2="366.23" y2="385.22"/><line class="cls-1" x1="372.45" y1="352.91" x2="372.45" y2="385.22"/><line class="cls-1" x1="378.68" y1="352.91" x2="378.68" y2="385.22"/><line class="cls-1" x1="384.91" y1="352.91" x2="384.91" y2="385.22"/><line class="cls-1" x1="391.13" y1="352.91" x2="391.13" y2="385.22"/></g><path class="cls-5" d="M310.19,352.91h-4.33v9.19h0c0,.17,0,.33,0,.5,0,12.49,20.1,22.62,44.91,22.62s44.91-10.13,44.91-22.62c0-.17,0-.33,0-.5h0v-9.19H310.19Z"/><ellipse class="cls-1" cx="350.77" cy="352.91" rx="44.91" ry="22.62"/><path class="cls-1" d="M310.19,338.8h-4.33V348h0c0,.17,0,.33,0,.5,0,12.49,20.1,22.62,44.91,22.62s44.91-10.13,44.91-22.62c0-.17,0-.33,0-.5h0V338.8H310.19Z"/><path class="cls-1" d="M310.19,338.8h-4.33V348h0c0,.17,0,.33,0,.5,0,12.49,20.1,22.62,44.91,22.62s44.91-10.13,44.91-22.62c0-.17,0-.33,0-.5h0V338.8H310.19Z"/><path class="cls-3" d="M310.19,338.8h-4.33V348h0c0,.17,0,.33,0,.5,0,12.49,20.1,22.62,44.91,22.62s44.91-10.13,44.91-22.62c0-.17,0-.33,0-.5h0V338.8H310.19Z"/><g class="cls-15"><line class="cls-1" x1="310.19" y1="338.8" x2="310.19" y2="371.11"/><line class="cls-1" x1="316.41" y1="338.8" x2="316.41" y2="371.11"/><line class="cls-1" x1="322.64" y1="338.8" x2="322.64" y2="371.11"/><line class="cls-1" x1="328.87" y1="338.8" x2="328.87" y2="371.11"/><line class="cls-1" x1="335.09" y1="338.8" x2="335.09" y2="371.11"/><line class="cls-1" x1="341.32" y1="338.8" x2="341.32" y2="371.11"/><line class="cls-1" x1="347.55" y1="338.8" x2="347.55" y2="371.11"/><line class="cls-1" x1="353.77" y1="338.8" x2="353.77" y2="371.11"/><line class="cls-1" x1="360" y1="338.8" x2="360" y2="371.11"/><line class="cls-1" x1="366.23" y1="338.8" x2="366.23" y2="371.11"/><line class="cls-1" x1="372.45" y1="338.8" x2="372.45" y2="371.11"/><line class="cls-1" x1="378.68" y1="338.8" x2="378.68" y2="371.11"/><line class="cls-1" x1="384.91" y1="338.8" x2="384.91" y2="371.11"/><line class="cls-1" x1="391.13" y1="338.8" x2="391.13" y2="371.11"/></g><path class="cls-5" d="M310.19,338.8h-4.33V348h0c0,.17,0,.33,0,.5,0,12.49,20.1,22.62,44.91,22.62s44.91-10.13,44.91-22.62c0-.17,0-.33,0-.5h0V338.8H310.19Z"/><ellipse class="cls-1" cx="350.77" cy="338.8" rx="44.91" ry="22.62"/><path class="cls-1" d="M175.74,343.26,172,345.47l4.68,7.9h0a4.78,4.78,0,0,0,.23.45c6.36,10.75,28.82,9.22,50.17-3.41s33.49-31.59,27.13-42.34c-.09-.14-.19-.27-.28-.42h0l-4.68-7.91-3.72,2.21Z"/><path class="cls-1" d="M175.74,343.26,172,345.47l4.68,7.9h0a4.78,4.78,0,0,0,.23.45c6.36,10.75,28.82,9.22,50.17-3.41s33.49-31.59,27.13-42.34c-.09-.14-.19-.27-.28-.42h0l-4.68-7.91-3.72,2.21Z"/><path class="cls-3" d="M175.74,343.26,172,345.47l4.68,7.9h0a4.78,4.78,0,0,0,.23.45c6.36,10.75,28.82,9.22,50.17-3.41s33.49-31.59,27.13-42.34c-.09-.14-.19-.27-.28-.42h0l-4.68-7.91-3.72,2.21Z"/><g class="cls-16"><line class="cls-1" x1="175.74" y1="343.26" x2="192.19" y2="371.07"/><line class="cls-1" x1="181.1" y1="340.09" x2="197.55" y2="367.9"/><line class="cls-1" x1="186.46" y1="336.92" x2="202.91" y2="364.72"/><line class="cls-1" x1="191.81" y1="333.75" x2="208.27" y2="361.55"/><line class="cls-1" x1="197.17" y1="330.58" x2="213.63" y2="358.38"/><line class="cls-1" x1="202.53" y1="327.41" x2="218.99" y2="355.21"/><line class="cls-1" x1="207.89" y1="324.24" x2="224.34" y2="352.04"/><line class="cls-1" x1="213.25" y1="321.06" x2="229.7" y2="348.87"/><line class="cls-1" x1="218.61" y1="317.89" x2="235.06" y2="345.7"/><line class="cls-1" x1="223.97" y1="314.72" x2="240.42" y2="342.53"/><line class="cls-1" x1="229.32" y1="311.55" x2="245.78" y2="339.36"/><line class="cls-1" x1="234.68" y1="308.38" x2="251.14" y2="336.18"/><line class="cls-1" x1="240.04" y1="305.21" x2="256.5" y2="333.01"/><line class="cls-1" x1="245.4" y1="302.04" x2="261.85" y2="329.84"/></g><path class="cls-5" d="M175.74,343.26,172,345.47l4.68,7.9h0a4.78,4.78,0,0,0,.23.45c6.36,10.75,28.82,9.22,50.17-3.41s33.49-31.59,27.13-42.34c-.09-.14-.19-.27-.28-.42h0l-4.68-7.91-3.72,2.21Z"/><ellipse class="cls-1" cx="210.66" cy="322.59" rx="44.91" ry="22.62" transform="translate(-134.93 152.26) rotate(-30.62)"/></svg>