<svg width="97" height="117" viewBox="0 0 97 117" fill="none" xmlns="http://www.w3.org/2000/svg">
<path d="M62.1512 57.0481C66.9562 51.7252 72.3106 43.6101 72.7061 35.7926M72.7061 35.7926C72.8364 33.2171 72.4285 30.6739 71.2854 28.2735C68.6619 22.7647 60.8859 18.2638 55.7108 23.5757C52.9306 26.4295 56.5158 32.0741 58.8722 34.0379C63.1205 37.5783 68.2214 37.7618 72.7061 35.7926ZM72.7061 35.7926C74.8607 34.8466 76.873 33.4036 78.5803 31.5974C83.1632 26.7487 83.9753 16.981 81.3197 11.074C80.5205 9.29647 79.9018 7.47555 78.6175 6.0071C78.3081 5.65336 78.0802 5.5546 77.9102 5.62545M77.9102 5.62545C77.6465 5.73529 77.5219 6.25282 77.4481 6.85989M77.9102 5.62545C77.7678 6.00701 77.6099 6.42727 77.4481 6.85989M77.9102 5.62545C78.0652 5.21005 78.2018 4.8406 78.3048 4.55108C79.508 1.17188 83.2443 4.87331 85.9611 4.51643M77.4481 6.85989C77.358 7.60123 77.3438 8.47611 77.2448 8.90511C77.0279 9.84582 76.8995 9.9212 76.3895 10.7101C75.5423 12.0206 76.5539 9.25147 77.4481 6.85989Z" stroke="#FF583E" stroke-width="2" stroke-linecap="round"/>
<path d="M22.1656 78.4726C25.0253 78.7296 26.6916 77.0296 26.9786 73.8362L27.7797 64.9233L24.7531 64.6513L24.012 72.8969C23.8278 74.9464 23.0229 75.883 21.3548 75.7331C19.8772 75.6003 18.5354 74.759 18.6746 73.21L19.4864 64.1779L16.4598 63.9059L15.2326 77.5612L18.2591 77.8332L18.454 75.6646L18.5732 75.6753C18.932 77.0289 19.8778 78.267 22.1656 78.4726Z" fill="#FF583E"/>
<path d="M35.3683 79.3709L38.4187 79.6451L39.2433 70.47C39.5196 67.3958 37.8843 65.5432 34.7148 65.2583C32.2601 65.0377 30.5778 65.8474 29.4334 67.3542L31.2073 69.2673C31.9365 68.3719 32.9344 67.6928 34.3166 67.8171C35.7227 67.9434 36.315 68.8375 36.18 70.3389L35.3683 79.3709Z" fill="#FF583E"/>
<path d="M45.9516 80.3221L48.2871 80.532L48.5162 77.982L46.2046 77.7743L47.117 67.6222C47.4297 64.1428 46.6433 61.934 44.5239 61.191L44.5325 61.0957L51.2052 61.6954L51.4322 59.1693L42.0189 58.3232L41.7876 60.897C43.5535 61.296 44.4888 62.9175 44.2318 65.7773L43.2145 77.0971C43.0474 78.956 43.9259 80.14 45.9516 80.3221Z" fill="#FF583E"/>
<path d="M50.7002 80.7489L53.7267 81.0209L54.3243 74.3719L57.2555 74.6354C58.6854 74.7639 59.3058 75.6124 59.1559 77.2806L58.779 81.4749L61.734 81.7405L62.1667 76.9266C62.3766 74.5911 61.4544 73.0909 59.6017 72.588L59.6124 72.4689C61.0744 72.2399 62.5249 71.3372 62.7026 69.3592L62.8183 68.0724L59.7202 67.7939L59.5232 69.9864C59.3925 71.4401 58.6332 72.4049 56.9173 72.2507L54.5342 72.0365L54.954 67.3656L51.9274 67.0936L50.7002 80.7489Z" fill="#FF583E"/>
<path d="M69.2502 82.7043C72.8725 83.0299 75.017 80.8202 75.4433 76.0778C75.8673 71.3592 74.1274 68.8005 70.505 68.4749C67.9551 68.2457 66.0304 69.346 65.0359 71.3227L67.5979 72.7541C68.0063 71.6857 68.8178 70.9419 70.1762 71.064C71.7729 71.2075 72.6234 72.437 72.4435 74.4389L72.1993 77.1556C72.0172 79.1813 70.9612 80.2395 69.3645 80.096C67.8631 79.9611 67.3227 79.0236 66.9966 77.8412L64.32 78.7537C64.9702 81.1425 66.7717 82.4816 69.2502 82.7043Z" fill="#FF583E"/>
<path d="M82.3635 83.5946L83.7457 83.7188L83.9749 81.1689L83.0217 81.0832C81.0913 80.9097 80.4969 80.0395 80.7153 77.6087L80.9252 75.2732C81.0966 73.3667 81.7735 72.2504 82.8221 72.3446L84.1454 74.1933L84.193 74.1976L85.8486 72.6166C86.7001 72.7652 86.9368 73.3391 86.7912 74.9596L85.9859 83.9201L89.0363 84.1943L89.8951 74.638C90.1671 71.6114 88.4781 70.0902 86.0949 69.876L84.4265 71.6L84.3788 71.5957L83.0445 69.6019C80.0418 69.332 78.1808 71.3269 77.7525 76.0932C77.2941 81.193 78.5505 83.2519 82.3635 83.5946Z" fill="#FF583E"/>
<path d="M16.7634 87.6687C13.1411 87.3431 10.721 89.1436 10.4019 92.6945L10.3034 93.7907L13.5206 94.0798L13.5099 94.199C12.0543 94.3565 10.5778 95.2808 10.3829 97.4495L10.0531 101.119L13.1035 101.394L13.4612 97.4138C13.6668 95.126 14.435 94.3302 15.9926 94.3741L16.1811 92.2769L13.4405 92.0306C13.7813 90.6439 14.8227 90.0167 16.4432 90.1624C18.302 90.3294 19.2325 91.4701 19.0569 93.4243L18.2987 101.861L21.3491 102.135L22.0945 93.8414C22.4136 90.2906 20.6479 88.0178 16.7634 87.6687Z" fill="#FF583E"/>
<path d="M20.1667 86.4851L24.8138 86.9027L25.0172 84.6387L19.8935 84.1783L20.0649 82.2718L17.3481 82.0276L17.2539 83.0762C17.059 85.2448 18.0457 86.2944 20.1667 86.4851Z" fill="#FF583E"/>
<path d="M29.0935 103.119C31.2622 103.314 32.4893 102.223 33.1119 100.91L33.231 100.92L33.0275 103.184L36.0541 103.456L37.2814 89.801L34.2548 89.529L33.4409 98.5849C33.3038 100.11 31.8097 100.696 30.4037 100.57C28.7593 100.422 28.1343 99.3572 28.3142 97.3553L29.0596 89.0621L26.0092 88.7879L25.2274 97.4863C24.9276 100.823 26.3529 102.873 29.0935 103.119Z" fill="#FF583E"/>
<path d="M42.8937 104.071L45.0623 104.266L45.2915 101.716L43.1467 101.523L44.1448 90.4178L41.1182 90.1458L40.1565 100.846C39.9895 102.705 40.868 103.889 42.8937 104.071Z" fill="#FF583E"/>
<path d="M54.0457 91.0194C50.3281 90.6853 47.9795 92.4922 47.6604 96.043L47.5618 97.1393L50.5884 97.4113L50.5777 97.5304C48.8059 97.7316 47.6588 98.7336 47.4746 100.783L47.436 101.212C47.2476 103.309 48.2172 104.549 50.4096 104.746L52.34 104.92L52.5606 102.465L50.3681 102.268L50.5052 100.743C50.7108 98.4553 51.5028 97.6616 53.2511 97.7227L53.4396 95.6255L50.6751 95.3771C51.0139 94.0141 52.0573 93.3632 53.7255 93.5131C55.5844 93.6802 56.5387 94.823 56.3631 96.7771L55.6049 105.213L58.6314 105.485L59.3768 97.1921C59.6959 93.6413 57.9302 91.3685 54.0457 91.0194Z" fill="#FF583E"/>
<path d="M67.1152 106.536C71.0473 106.89 73.2826 104.472 73.7002 99.8248C74.0965 95.416 72.3021 92.6602 68.2747 92.2982C65.6532 92.0626 63.672 92.9896 62.5844 94.9339L65.088 96.4802C65.6632 95.4268 66.6178 94.6958 68.0953 94.8286C69.9303 94.9935 70.796 96.3206 70.614 98.3462L70.3484 101.301C70.1706 103.279 69.1231 104.242 67.3358 104.082C65.5246 103.919 64.7047 102.884 64.8803 100.93L64.9253 100.43L67.1892 100.633L67.4034 98.2499L64.925 98.0271C63.1853 97.8708 62.1225 98.7362 61.9533 100.619L61.9383 100.786C61.6428 104.074 63.6358 106.223 67.1152 106.536Z" fill="#FF583E"/>
<path d="M79.3388 99.3706L83.7714 99.769L84.0091 97.1237L79.5289 96.721L79.7281 94.5047L76.8185 94.2673L76.6536 96.1023C76.4715 98.1279 77.4561 99.2014 79.3388 99.3706ZM78.7134 106.329L83.146 106.728L83.3837 104.082L78.9035 103.68L79.1026 101.463L76.1931 101.226L76.0282 103.061C75.8461 105.087 76.8307 106.16 78.7134 106.329Z" fill="#FF583E"/>
<path d="M87.7681 103.107L89.1026 103.227L90.6358 96.3259L91.0577 91.6311L87.8881 91.3463L87.4662 96.041L87.7681 103.107ZM87.9403 108.408C89.2749 108.528 89.9111 107.864 89.9967 106.911L90.0396 106.434C90.1274 105.457 89.6176 104.715 88.283 104.595C86.9485 104.475 86.3144 105.115 86.2266 106.092L86.1837 106.568C86.0981 107.522 86.6058 108.288 87.9403 108.408Z" fill="#FF583E"/>
</svg>
