<svg id="Layer_1" data-name="Layer 1" xmlns="http://www.w3.org/2000/svg" viewBox="0 0 35 35"><defs><style>.cls-1{fill:none;stroke:#fff;stroke-linecap:round;stroke-linejoin:round;stroke-width:1.5px;}.cls-2{fill:#fff;}</style></defs><path class="cls-1" d="M16.51,13.55a1.37,1.37,0,0,0-1.59-1.11h0c-.05-.32-.07-.63-.14-.93a5.32,5.32,0,0,0-10.46,1.9,8.24,8.24,0,0,0,.21.93h0A1.37,1.37,0,0,0,4.92,17a2.36,2.36,0,0,0,.52-.21c1,2,2.78,3.51,5.39,3s3.73-2.56,4-4.74a.92.92,0,0,0,.52,0A1.38,1.38,0,0,0,16.51,13.55Z"/><path class="cls-2" d="M14,12.69l.89-.16c-.05-.38-.09-.74-.14-1.08a5.47,5.47,0,0,0-.81-2v0a5.29,5.29,0,0,0-3.2-2.15,2.53,2.53,0,0,0,.19-1.5,2.56,2.56,0,0,0-5,.91A2.64,2.64,0,0,0,6.57,8a5.29,5.29,0,0,0-2.24,3.12l0,0a5.44,5.44,0,0,0-.07,2.17c.07.34.14.71.25,1.07l.89-.16L5.94,12c1-.25,2.8-.88,3.07-2.42.8,1.36,2.7,1.31,3.74,1.2Z"/><path class="cls-1" d="M30.7,13c.09-.31.13-.63.2-.92a5.31,5.31,0,1,0-10.46-1.81c0,.29-.09.61-.11.95a1.37,1.37,0,0,0-.27,2.71,1.23,1.23,0,0,0,.32,0c.31,2.15,1.42,4.18,4,4.64s4.35-1.09,5.37-3a1.93,1.93,0,0,0,.34.11,1.37,1.37,0,0,0,1.58-1.11A1.4,1.4,0,0,0,30.7,13Z"/><path class="cls-2" d="M26.58,5.92a5.3,5.3,0,0,0-5,1.79l9,1.56A5.25,5.25,0,0,0,26.58,5.92Z"/><path class="cls-1" d="M23.45,25.52h0c.07-.31.14-.63.18-.92a5.31,5.31,0,1,0-10.5-1.54A9,9,0,0,0,13,24H13a1.37,1.37,0,0,0-.4,2.72,1.61,1.61,0,0,0,.54,0c.36,2.17,1.49,4.21,4.14,4.59s4.35-1.22,5.32-3.19a1.31,1.31,0,0,0,.5.18,1.37,1.37,0,0,0,1.56-1.15A1.39,1.39,0,0,0,23.45,25.52Z"/><path class="cls-2" d="M23.27,21.81a0,0,0,0,0,0,0,.13.13,0,0,0,0-.07,1.59,1.59,0,0,1-.12-.27s0,0,0-.05a5.29,5.29,0,0,0-8.53-1.29l0,0a2.3,2.3,0,0,0-.2.22s0,.05,0,.07l0,0A5.41,5.41,0,0,0,13.11,23c0,.34-.09.7-.11,1.09l.88.13L15,22.47c1,.11,3.8.27,5.7-.95a2.44,2.44,0,0,0,1.27,1.92l.54,2.08.88.14a10.46,10.46,0,0,0,.21-1.09A5,5,0,0,0,23.27,21.81Z"/></svg>