<svg id="Layer_1" data-name="Layer 1" xmlns="http://www.w3.org/2000/svg" viewBox="0 0 35 35"><defs><style>.cls-1{fill:none;stroke:#fff;stroke-linecap:round;stroke-linejoin:round;stroke-width:1.5px;}</style></defs><path class="cls-1" d="M28.23,8.79a21.55,21.55,0,0,1-9.59-4.88,1.69,1.69,0,0,0-2.21,0A21.67,21.67,0,0,1,6.81,8.79,1.48,1.48,0,0,0,5.59,10.1c-1.1,14.76,8.53,20.06,11.22,21.25a1.66,1.66,0,0,0,1.38,0c2.7-1.19,12.32-6.49,11.22-21.25A1.46,1.46,0,0,0,28.23,8.79Z"/><path class="cls-1" d="M11.8,15V23H22.6V15L17.13,10.4Z"/><path class="cls-1" d="M10,16.25l7.15-5.85,7.25,5.76"/></svg>