<svg id="Layer_1" data-name="Layer 1" xmlns="http://www.w3.org/2000/svg" viewBox="0 0 35 35"><defs><style>.cls-1{fill:#fff;}.cls-2{fill:none;stroke:#fff;stroke-linecap:round;stroke-linejoin:round;stroke-width:1.5px;}</style></defs><path class="cls-1" d="M21.11,27.36c.05-.43-.11-.63-.61-.63H17.6c-1,0-2,0-3,0-1.29,0-.36,1.95-.09,2.49a3.87,3.87,0,0,0,.9,1.43,4.52,4.52,0,0,0,2.86.47,6.16,6.16,0,0,0,1-.29,2.79,2.79,0,0,0,1.31-1.38,6.68,6.68,0,0,0,.43-2C21.09,27.43,21.11,27.41,21.11,27.36Z"/><path class="cls-2" d="M17.54,24.85H14.89a2.28,2.28,0,0,1-2.26-1.67,12.66,12.66,0,0,1-.39-1.29,8.58,8.58,0,0,0-1.63-3.4,9.92,9.92,0,0,1-2-4.16,8.3,8.3,0,0,1,1.9-7.13,8.61,8.61,0,0,1,9.12-3.08,8.73,8.73,0,0,1,6.68,6.79,7.75,7.75,0,0,1-.77,5.64,9.18,9.18,0,0,1-1,1.65,10.7,10.7,0,0,0-2.06,4.55,2.47,2.47,0,0,1-2.76,2.13C19.05,24.81,18.28,24.85,17.54,24.85Z"/></svg>