<svg id="Layer_1" data-name="Layer 1" xmlns="http://www.w3.org/2000/svg" viewBox="0 0 35 35"><defs><style>.cls-1{fill:none;stroke:#fff;stroke-linecap:round;stroke-linejoin:round;stroke-width:1.5px;}</style></defs><path class="cls-1" d="M2.17,16.52S1,31.93,16.52,29.49C16.5,29.49,18,16,2.17,16.52Z"/><path class="cls-1" d="M7.31,22a101,101,0,0,1,8,7"/><path class="cls-1" d="M32.82,13.12S17.41,12.08,20,27.54C20,27.54,33.5,29,32.82,13.12Z"/><path class="cls-1" d="M20,27.29s3.28-6.18,7.79-8.82"/><path class="cls-1" d="M10.23,5.25S6.29,16.47,18.29,17.79C18.29,17.79,22.11,8,10.23,5.25Z"/><path class="cls-1" d="M13.13,10.57a37.2,37.2,0,0,1,4.64,7"/></svg>