<svg id="Layer_1" data-name="Layer 1" xmlns="http://www.w3.org/2000/svg" viewBox="0 0 35 35"><defs><style>.cls-1{fill:none;stroke:#fff;stroke-linecap:round;stroke-linejoin:round;stroke-width:1.5px;}.cls-2{fill:#fff;}</style></defs><path class="cls-1" d="M3.68,29.73V18.34a.56.56,0,0,1,.57-.56H9.32a.55.55,0,0,1,.56.56V29.73"/><path class="cls-1" d="M7.78,17.76v-12a.56.56,0,0,1,.57-.57h7.19a.56.56,0,0,1,.57.57V18.05"/><path class="cls-1" d="M13.08,29.73V18.62a.56.56,0,0,1,.56-.57h13a.56.56,0,0,1,.56.57V29.73"/><path class="cls-1" d="M19.1,17.76l1.47-6.43a.57.57,0,0,1,.56-.45h2.61a.55.55,0,0,1,.56.56v.36a.56.56,0,0,0,.57.57h5.88a.56.56,0,0,1,.57.57V29.68"/><path class="cls-2" d="M17.51,22.81h-1.8a.09.09,0,0,1-.09-.09V20.9a.1.1,0,0,1,.09-.09h1.8a.1.1,0,0,1,.09.09v1.82C17.65,22.77,17.6,22.81,17.51,22.81Z"/><path class="cls-2" d="M20.89,22.81H19.08a.09.09,0,0,1-.09-.09V20.9a.1.1,0,0,1,.09-.09h1.81a.1.1,0,0,1,.08.09v1.82C21,22.77,21,22.81,20.89,22.81Z"/><path class="cls-2" d="M24.26,22.81H22.45a.1.1,0,0,1-.09-.09V20.9a.11.11,0,0,1,.09-.09h1.81a.11.11,0,0,1,.09.09v1.82C24.39,22.77,24.35,22.81,24.26,22.81Z"/><path class="cls-2" d="M17.51,26.32h-1.8a.09.09,0,0,1-.09-.09V24.41a.09.09,0,0,1,.09-.09h1.8a.09.09,0,0,1,.09.09v1.82C17.65,26.28,17.6,26.32,17.51,26.32Z"/><path class="cls-2" d="M20.89,26.32H19.08a.09.09,0,0,1-.09-.09V24.41a.09.09,0,0,1,.09-.09h1.81a.09.09,0,0,1,.08.09v1.82C21,26.28,21,26.32,20.89,26.32Z"/><path class="cls-2" d="M24.26,26.32H22.45a.1.1,0,0,1-.09-.09V24.41a.1.1,0,0,1,.09-.09h1.81a.1.1,0,0,1,.09.09v1.82C24.39,26.28,24.35,26.32,24.26,26.32Z"/><path class="cls-2" d="M17.51,29.83h-1.8a.1.1,0,0,1-.09-.09V27.92a.09.09,0,0,1,.09-.09h1.8a.09.09,0,0,1,.09.09v1.82S17.6,29.83,17.51,29.83Z"/><path class="cls-2" d="M7.58,29.83H5.77a.11.11,0,0,1-.09-.09V27.92a.1.1,0,0,1,.09-.09H7.58a.1.1,0,0,1,.09.09v1.82S7.67,29.83,7.58,29.83Z"/><path class="cls-2" d="M7.58,26.32H5.77a.1.1,0,0,1-.09-.09V24.41a.1.1,0,0,1,.09-.09H7.58a.1.1,0,0,1,.09.09v1.82C7.71,26.28,7.67,26.32,7.58,26.32Z"/><path class="cls-2" d="M7.58,22.81H5.77a.1.1,0,0,1-.09-.09V20.9a.11.11,0,0,1,.09-.09H7.58a.11.11,0,0,1,.09.09v1.82C7.71,22.77,7.67,22.81,7.58,22.81Z"/><path class="cls-2" d="M12.75,17.63H10.93a.11.11,0,0,1-.09-.09V15.72a.1.1,0,0,1,.09-.09h1.82a.09.09,0,0,1,.09.09v1.82A.1.1,0,0,1,12.75,17.63Z"/><path class="cls-2" d="M12.75,13.67H10.93a.11.11,0,0,1-.09-.09V11.76a.1.1,0,0,1,.09-.09h1.82a.09.09,0,0,1,.09.09v1.82S12.8,13.67,12.75,13.67Z"/><path class="cls-2" d="M12.75,9.68H10.93a.1.1,0,0,1-.09-.08V7.77a.11.11,0,0,1,.09-.09h1.82a.1.1,0,0,1,.09.09V9.6A.09.09,0,0,1,12.75,9.68Z"/><path class="cls-2" d="M20.89,29.83H19.08a.1.1,0,0,1-.09-.09V27.92a.09.09,0,0,1,.09-.09h1.81a.09.09,0,0,1,.08.09v1.82C21,29.78,21,29.83,20.89,29.83Z"/><path class="cls-2" d="M24.26,29.83H22.45a.11.11,0,0,1-.09-.09V27.92a.1.1,0,0,1,.09-.09h1.81a.1.1,0,0,1,.09.09v1.82S24.35,29.83,24.26,29.83Z"/></svg>