<svg id="Layer_1" data-name="Layer 1" xmlns="http://www.w3.org/2000/svg" viewBox="0 0 35 35"><defs><style>.cls-1{fill:none;stroke:#fff;stroke-linecap:round;stroke-linejoin:round;stroke-width:1.5px;}</style></defs><path class="cls-1" d="M23.35,10.37A2.21,2.21,0,0,1,24,9a.24.24,0,0,1,.16-.07H27.7a.21.21,0,0,0,.22-.22V5a.21.21,0,0,0-.22-.22H7.3A.21.21,0,0,0,7.08,5V8.72a.21.21,0,0,0,.22.22h3.58A.24.24,0,0,1,11,9a2.21,2.21,0,0,1,.61,1.36,2.91,2.91,0,0,0,2.49,2.76.26.26,0,0,1,.23.32,1.12,1.12,0,0,0,0,1,.35.35,0,0,1,0,.47,1.79,1.79,0,0,0-.52,1,.2.2,0,0,1-.18.16c-.75.06-4.1.38-5.41,1.22s0,2,.36,2.26a.42.42,0,0,1,.09.16c.07.66.57,4.53,4.46,4.78a.22.22,0,0,1,.16.36c-.32.43-.66,1.13.2,1.51a.22.22,0,0,1,.09.34,7.93,7.93,0,0,0-1.06,1.81,2.91,2.91,0,0,1-.86,1.36v.34H23.31V29.9a2.69,2.69,0,0,1-.86-1.36,7,7,0,0,0-1.07-1.81.23.23,0,0,1,.09-.34c.84-.38.5-1.1.21-1.51a.22.22,0,0,1,.15-.36c3.9-.25,4.39-4.12,4.46-4.78a.19.19,0,0,1,.09-.16c.34-.27,1.68-1.42.37-2.26s-4.69-1.16-5.41-1.22a.19.19,0,0,1-.18-.16,1.67,1.67,0,0,0-.53-1,.35.35,0,0,1,0-.47,1.15,1.15,0,0,0,.05-1,.25.25,0,0,1,.22-.32A2.89,2.89,0,0,0,23.35,10.37Z"/></svg>