<svg id="Layer_1" data-name="Layer 1" xmlns="http://www.w3.org/2000/svg" viewBox="0 0 35 35"><defs><style>.cls-1,.cls-2{fill:none;stroke:#fff;stroke-width:1.5px;}.cls-1{stroke-linecap:round;stroke-linejoin:round;}</style></defs><path class="cls-1" d="M6.5,17.45H29.13"/><path class="cls-1" d="M18.58,13.54a.77.77,0,0,1-1.34,0l-1.7-2.94L13.85,7.65A.76.76,0,0,1,14.5,6.5h6.79A.76.76,0,0,1,22,7.65l-1.7,2.95Z"/><path class="cls-1" d="M17.23,21.57a.76.76,0,0,1,1.33,0l1.7,2.95L22,27.46a.77.77,0,0,1-.66,1.15H14.51a.75.75,0,0,1-.65-1.15l1.69-2.94Z"/><circle class="cls-2" cx="17.5" cy="17.5" r="15"/></svg>