<svg xmlns="http://www.w3.org/2000/svg" viewBox="0 0 190 190"><defs><style>.cls-1{isolation:isolate;}.cls-2,.cls-3,.cls-4,.cls-5{fill:none;}.cls-2,.cls-5{stroke:#fff;}.cls-2,.cls-3{stroke-linecap:round;stroke-linejoin:round;}.cls-2{stroke-width:2px;}.cls-3{stroke:#ff9fdf;stroke-width:5px;}.cls-4{stroke:#b2b2b2;mix-blend-mode:multiply;}.cls-4,.cls-5{stroke-miterlimit:10;stroke-width:2.5px;}.cls-5{opacity:0.8;mix-blend-mode:soft-light;}</style></defs><g class="cls-1"><g id="Layer_1" data-name="Layer 1"><circle class="cls-2" cx="95" cy="96" r="90.72"/><circle class="cls-3" cx="95" cy="95" r="90.72"/><line class="cls-4" x1="25.53" y1="94" x2="167.42" y2="94"/><line class="cls-5" x1="25.53" y1="96" x2="167.42" y2="96"/><line class="cls-3" x1="25.53" y1="95" x2="167.42" y2="95"/><path class="cls-4" d="M99.42,76.24a3.41,3.41,0,0,1-5.9,0L86,63.2l-7.52-13a3.4,3.4,0,0,1,2.94-5.1h30.1a3.4,3.4,0,0,1,3,5.1L107,63.2Z"/><path class="cls-5" d="M99.42,78.24a3.41,3.41,0,0,1-5.9,0L86,65.2l-7.52-13a3.4,3.4,0,0,1,2.94-5.1h30.1a3.4,3.4,0,0,1,3,5.1L107,65.2Z"/><path class="cls-3" d="M99.42,77.24a3.41,3.41,0,0,1-5.9,0L86,64.2l-7.52-13a3.4,3.4,0,0,1,2.94-5.1h30.1a3.4,3.4,0,0,1,3,5.1L107,64.2Z"/><path class="cls-4" d="M93.52,111.76a3.41,3.41,0,0,1,5.9,0l7.53,13,7.52,13a3.4,3.4,0,0,1-3,5.1H81.42a3.4,3.4,0,0,1-2.94-5.1l7.52-13Z"/><path class="cls-5" d="M93.52,113.76a3.41,3.41,0,0,1,5.9,0l7.53,13,7.52,13a3.4,3.4,0,0,1-3,5.1H81.42a3.4,3.4,0,0,1-2.94-5.1l7.52-13Z"/><path class="cls-3" d="M93.52,112.76a3.41,3.41,0,0,1,5.9,0l7.53,13,7.52,13a3.4,3.4,0,0,1-3,5.1H81.42a3.4,3.4,0,0,1-2.94-5.1l7.52-13Z"/></g></g></svg>