<svg xmlns="http://www.w3.org/2000/svg" viewBox="0 0 190 190"><defs><style>.cls-1,.cls-2{fill:none;stroke-linecap:round;stroke-linejoin:round;}.cls-1{stroke:#fff;stroke-width:2px;}.cls-2{stroke:#ff8310;stroke-width:5px;}</style></defs><g id="Layer_1" data-name="Layer 1"><circle class="cls-1" cx="95" cy="96" r="90.72"/><circle class="cls-2" cx="95" cy="95" r="90.72"/><path class="cls-2" d="M120.8,63.47a9.63,9.63,0,0,1,2.72-6,1,1,0,0,1,.69-.27H140a1,1,0,0,0,1-1V39.7a1,1,0,0,0-1-1H50a1,1,0,0,0-1,1V56.23a1,1,0,0,0,1,1H65.79a1,1,0,0,1,.69.27,9.63,9.63,0,0,1,2.72,6c.35,3.92,2.9,11.39,11,12.21a1.08,1.08,0,0,1,1,1.38c-.42,1.28-.79,3.23.17,4.48a1.56,1.56,0,0,1-.11,2.14A8,8,0,0,0,79,88.12a.88.88,0,0,1-.76.73c-3.27.28-18.06,1.74-23.93,5.43s.06,8.77,1.56,10a.9.9,0,0,1,.36.67c.25,2.9,2.46,20,19.68,21.07a1,1,0,0,1,.71,1.58c-1.38,1.87-2.87,5,.86,6.72a1,1,0,0,1,.39,1.5,31.86,31.86,0,0,0-4.65,8c-1.52,4.34-3.78,5.95-3.78,5.95v1.54h51.22v-1.54s-2.26-1.61-3.78-5.95a31.86,31.86,0,0,0-4.65-8,1,1,0,0,1,.39-1.5c3.73-1.73,2.24-4.85.86-6.72a1,1,0,0,1,.71-1.58c17.22-1.09,19.43-18.17,19.68-21.07a.9.9,0,0,1,.36-.67c1.5-1.18,7.37-6.3,1.56-10s-20.66-5.15-23.93-5.43a.88.88,0,0,1-.76-.73,8,8,0,0,0-2.27-4.44,1.56,1.56,0,0,1-.11-2.14c1-1.25.59-3.2.17-4.48a1.08,1.08,0,0,1,1-1.38C117.9,74.86,120.45,67.39,120.8,63.47Z"/></g></svg>