<svg xmlns="http://www.w3.org/2000/svg" viewBox="0 0 190 190"><defs><style>.cls-1,.cls-2{fill:none;stroke-linecap:round;stroke-linejoin:round;}.cls-1{stroke:#fff;stroke-width:2px;}.cls-2{stroke:#ff583e;stroke-width:5px;}</style></defs><g id="Layer_1" data-name="Layer 1"><circle class="cls-1" cx="95" cy="96" r="90.72"/><circle class="cls-2" cx="95" cy="95" r="90.72"/><path class="cls-2" d="M90.53,77.54a6,6,0,0,0-7-4.86l-.16,0c-.15-1.43-.34-2.82-.57-4.11A23.46,23.46,0,1,0,36.62,77c.24,1.3.54,2.66.91,4.05l-.17,0A6,6,0,0,0,39.51,92.9,6.27,6.27,0,0,0,41.77,92c4.62,8.59,12.25,15.51,23.83,13.41,11.84-2.14,16.49-11.25,17.72-20.89a6,6,0,0,0,2.35,0A6,6,0,0,0,90.53,77.54Z"/><path class="cls-2" d="M79.47,73.82l3.9-.71c-.15-1.68-.37-3.3-.64-4.8a23.16,23.16,0,0,0-3.6-8.86l.05-.12A23.52,23.52,0,0,0,65,49.86a11.28,11.28,0,1,0-18.37,3.32A23.58,23.58,0,0,0,36.75,67l.08.09a23.41,23.41,0,0,0-.26,9.56c.27,1.5.63,3.1,1.08,4.73l3.9-.71,2.29-9.81C48.32,69.81,56.25,67,57.42,60.16c3.48,6,11.91,5.85,16.47,5.28Z"/><path class="cls-2" d="M153.24,75.07c.36-1.41.65-2.79.88-4.11a23.46,23.46,0,1,0-46.22-8c-.23,1.32-.41,2.73-.54,4.19a6,6,0,0,0-1.2,12,6.43,6.43,0,0,0,1.45.06c1.44,9.53,6.25,18.48,17.72,20.47,11.75,2,19.23-4.78,23.72-13.3a5.72,5.72,0,0,0,1.48.49,6,6,0,0,0,2.71-11.71Z"/><path class="cls-2" d="M135,43.83a23.44,23.44,0,0,0-21.87,7.9L153,58.65A23.45,23.45,0,0,0,135,43.83Z"/><path class="cls-2" d="M121.26,130.47h-.16c.32-1.41.57-2.78.76-4.09a23.45,23.45,0,0,0-46.4-6.89c-.19,1.3-.33,2.7-.43,4.14l-.18,0a6,6,0,0,0-1.77,11.93,5.86,5.86,0,0,0,2.44-.14C77.15,145,82.15,154,93.79,155.72c11.9,1.77,19.23-5.38,23.49-14.11a5.92,5.92,0,0,0,2.2.79,6,6,0,1,0,1.78-11.93Z"/><path class="cls-2" d="M120.39,114.1l-.06-.13c0-.12-.11-.23-.16-.35q-.26-.59-.54-1.17s0-.11-.08-.16h0a23.43,23.43,0,0,0-37.78-5.61h0a1.42,1.42,0,0,1-.12.13c-.29.31-.58.64-.86,1l-.24.29-.1.11h0a23.29,23.29,0,0,0-5,11.32c-.22,1.51-.39,3.14-.49,4.83l3.92.58,4.85-7.81c4.43.47,16.8,1.17,25.19-4.23a10.93,10.93,0,0,0,5.63,8.52l2.45,9.18,3.92.58c.4-1.64.71-3.25.93-4.76a23.39,23.39,0,0,0-1.48-12.28Z"/></g></svg>