<svg xmlns="http://www.w3.org/2000/svg" viewBox="0 0 190 190"><defs><style>.cls-1{isolation:isolate;}.cls-2,.cls-3,.cls-4,.cls-5,.cls-7,.cls-9{fill:none;}.cls-2,.cls-5,.cls-9{stroke:#fff;}.cls-2,.cls-3{stroke-linecap:round;stroke-linejoin:round;}.cls-2{stroke-width:2px;}.cls-3{stroke:#d5dd6f;stroke-width:5px;}.cls-4,.cls-7{stroke:#b2b2b2;}.cls-4,.cls-5,.cls-7,.cls-9{stroke-miterlimit:10;stroke-width:2.5px;}.cls-4,.cls-6{mix-blend-mode:multiply;}.cls-5,.cls-8{opacity:0.8;mix-blend-mode:soft-light;}</style></defs><g class="cls-1"><g id="Layer_1" data-name="Layer 1"><circle class="cls-2" cx="95" cy="96" r="90.72"/><circle class="cls-3" cx="95" cy="95" r="90.72"/><path class="cls-4" d="M110.7,138.13c.17-1.86-.54-2.77-2.72-2.77H95.17c-4.38,0-8.71.07-13.09,0-5.71-.08-1.65,8.61-.45,11,.94,1.92,2.17,5.08,4,6.26,3.48,2.21,8.67,2.71,12.64,2.05a21.2,21.2,0,0,0,4.61-1.35,11.91,11.91,0,0,0,5.83-6.13c1.28-2.76,1.45-5.69,1.91-8.65C110.67,138.43,110.69,138.27,110.7,138.13Z"/><path class="cls-5" d="M110.7,140.13c.17-1.86-.54-2.77-2.72-2.77H95.17c-4.38,0-8.71.07-13.09,0-5.71-.08-1.65,8.61-.45,11,.94,1.92,2.17,5.08,4,6.26,3.48,2.21,8.67,2.71,12.64,2.05a21.2,21.2,0,0,0,4.61-1.35,11.91,11.91,0,0,0,5.83-6.13c1.28-2.76,1.45-5.69,1.91-8.65C110.67,140.43,110.69,140.27,110.7,140.13Z"/><path class="cls-3" d="M110.7,139.13c.17-1.86-.54-2.77-2.72-2.77H95.17c-4.38,0-8.71.07-13.09,0-5.71-.08-1.65,8.61-.45,11,.94,1.92,2.17,5.08,4,6.26,3.48,2.21,8.67,2.71,12.64,2.05a21.2,21.2,0,0,0,4.61-1.35,11.91,11.91,0,0,0,5.83-6.13c1.28-2.76,1.45-5.69,1.91-8.65C110.67,139.43,110.69,139.27,110.7,139.13Z"/><g class="cls-6"><path class="cls-7" d="M95,126H83.29a10,10,0,0,1-10-7.41c-.57-1.89-1.26-3.79-1.65-5.74a38.29,38.29,0,0,0-7.18-15c-4.15-5.51-7.46-11.6-8.77-18.43-2.27-11.77.86-22.45,8.43-31.47,10.59-12.63,24.31-17.45,40.25-13.55,15.66,3.85,25.51,14.3,29.55,30,2.23,8.73.74,17-3.36,24.92a39.11,39.11,0,0,1-4.38,7.35c-5,5.86-7.34,12.8-9,20.1-1.31,5.57-5,9.87-12.24,9.36A94.75,94.75,0,0,0,95,126Z"/></g><g class="cls-8"><path class="cls-9" d="M95,128H83.29a10,10,0,0,1-10-7.41c-.57-1.89-1.26-3.79-1.65-5.74a38.29,38.29,0,0,0-7.18-15c-4.15-5.51-7.46-11.6-8.77-18.43-2.27-11.77.86-22.45,8.43-31.47,10.59-12.63,24.31-17.45,40.25-13.55,15.66,3.85,25.51,14.3,29.55,30,2.23,8.73.74,17-3.36,24.92a39.11,39.11,0,0,1-4.38,7.35c-5,5.86-7.34,12.8-9,20.1-1.31,5.57-5,9.87-12.24,9.36A94.75,94.75,0,0,0,95,128Z"/></g><path class="cls-3" d="M95,127H83.29a10,10,0,0,1-10-7.41c-.57-1.89-1.26-3.79-1.65-5.74a38.29,38.29,0,0,0-7.18-15c-4.15-5.51-7.46-11.6-8.77-18.43-2.27-11.77.86-22.45,8.43-31.47,10.59-12.63,24.31-17.45,40.25-13.55,15.66,3.85,25.51,14.3,29.55,30,2.23,8.73.74,17-3.36,24.92a39.11,39.11,0,0,1-4.38,7.35c-5,5.86-7.34,12.8-9,20.1-1.31,5.57-5,9.87-12.24,9.36A94.75,94.75,0,0,0,95,127Z"/></g></g></svg>