<svg xmlns="http://www.w3.org/2000/svg" viewBox="0 0 190 190"><defs><style>.cls-1,.cls-2{fill:none;stroke-linecap:round;stroke-linejoin:round;}.cls-1{stroke:#fff;stroke-width:2px;}.cls-2{stroke:#538dff;stroke-width:5px;}</style></defs><g id="Layer_1" data-name="Layer 1"><circle class="cls-1" cx="95" cy="96" r="90.72"/><circle class="cls-2" cx="95" cy="95" r="90.72"/><path class="cls-2" d="M143.05,51.67A93.57,93.57,0,0,1,100,27.4a7,7,0,0,0-9.9,0A93.57,93.57,0,0,1,47,51.67a7.2,7.2,0,0,0-5.47,6.52C36.59,131.62,79.77,158,91.89,163.92a7.08,7.08,0,0,0,6.22,0c12.12-5.92,55.3-32.3,50.41-105.73A7.2,7.2,0,0,0,143.05,51.67Z"/><polygon class="cls-2" points="71.76 87.43 71.76 122.22 118.4 122.22 118.4 87.43 94.78 67.78 71.76 87.43"/><polyline class="cls-2" points="63.98 94.07 94.78 67.78 126.02 93.69"/></g></svg>