<?xml version="1.0" encoding="utf-8"?>
<!-- Generator: Adobe Illustrator 26.0.0, SVG Export Plug-In . SVG Version: 6.00 Build 0)  -->
<svg version="1.1" id="Layer_1" xmlns="http://www.w3.org/2000/svg" xmlns:xlink="http://www.w3.org/1999/xlink" x="0px" y="0px"
	 viewBox="0 0 190 190" style="enable-background:new 0 0 190 190;" xml:space="preserve">
<style type="text/css">
	.st0{fill:#6ADC7B;}
	.st1{fill:#FFFFFF;}
</style>
<g id="Layer_1_00000080928709302524434380000002504579364774154941_">
	<g>
		<path class="st0" d="M76.7,151.6c-14.4,0-26.1-4-34.8-12.1c-19.2-17.6-17.2-47.7-17.1-49c0.1-1.3,1.1-2.3,2.4-2.3
			c38.4-1.4,54.4,15.9,60.9,30.6c3.4,7.6,4.6,15.2,5,20.2c0.2,2.8,0.6,9.4-0.7,10.7c-0.4,0.4-0.9,0.6-1.4,0.7
			C86,151.2,81.2,151.6,76.7,151.6z M29.7,93.1c0,7.1,1,29.4,15.6,42.7c10,9.2,24.4,12.5,43,9.9c0.2-5.8-0.3-23.8-12.6-37
			C65.6,98.1,50.2,92.8,29.7,93.1z"/>
	</g>
	<g>
		<path class="st0" d="M85.5,148.2c-0.6,0-1.2-0.2-1.7-0.7c-11.2-10.8-23.1-21.1-35.3-30.6c-1.1-0.8-1.3-2.4-0.4-3.5
			c0.8-1.1,2.4-1.3,3.5-0.4c12.4,9.7,24.4,20.1,35.7,31c1,1,1,2.5,0.1,3.5C86.8,147.9,86.2,148.2,85.5,148.2z"/>
	</g>
	<g>
		<path class="st0" d="M109.6,142.1c-2.3,0-3.8-0.1-4-0.2c-1.1-0.1-2-1-2.2-2.1c-3.5-21.1,0.1-37.7,10.6-49.2
			c17.5-19.3,47.6-17.5,48.9-17.4c1.3,0.1,2.3,1.1,2.3,2.4c1,23.2-4.7,40.8-16.9,52.3C134.9,140.5,117.4,142.1,109.6,142.1z
			 M108,137c5.8,0.1,23.8-0.5,36.9-12.9c10.7-10.1,15.8-25.5,15.3-46c-7.1,0-29.4,1.2-42.6,15.9C108.6,104,105.3,118.5,108,137z"/>
	</g>
	<g>
		<path class="st0" d="M106.1,140.8c-0.4,0-0.8-0.1-1.2-0.3c-1.2-0.6-1.7-2.2-1-3.4c0.6-1.1,15.1-28.1,35.3-40
			c1.2-0.7,2.7-0.3,3.4,0.9c0.7,1.2,0.3,2.7-0.9,3.4c-19,11.2-33.3,37.8-33.4,38C107.9,140.3,107,140.8,106.1,140.8z"/>
	</g>
	<g>
		<path class="st0" d="M98.5,98.7c-0.1,0-0.2,0-0.3,0c-16.6-1.8-28.3-7.9-34.8-18.3C52.5,63.2,60.2,41,60.5,40.1
			c0.4-1.2,1.7-1.9,2.9-1.6C81,42.5,93,50.5,99.1,62c8.7,16.6,2,34.4,1.7,35.1C100.4,98.1,99.5,98.7,98.5,98.7z M64.6,43.9
			c-1.5,5.7-4.7,21.7,3.1,33.9c5.4,8.6,15.2,13.8,29.1,15.7c1.4-4.7,4.1-17.5-2-29.2C89.5,54.6,79.4,47.7,64.6,43.9z"/>
	</g>
	<g>
		<path class="st0" d="M96.2,97.7c-1,0-1.9-0.6-2.3-1.5C88.1,83,74,66.1,73.8,66c-0.9-1.1-0.8-2.6,0.3-3.5c1.1-0.9,2.6-0.8,3.5,0.3
			c0.6,0.7,14.7,17.5,20.9,31.5c0.6,1.3,0,2.7-1.3,3.3C96.9,97.6,96.6,97.7,96.2,97.7z"/>
	</g>
	<g>
		<path class="st1" d="M95,187.7c-50.6,0-91.7-41.1-91.7-91.7C3.3,45.4,44.4,4.3,95,4.3c50.6,0,91.7,41.1,91.7,91.7
			C186.7,146.6,145.6,187.7,95,187.7z M95,6.3C45.5,6.3,5.3,46.5,5.3,96s40.2,89.7,89.7,89.7s89.7-40.2,89.7-89.7S144.5,6.3,95,6.3z
			"/>
	</g>
	<g>
		<path class="st0" d="M95,188.2c-51.4,0-93.2-41.8-93.2-93.2C1.8,43.6,43.6,1.8,95,1.8c51.4,0,93.2,41.8,93.2,93.2
			C188.2,146.4,146.4,188.2,95,188.2z M95,6.8C46.4,6.8,6.8,46.4,6.8,95c0,48.6,39.6,88.2,88.2,88.2c48.6,0,88.2-39.6,88.2-88.2
			C183.2,46.4,143.6,6.8,95,6.8z"/>
	</g>
</g>
</svg>
