<svg xmlns="http://www.w3.org/2000/svg" viewBox="0 0 190 190"><defs><style>.cls-1,.cls-2{fill:none;}.cls-1{stroke:#fff;stroke-width:2px;}.cls-1,.cls-2,.cls-3{stroke-linecap:round;stroke-linejoin:round;}.cls-2,.cls-3{stroke:#ff9fdf;stroke-width:5px;}.cls-3{fill:#538dff;}</style></defs><g id="Layer_1" data-name="Layer 1"><circle class="cls-1" cx="95" cy="96" r="90.72"/><circle class="cls-2" cx="95" cy="95" r="90.72"/><path class="cls-2" d="M33.92,149.29V99a2.54,2.54,0,0,1,2.54-2.54H58.83A2.54,2.54,0,0,1,61.37,99v50.32"/><path class="cls-2" d="M52,96.43V43.25a2.54,2.54,0,0,1,2.55-2.54H86.27a2.54,2.54,0,0,1,2.55,2.54V97.68"/><path class="cls-2" d="M75.41,149.29V100.22A2.54,2.54,0,0,1,78,97.68h57.63a2.54,2.54,0,0,1,2.55,2.54v49.07"/><path class="cls-2" d="M102,96.43l6.49-28.38a2.55,2.55,0,0,1,2.48-2h11.47A2.54,2.54,0,0,1,125,68.62v1.62a2.54,2.54,0,0,0,2.54,2.54h26a2.54,2.54,0,0,1,2.54,2.54v74"/><rect class="cls-3" x="89.26" y="109.81" width="4.59" height="4.59" rx="0.24"/><rect class="cls-3" x="104.16" y="109.81" width="4.59" height="4.59" rx="0.24"/><rect class="cls-3" x="119.06" y="109.81" width="4.59" height="4.59" rx="0.24"/><rect class="cls-3" x="89.26" y="125.31" width="4.59" height="4.59" rx="0.24"/><rect class="cls-3" x="104.16" y="125.31" width="4.59" height="4.59" rx="0.24"/><rect class="cls-3" x="119.06" y="125.31" width="4.59" height="4.59" rx="0.24"/><rect class="cls-3" x="89.26" y="140.8" width="4.59" height="4.59" rx="0.24"/><rect class="cls-3" x="45.35" y="140.8" width="4.59" height="4.59" rx="0.24"/><rect class="cls-3" x="45.35" y="125.31" width="4.59" height="4.59" rx="0.24"/><rect class="cls-3" x="45.35" y="109.81" width="4.59" height="4.59" rx="0.24"/><rect class="cls-3" x="68.09" y="86.89" width="4.59" height="4.59" rx="0.24"/><rect class="cls-3" x="68.09" y="69.34" width="4.59" height="4.59" rx="0.24"/><rect class="cls-3" x="68.09" y="51.8" width="4.59" height="4.59" rx="0.24"/><rect class="cls-3" x="104.16" y="140.8" width="4.59" height="4.59" rx="0.24"/><rect class="cls-3" x="119.06" y="140.8" width="4.59" height="4.59" rx="0.24"/></g></svg>